<mxfile host="Electron" modified="2025-08-16T22:31:51.438Z" agent="Mozilla/5.0 (Windows NT 10.0; Win64; x64) AppleWebKit/537.36 (KHTML, like Gecko) draw.io/24.1.0 Chrome/120.0.6099.109 Electron/28.1.0 Safari/537.36" etag="YOsXI93OuG-EiZ_Np8c1" version="24.1.0" type="device">
  <diagram name="Sheet 1" id="rlgoqLv1cVGT0BMiNDzZ">
    <mxGraphModel dx="1418" dy="820" grid="1" gridSize="1.9685" guides="1" tooltips="1" connect="1" arrows="1" fold="1" page="1" pageScale="1" pageWidth="827" pageHeight="1169" math="0" shadow="0">
      <root>
        <mxCell id="6ik4fCtfQ_uQef5bXLx3-0" />
        <mxCell id="6ik4fCtfQ_uQef5bXLx3-1" parent="6ik4fCtfQ_uQef5bXLx3-0" />
        <mxCell id="6ik4fCtfQ_uQef5bXLx3-3" value="" style="rounded=0;whiteSpace=wrap;html=1;fillColor=none;strokeWidth=1;" parent="6ik4fCtfQ_uQef5bXLx3-1" vertex="1">
          <mxGeometry x="39.37" y="39.37" width="748.03" height="1090.63" as="geometry" />
        </mxCell>
        <mxCell id="aeTwBhhCCvQwWrSFB5m5-0" value="" style="shape=image;verticalLabelPosition=bottom;verticalAlign=top;imageAspect=0;aspect=fixed;image=data:image/svg+xml,PHN2ZyB4bWxuczp4bGluaz0iaHR0cDovL3d3dy53My5vcmcvMTk5OS94bGluayIgeG1sbnM9Imh0dHA6Ly93d3cudzMub3JnLzIwMDAvc3ZnIiB2aWV3Qm94PSIwIDAgNTk1IDg0MiIgaGVpZ2h0PSI4NDIiIHdpZHRoPSI1OTUiIHZlcnNpb249IjEuMSI+JiN4YTs8ZGVmcz4mI3hhOzxjbGlwUGF0aCBpZD0iY2xpcF8wIj4mI3hhOzxwYXRoIGQ9Ik0xMjI0IDg5MTNINDUyMVYxMjIxMEgxMjI0Vjg5MTMiIHRyYW5zZm9ybT0ibWF0cml4KC4wNiwwLDAsLS4wNiwwLDg0MikiLz4mI3hhOzwvY2xpcFBhdGg+JiN4YTs8Y2xpcFBhdGggaWQ9ImNsaXBfMSI+JiN4YTs8cGF0aCBkPSJNNTU0MyA5MDQwSDg2MTRWMTIxMTFINTU0M1Y5MDQwIiB0cmFuc2Zvcm09Im1hdHJpeCguMDYsMCwwLC0uMDYsMCw4NDIpIi8+JiN4YTs8L2NsaXBQYXRoPiYjeGE7PGNsaXBQYXRoIGlkPSJjbGlwXzIiPiYjeGE7PHBhdGggZD0iTTU1NDMgNzQ0NUg4NjE0Vjc4NDNINTU0M1Y3NDQ1IiB0cmFuc2Zvcm09Im1hdHJpeCguMDYsMCwwLC0uMDYsMCw4NDIpIi8+JiN4YTs8L2NsaXBQYXRoPiYjeGE7PGNsaXBQYXRoIGlkPSJjbGlwXzMiPiYjeGE7PHBhdGggZD0iTTEyMjQgNzI5MEg0NTIxVjc5NzRIMTIyNFY3MjkwIiB0cmFuc2Zvcm09Im1hdHJpeCguMDYsMCwwLC0uMDYsMCw4NDIpIi8+JiN4YTs8L2NsaXBQYXRoPiYjeGE7PGNsaXBQYXRoIGlkPSJjbGlwXzQiPiYjeGE7PHBhdGggZD0iTTAgMEg5OTIxVjE0MDMxSDBWMCIgdHJhbnNmb3JtPSJtYXRyaXgoLjA2LDAsMCwtLjA2LDAsODQyKSIvPiYjeGE7PC9jbGlwUGF0aD4mI3hhOzxjbGlwUGF0aCBpZD0iY2xpcF81Ij4mI3hhOzxwYXRoIGQ9Ik0wIDBIOTkyMVYxNDAzMUgwVjAiIHRyYW5zZm9ybT0ibWF0cml4KC4wNiwwLDAsLS4wNiwwLDg0MikiLz4mI3hhOzwvY2xpcFBhdGg+JiN4YTs8Y2xpcFBhdGggaWQ9ImNsaXBfNiI+JiN4YTs8cGF0aCBkPSJNMCAwSDk5MjFWMTQwMzFIMFYwIiB0cmFuc2Zvcm09Im1hdHJpeCguMDYsMCwwLC0uMDYsMCw4NDIpIi8+JiN4YTs8L2NsaXBQYXRoPiYjeGE7PGNsaXBQYXRoIGlkPSJjbGlwXzciPiYjeGE7PHBhdGggZD0iTTAgMEg5OTIxVjE0MDMxSDBWMCIgdHJhbnNmb3JtPSJtYXRyaXgoLjA2LDAsMCwtLjA2LDAsODQyKSIvPiYjeGE7PC9jbGlwUGF0aD4mI3hhOzxjbGlwUGF0aCBpZD0iY2xpcF84Ij4mI3hhOzxwYXRoIGQ9Ik0wIDBIOTkyMVYxNDAzMUgwVjAiIHRyYW5zZm9ybT0ibWF0cml4KC4wNiwwLDAsLS4wNiwwLDg0MikiLz4mI3hhOzwvY2xpcFBhdGg+JiN4YTs8L2RlZnM+JiN4YTs8ZyBjbGlwLXBhdGg9InVybCgjY2xpcF8wKSI+JiN4YTs8Zz4mI3hhOzxwYXRoIGQ9Ik0xNDA4IDEwNTYyLjVDMTQwOCA5NzUzLjY3OSAyMDYzLjY3OSA5MDk4IDI4NzIuNSA5MDk4IDM2ODEuMzIxIDkwOTggNDMzNyA5NzUzLjY3OSA0MzM3IDEwNTYyLjUgNDMzNyAxMTM3MS4zMjEgMzY4MS4zMjEgMTIwMjcgMjg3Mi41IDEyMDI3IDIwNjMuNjc5IDEyMDI3IDE0MDggMTEzNzEuMzIxIDE0MDggMTA1NjIuNSIgc3Ryb2tlPSIjMDAwMDAwIiBmaWxsPSJub25lIiBzdHJva2UtbGluZWpvaW49InJvdW5kIiBzdHJva2UtbGluZWNhcD0icm91bmQiIHN0cm9rZS13aWR0aD0iMTIiIHRyYW5zZm9ybT0ibWF0cml4KC4wNiwwLDAsLS4wNiwwLDg0MikiLz4mI3hhOzxwYXRoIGQ9Ik0xNDg2IDEwNTYyLjVDMTQ4NiA5Nzk2Ljc1NyAyMTA2Ljc1NyA5MTc2IDI4NzIuNSA5MTc2IDM2MzguMjQzIDkxNzYgNDI1OSA5Nzk2Ljc1NyA0MjU5IDEwNTYyLjUgNDI1OSAxMTMyOC4yNDMgMzYzOC4yNDMgMTE5NDkgMjg3Mi41IDExOTQ5IDIxMDYuNzU3IDExOTQ5IDE0ODYgMTEzMjguMjQzIDE0ODYgMTA1NjIuNSIgc3Ryb2tlPSIjMDAwMDAwIiBmaWxsPSJub25lIiBzdHJva2UtbGluZWpvaW49InJvdW5kIiBzdHJva2UtbGluZWNhcD0icm91bmQiIHN0cm9rZS13aWR0aD0iMTIiIHRyYW5zZm9ybT0ibWF0cml4KC4wNiwwLDAsLS4wNiwwLDg0MikiLz4mI3hhOzxwYXRoIGQ9Ik00MzY5IDEwNTYyLjVDNDM2OSAxMTM4OC45OTQgMzY5OC45OTQyIDEyMDU5IDI4NzIuNSAxMjA1OSAyMDQ2LjAwNTkgMTIwNTkgMTM3NiAxMTM4OC45OTQgMTM3NiAxMDU2Mi41IDEzNzYgOTczNi4wMDYgMjA0Ni4wMDU5IDkwNjYgMjg3Mi41IDkwNjYgMzY5OC45OTQyIDkwNjYgNDM2OSA5NzM2LjAwNiA0MzY5IDEwNTYyLjUiIHN0cm9rZT0iIzAwMDAwMCIgZmlsbD0ibm9uZSIgc3Ryb2tlLWxpbmVqb2luPSJyb3VuZCIgc3Ryb2tlLWxpbmVjYXA9InJvdW5kIiBzdHJva2Utd2lkdGg9IjEyIiB0cmFuc2Zvcm09Im1hdHJpeCguMDYsMCwwLC0uMDYsMCw4NDIpIi8+JiN4YTs8cGF0aCBkPSJNNDEwNiAxMDU2Mi41QzQxMDYgMTEyNDMuNzQzIDM1NTMuNzQzMiAxMTc5NiAyODcyLjUgMTE3OTYgMjE5MS4yNTY5IDExNzk2IDE2MzkgMTEyNDMuNzQzIDE2MzkgMTA1NjIuNSAxNjM5IDk4ODEuMjU3IDIxOTEuMjU2OSA5MzI5IDI4NzIuNSA5MzI5IDM1NTMuNzQzMiA5MzI5IDQxMDYgOTg4MS4yNTcgNDEwNiAxMDU2Mi41IiBzdHJva2U9IiMwMDAwMDAiIGZpbGw9Im5vbmUiIHN0cm9rZS1saW5lam9pbj0icm91bmQiIHN0cm9rZS1saW5lY2FwPSJyb3VuZCIgc3Ryb2tlLXdpZHRoPSIxMiIgdHJhbnNmb3JtPSJtYXRyaXgoLjA2LDAsMCwtLjA2LDAsODQyKSIvPiYjeGE7PHBhdGggZD0iTTE1MTggMTA1NjIuNUMxNTE4IDk4MTQuNDMxIDIxMjQuNDMwMiA5MjA4IDI4NzIuNSA5MjA4IDM2MjAuNTY5OSA5MjA4IDQyMjcgOTgxNC40MzEgNDIyNyAxMDU2Mi41IDQyMjcgMTEzMTAuNTY5IDM2MjAuNTY5OSAxMTkxNyAyODcyLjUgMTE5MTcgMjEyNC40MzAyIDExOTE3IDE1MTggMTEzMTAuNTY5IDE1MTggMTA1NjIuNSIgc3Ryb2tlPSIjMDAwMDAwIiBmaWxsPSJub25lIiBzdHJva2UtbGluZWpvaW49InJvdW5kIiBzdHJva2UtbGluZWNhcD0icm91bmQiIHN0cm9rZS13aWR0aD0iMTIiIHRyYW5zZm9ybT0ibWF0cml4KC4wNiwwLDAsLS4wNiwwLDg0MikiLz4mI3hhOzxwYXRoIGQ9Ik00MjM3IDEwNTYyLjVDNDIzNyAxMTMxNi4wOTMgMzYyNi4wOTI2IDExOTI3IDI4NzIuNSAxMTkyNyAyMTE4LjkwNzUgMTE5MjcgMTUwOCAxMTMxNi4wOTMgMTUwOCAxMDU2Mi41IDE1MDggOTgwOC45MDcgMjExOC45MDc1IDkxOTggMjg3Mi41IDkxOTggMzYyNi4wOTI2IDkxOTggNDIzNyA5ODA4LjkwNyA0MjM3IDEwNTYyLjUiIHN0cm9rZT0iIzAwMDAwMCIgZmlsbD0ibm9uZSIgc3Ryb2tlLWxpbmVqb2luPSJyb3VuZCIgc3Ryb2tlLWxpbmVjYXA9InJvdW5kIiBzdHJva2Utd2lkdGg9IjEyIiB0cmFuc2Zvcm09Im1hdHJpeCguMDYsMCwwLC0uMDYsMCw4NDIpIi8+JiN4YTs8cGF0aCBkPSJNMTY1MiAxMDU2Mi41QzE2NTIgOTg4OC40MzcgMjE5OC40MzY2IDkzNDIgMjg3Mi41IDkzNDIgMzU0Ni41NjM1IDkzNDIgNDA5MyA5ODg4LjQzNyA0MDkzIDEwNTYyLjUgNDA5MyAxMTIzNi41NjMgMzU0Ni41NjM1IDExNzgzIDI4NzIuNSAxMTc4MyAyMTk4LjQzNjYgMTE3ODMgMTY1MiAxMTIzNi41NjMgMTY1MiAxMDU2Mi41IiBzdHJva2U9IiMwMDAwMDAiIGZpbGw9Im5vbmUiIHN0cm9rZS1saW5lam9pbj0icm91bmQiIHN0cm9rZS1saW5lY2FwPSJyb3VuZCIgc3Ryb2tlLXdpZHRoPSIxMiIgdHJhbnNmb3JtPSJtYXRyaXgoLjA2LDAsMCwtLjA2LDAsODQyKSIvPiYjeGE7PHBhdGggZD0iTTQzNDcgMTA1NjIuNUM0MzQ3IDExMzc2Ljg0NCAzNjg2Ljg0NCAxMjAzNyAyODcyLjUgMTIwMzcgMjA1OC4xNTYgMTIwMzcgMTM5OCAxMTM3Ni44NDQgMTM5OCAxMDU2Mi41IDEzOTggOTc0OC4xNTYgMjA1OC4xNTYgOTA4OCAyODcyLjUgOTA4OCAzNjg2Ljg0NCA5MDg4IDQzNDcgOTc0OC4xNTYgNDM0NyAxMDU2Mi41IiBzdHJva2U9IiMwMDAwMDAiIGZpbGw9Im5vbmUiIHN0cm9rZS1saW5lam9pbj0icm91bmQiIHN0cm9rZS1saW5lY2FwPSJyb3VuZCIgc3Ryb2tlLXdpZHRoPSIxMiIgdHJhbnNmb3JtPSJtYXRyaXgoLjA2LDAsMCwtLjA2LDAsODQyKSIvPiYjeGE7PHBhdGggZD0iTTEzODYgMTA1NjIuNUMxMzg2IDk3NDEuNTI4IDIwNTEuNTI4NiA5MDc2IDI4NzIuNSA5MDc2IDM2OTMuNDcxNSA5MDc2IDQzNTkgOTc0MS41MjggNDM1OSAxMDU2Mi41IDQzNTkgMTEzODMuNDcyIDM2OTMuNDcxNSAxMjA0OSAyODcyLjUgMTIwNDkgMjA1MS41Mjg2IDEyMDQ5IDEzODYgMTEzODMuNDcyIDEzODYgMTA1NjIuNSIgc3Ryb2tlPSIjMDAwMDAwIiBmaWxsPSJub25lIiBzdHJva2UtbGluZWpvaW49InJvdW5kIiBzdHJva2UtbGluZWNhcD0icm91bmQiIHN0cm9rZS13aWR0aD0iMTIiIHRyYW5zZm9ybT0ibWF0cml4KC4wNiwwLDAsLS4wNiwwLDg0MikiLz4mI3hhOzwvZz4mI3hhOzwvZz4mI3hhOzxnIGNsaXAtcGF0aD0idXJsKCNjbGlwXzEpIj4mI3hhOzxwYXRoIGQ9Ik02NzE2IDEwNTc1LjVDNjcxNiAxMDM3NS4yOTcgNjg3OC4yOTcgMTAyMTMgNzA3OC41IDEwMjEzIDcyNzguNzAzIDEwMjEzIDc0NDEgMTAzNzUuMjk3IDc0NDEgMTA1NzUuNSA3NDQxIDEwNzc1LjcwMyA3Mjc4LjcwMyAxMDkzOCA3MDc4LjUgMTA5MzggNjg3OC4yOTcgMTA5MzggNjcxNiAxMDc3NS43MDMgNjcxNiAxMDU3NS41IiBzdHJva2U9IiMwMDAwMDAiIGZpbGw9Im5vbmUiIHN0cm9rZS1saW5lam9pbj0icm91bmQiIHN0cm9rZS1saW5lY2FwPSJyb3VuZCIgc3Ryb2tlLXdpZHRoPSIxMiIgdHJhbnNmb3JtPSJtYXRyaXgoLjA2LDAsMCwtLjA2LDAsODQyKSIvPiYjeGE7PHBhdGggZD0iTTc0NDcgMTA1NzUuNUM3NDQ3IDEwNzc5LjAxNyA3MjgyLjAxNyAxMDk0NCA3MDc4LjUgMTA5NDQgNjg3NC45ODMgMTA5NDQgNjcxMCAxMDc3OS4wMTcgNjcxMCAxMDU3NS41IDY3MTAgMTAzNzEuOTgzIDY4NzQuOTgzIDEwMjA3IDcwNzguNSAxMDIwNyA3MjgyLjAxNyAxMDIwNyA3NDQ3IDEwMzcxLjk4MyA3NDQ3IDEwNTc1LjUiIHN0cm9rZT0iIzAwMDAwMCIgZmlsbD0ibm9uZSIgc3Ryb2tlLWxpbmVqb2luPSJyb3VuZCIgc3Ryb2tlLWxpbmVjYXA9InJvdW5kIiBzdHJva2Utd2lkdGg9IjEyIiB0cmFuc2Zvcm09Im1hdHJpeCguMDYsMCwwLC0uMDYsMCw4NDIpIi8+JiN4YTs8cGF0aCBkPSJNNjY5NCAxMDU3NS41QzY2OTQgMTAzNjMuMTQ2IDY4NjYuMTQ2NyAxMDE5MSA3MDc4LjUgMTAxOTEgNzI5MC44NTM3IDEwMTkxIDc0NjMgMTAzNjMuMTQ2IDc0NjMgMTA1NzUuNSA3NDYzIDEwNzg3Ljg1NCA3MjkwLjg1MzcgMTA5NjAgNzA3OC41IDEwOTYwIDY4NjYuMTQ2NyAxMDk2MCA2Njk0IDEwNzg3Ljg1NCA2Njk0IDEwNTc1LjUiIHN0cm9rZT0iIzAwMDAwMCIgZmlsbD0ibm9uZSIgc3Ryb2tlLWxpbmVqb2luPSJyb3VuZCIgc3Ryb2tlLWxpbmVjYXA9InJvdW5kIiBzdHJva2Utd2lkdGg9IjEyIiB0cmFuc2Zvcm09Im1hdHJpeCguMDYsMCwwLC0uMDYsMCw4NDIpIi8+JiN4YTs8cGF0aCBkPSJNNzQ2OSAxMDU3NS41Qzc0NjkgMTA3OTEuMTY3IDcyOTQuMTY3IDEwOTY2IDcwNzguNSAxMDk2NiA2ODYyLjgzMyAxMDk2NiA2Njg4IDEwNzkxLjE2NyA2Njg4IDEwNTc1LjUgNjY4OCAxMDM1OS44MzMgNjg2Mi44MzMgMTAxODUgNzA3OC41IDEwMTg1IDcyOTQuMTY3IDEwMTg1IDc0NjkgMTAzNTkuODMzIDc0NjkgMTA1NzUuNSIgc3Ryb2tlPSIjMDAwMDAwIiBmaWxsPSJub25lIiBzdHJva2UtbGluZWpvaW49InJvdW5kIiBzdHJva2UtbGluZWNhcD0icm91bmQiIHN0cm9rZS13aWR0aD0iMTIiIHRyYW5zZm9ybT0ibWF0cml4KC4wNiwwLDAsLS4wNiwwLDg0MikiLz4mI3hhOzxwYXRoIGQ9Ik02NzQ4IDEwNTQ0SDY3NDQgNjc0MCA2NzM3IDY3MzMgNjcyOSA2NzI1IDY3MjEgNjcxNyIgc3Ryb2tlPSIjMDAwMDAwIiBmaWxsPSJub25lIiBzdHJva2UtbGluZWpvaW49InJvdW5kIiBzdHJva2UtbGluZWNhcD0icm91bmQiIHN0cm9rZS13aWR0aD0iMTIiIHRyYW5zZm9ybT0ibWF0cml4KC4wNiwwLDAsLS4wNiwwLDg0MikiLz4mI3hhOzxwYXRoIGQ9Ik02NzI1IDEwNDk0IDY3MjkgMTA0OTUgNjczMyAxMDQ5NiA2NzM2IDEwNDk3IDY3NDAgMTA0OTkgNjc0NCAxMDUwMCA2NzQ3IDEwNTAxIDY3NTEgMTA1MDIgNjc1NCAxMDUwMyIgc3Ryb2tlPSIjMDAwMDAwIiBmaWxsPSJub25lIiBzdHJva2UtbGluZWpvaW49InJvdW5kIiBzdHJva2UtbGluZWNhcD0icm91bmQiIHN0cm9rZS13aWR0aD0iMTIiIHRyYW5zZm9ybT0ibWF0cml4KC4wNiwwLDAsLS4wNiwwLDg0MikiLz4mI3hhOzxwYXRoIGQ9Ik0tMzI5LjkzMjY5IDQxLjIzOTM1Qy0zMzEuNjQyNTkgMjcuNTU5NDEtMzMyLjUgMTMuNzg2MzgtMzMyLjUgMCIgc3Ryb2tlPSIjMDAwMDAwIiBmaWxsPSJub25lIiBzdHJva2UtbGluZWpvaW49InJvdW5kIiBzdHJva2UtbGluZWNhcD0icm91bmQiIHN0cm9rZS13aWR0aD0iMTIiIHRyYW5zZm9ybT0ibWF0cml4KC4wNTg1NjM1OTksLS4wMTMwNTA2LC0uMDEzMDUwNiwtLjA1ODU2MzU5OSw0MjQuNzEsMjA3LjQ3MDAzKSIvPiYjeGE7PHBhdGggZD0iTTY3NTQgMTA2NDggNjc1MSAxMDY0OSA2NzQ3IDEwNjUwIDY3NDQgMTA2NTEgNjc0MCAxMDY1MiA2NzM2IDEwNjU0IDY3MzMgMTA2NTUgNjcyOSAxMDY1NiA2NzI1IDEwNjU3IiBzdHJva2U9IiMwMDAwMDAiIGZpbGw9Im5vbmUiIHN0cm9rZS1saW5lam9pbj0icm91bmQiIHN0cm9rZS1saW5lY2FwPSJyb3VuZCIgc3Ryb2tlLXdpZHRoPSIxMiIgdHJhbnNmb3JtPSJtYXRyaXgoLjA2LDAsMCwtLjA2LDAsODQyKSIvPiYjeGE7PHBhdGggZD0iTTY3MTcgMTA2MDdINjcyMSA2NzI1IDY3MjkgNjczMyA2NzM3IDY3NDAgNjc0NCA2NzQ4IiBzdHJva2U9IiMwMDAwMDAiIGZpbGw9Im5vbmUiIHN0cm9rZS1saW5lam9pbj0icm91bmQiIHN0cm9rZS1saW5lY2FwPSJyb3VuZCIgc3Ryb2tlLXdpZHRoPSIxMiIgdHJhbnNmb3JtPSJtYXRyaXgoLjA2LDAsMCwtLjA2LDAsODQyKSIvPiYjeGE7PHBhdGggZD0iTS0zMjkuOTMyNjkgNDEuMjM5MzVDLTMzMS42NDI1OSAyNy41NTk0MS0zMzIuNSAxMy43ODYzOC0zMzIuNSAwIiBzdHJva2U9IiMwMDAwMDAiIGZpbGw9Im5vbmUiIHN0cm9rZS1saW5lam9pbj0icm91bmQiIHN0cm9rZS1saW5lY2FwPSJyb3VuZCIgc3Ryb2tlLXdpZHRoPSIxMiIgdHJhbnNmb3JtPSJtYXRyaXgoLjA1OTczLC4wMDU2ODYxOTk5LC4wMDU2ODYxOTk5LC0uMDU5NzMsNDI0LjcxLDIwNy40NzAwMykiLz4mI3hhOzxwYXRoIGQ9Ik02NzkyIDEwNzQ1IDY3ODkgMTA3NDcgNjc4NiAxMDc0OSA2NzgzIDEwNzUxIDY3ODAgMTA3NTMgNjc3NyAxMDc1NSA2Nzc0IDEwNzU4IDY3NzEgMTA3NjAgNjc2OCAxMDc2MiIgc3Ryb2tlPSIjMDAwMDAwIiBmaWxsPSJub25lIiBzdHJva2UtbGluZWpvaW49InJvdW5kIiBzdHJva2UtbGluZWNhcD0icm91bmQiIHN0cm9rZS13aWR0aD0iMTIiIHRyYW5zZm9ybT0ibWF0cml4KC4wNiwwLDAsLS4wNiwwLDg0MikiLz4mI3hhOzxwYXRoIGQ9Ik02NzQ1IDEwNzE3IDY3NDkgMTA3MTYgNjc1MiAxMDcxNSA2NzU2IDEwNzEzIDY3NTkgMTA3MTIgNjc2MyAxMDcxMSA2NzY3IDEwNzEwIDY3NzAgMTA3MDkgNjc3MyAxMDcwOCIgc3Ryb2tlPSIjMDAwMDAwIiBmaWxsPSJub25lIiBzdHJva2UtbGluZWpvaW49InJvdW5kIiBzdHJva2UtbGluZWNhcD0icm91bmQiIHN0cm9rZS13aWR0aD0iMTIiIHRyYW5zZm9ybT0ibWF0cml4KC4wNiwwLDAsLS4wNiwwLDg0MikiLz4mI3hhOzxwYXRoIGQ9Ik0tMzI5LjkzMjY5IDQxLjIzOTM1Qy0zMzEuNjQyNTkgMjcuNTU5NDEtMzMyLjUgMTMuNzg2MzgtMzMyLjUgMCIgc3Ryb2tlPSIjMDAwMDAwIiBmaWxsPSJub25lIiBzdHJva2UtbGluZWpvaW49InJvdW5kIiBzdHJva2UtbGluZWNhcD0icm91bmQiIHN0cm9rZS13aWR0aD0iMTIiIHRyYW5zZm9ybT0ibWF0cml4KC4wNTUwNDg3OTksLjAyMzg2Njc5OSwuMDIzODY2Nzk5LC0uMDU1MDQ4Nzk5LDQyNC43MSwyMDcuNDcwMDMpIi8+JiN4YTs8cGF0aCBkPSJNNjg1OCAxMDgyNSA2ODU2IDEwODI4IDY4NTQgMTA4MzEgNjg1MiAxMDgzNCA2ODUwIDEwODM3IDY4NDggMTA4NDAgNjg0NSAxMDg0MyA2ODQzIDEwODQ2IDY4NDEgMTA4NDkiIHN0cm9rZT0iIzAwMDAwMCIgZmlsbD0ibm9uZSIgc3Ryb2tlLWxpbmVqb2luPSJyb3VuZCIgc3Ryb2tlLWxpbmVjYXA9InJvdW5kIiBzdHJva2Utd2lkdGg9IjEyIiB0cmFuc2Zvcm09Im1hdHJpeCguMDYsMCwwLC0uMDYsMCw4NDIpIi8+JiN4YTs8cGF0aCBkPSJNNjgwNSAxMDgxMyA2ODA4IDEwODExIDY4MTEgMTA4MDkgNjgxNCAxMDgwNiA2ODE3IDEwODA0IDY4MjAgMTA4MDIgNjgyMyAxMDgwMCA2ODI2IDEwNzk4IDY4MjkgMTA3OTYiIHN0cm9rZT0iIzAwMDAwMCIgZmlsbD0ibm9uZSIgc3Ryb2tlLWxpbmVqb2luPSJyb3VuZCIgc3Ryb2tlLWxpbmVjYXA9InJvdW5kIiBzdHJva2Utd2lkdGg9IjEyIiB0cmFuc2Zvcm09Im1hdHJpeCguMDYsMCwwLC0uMDYsMCw4NDIpIi8+JiN4YTs8cGF0aCBkPSJNLTMyOS45MzI2OSA0MS4yMzkzNUMtMzMxLjY0MjU5IDI3LjU1OTQxLTMzMi41IDEzLjc4NjM4LTMzMi41IDAiIHN0cm9rZT0iIzAwMDAwMCIgZmlsbD0ibm9uZSIgc3Ryb2tlLWxpbmVqb2luPSJyb3VuZCIgc3Ryb2tlLWxpbmVjYXA9InJvdW5kIiBzdHJva2Utd2lkdGg9IjEyIiB0cmFuc2Zvcm09Im1hdHJpeCguMDQ0OTc4NCwuMDM5NzEwNCwuMDM5NzEwNCwtLjA0NDk3ODQsNDI0LjcxLDIwNy40NzAwMykiLz4mI3hhOzxwYXRoIGQ9Ik02OTQ2IDEwODgxIDY5NDUgMTA4ODQgNjk0NCAxMDg4NyA2OTQzIDEwODkxIDY5NDIgMTA4OTUgNjk0MSAxMDg5OCA2OTM5IDEwOTAyIDY5MzggMTA5MDUgNjkzNyAxMDkwOSIgc3Ryb2tlPSIjMDAwMDAwIiBmaWxsPSJub25lIiBzdHJva2UtbGluZWpvaW49InJvdW5kIiBzdHJva2UtbGluZWNhcD0icm91bmQiIHN0cm9rZS13aWR0aD0iMTIiIHRyYW5zZm9ybT0ibWF0cml4KC4wNiwwLDAsLS4wNiwwLDg0MikiLz4mI3hhOzxwYXRoIGQ9Ik02ODkyIDEwODg2IDY4OTQgMTA4ODMgNjg5NiAxMDg4MCA2ODk5IDEwODc3IDY5MDEgMTA4NzQgNjkwMyAxMDg3MSA2OTA1IDEwODY4IDY5MDcgMTA4NjUgNjkwOSAxMDg2MiIgc3Ryb2tlPSIjMDAwMDAwIiBmaWxsPSJub25lIiBzdHJva2UtbGluZWpvaW49InJvdW5kIiBzdHJva2UtbGluZWNhcD0icm91bmQiIHN0cm9rZS13aWR0aD0iMTIiIHRyYW5zZm9ybT0ibWF0cml4KC4wNiwwLDAsLS4wNiwwLDg0MikiLz4mI3hhOzxwYXRoIGQ9Ik0tMzI5LjkzMjY5IDQxLjIzOTM1Qy0zMzEuNjQyNTkgMjcuNTU5NDEtMzMyLjUgMTMuNzg2MzgtMzMyLjUgMCIgc3Ryb2tlPSIjMDAwMDAwIiBmaWxsPSJub25lIiBzdHJva2UtbGluZWpvaW49InJvdW5kIiBzdHJva2UtbGluZWNhcD0icm91bmQiIHN0cm9rZS13aWR0aD0iMTIiIHRyYW5zZm9ybT0ibWF0cml4KC4wMzA1MDUxOTksLjA1MTY2NjYsLjA1MTY2NjYsLS4wMzA1MDUxOTksNDI0LjcxLDIwNy40NzAwMykiLz4mI3hhOzxwYXRoIGQ9Ik03MDQ3IDEwOTA2VjEwOTEwIDEwOTE0IDEwOTE3IDEwOTIxIDEwOTI1IDEwOTI5IDEwOTMzIDEwOTM3IiBzdHJva2U9IiMwMDAwMDAiIGZpbGw9Im5vbmUiIHN0cm9rZS1saW5lam9pbj0icm91bmQiIHN0cm9rZS1saW5lY2FwPSJyb3VuZCIgc3Ryb2tlLXdpZHRoPSIxMiIgdHJhbnNmb3JtPSJtYXRyaXgoLjA2LDAsMCwtLjA2LDAsODQyKSIvPiYjeGE7PHBhdGggZD0iTTY5OTcgMTA5MjkgNjk5OCAxMDkyNSA2OTk5IDEwOTIxIDcwMDAgMTA5MTggNzAwMiAxMDkxNCA3MDAzIDEwOTEwIDcwMDQgMTA5MDcgNzAwNSAxMDkwMyA3MDA2IDEwOTAwIiBzdHJva2U9IiMwMDAwMDAiIGZpbGw9Im5vbmUiIHN0cm9rZS1saW5lam9pbj0icm91bmQiIHN0cm9rZS1saW5lY2FwPSJyb3VuZCIgc3Ryb2tlLXdpZHRoPSIxMiIgdHJhbnNmb3JtPSJtYXRyaXgoLjA2LDAsMCwtLjA2LDAsODQyKSIvPiYjeGE7PHBhdGggZD0iTS0zMjkuOTMyNjkgNDEuMjM5MzVDLTMzMS42NDI1OSAyNy41NTk0MS0zMzIuNSAxMy43ODYzOC0zMzIuNSAwIiBzdHJva2U9IiMwMDAwMDAiIGZpbGw9Im5vbmUiIHN0cm9rZS1saW5lam9pbj0icm91bmQiIHN0cm9rZS1saW5lY2FwPSJyb3VuZCIgc3Ryb2tlLXdpZHRoPSIxMiIgdHJhbnNmb3JtPSJtYXRyaXgoLjAxMzA1MDYsLjA1ODU2MzU5OSwuMDU4NTYzNTk5LC0uMDEzMDUwNiw0MjQuNzEsMjA3LjQ3MDAzKSIvPiYjeGE7PHBhdGggZD0iTTcxNTEgMTA5MDAgNzE1MiAxMDkwMyA3MTUzIDEwOTA3IDcxNTQgMTA5MTAgNzE1NSAxMDkxNCA3MTU3IDEwOTE4IDcxNTggMTA5MjEgNzE1OSAxMDkyNSA3MTYwIDEwOTI5IiBzdHJva2U9IiMwMDAwMDAiIGZpbGw9Im5vbmUiIHN0cm9rZS1saW5lam9pbj0icm91bmQiIHN0cm9rZS1saW5lY2FwPSJyb3VuZCIgc3Ryb2tlLXdpZHRoPSIxMiIgdHJhbnNmb3JtPSJtYXRyaXgoLjA2LDAsMCwtLjA2LDAsODQyKSIvPiYjeGE7PHBhdGggZD0iTTcxMTAgMTA5MzdWMTA5MzMgMTA5MjkgMTA5MjUgMTA5MjEgMTA5MTcgMTA5MTQgMTA5MTAgMTA5MDYiIHN0cm9rZT0iIzAwMDAwMCIgZmlsbD0ibm9uZSIgc3Ryb2tlLWxpbmVqb2luPSJyb3VuZCIgc3Ryb2tlLWxpbmVjYXA9InJvdW5kIiBzdHJva2Utd2lkdGg9IjEyIiB0cmFuc2Zvcm09Im1hdHJpeCguMDYsMCwwLC0uMDYsMCw4NDIpIi8+JiN4YTs8cGF0aCBkPSJNLTMyOS45MzI2OSA0MS4yMzkzNUMtMzMxLjY0MjU5IDI3LjU1OTQxLTMzMi41IDEzLjc4NjM4LTMzMi41IDAiIHN0cm9rZT0iIzAwMDAwMCIgZmlsbD0ibm9uZSIgc3Ryb2tlLWxpbmVqb2luPSJyb3VuZCIgc3Ryb2tlLWxpbmVjYXA9InJvdW5kIiBzdHJva2Utd2lkdGg9IjEyIiB0cmFuc2Zvcm09Im1hdHJpeCgtLjAwNTY4NjE5OTksLjA1OTczLC4wNTk3MywuMDA1Njg2MTk5OSw0MjQuNzEsMjA3LjQ3MDAzKSIvPiYjeGE7PHBhdGggZD0iTTcyNDggMTA4NjIgNzI1MCAxMDg2NSA3MjUyIDEwODY4IDcyNTQgMTA4NzEgNzI1NiAxMDg3NCA3MjU4IDEwODc3IDcyNjEgMTA4ODAgNzI2MyAxMDg4MyA3MjY1IDEwODg2IiBzdHJva2U9IiMwMDAwMDAiIGZpbGw9Im5vbmUiIHN0cm9rZS1saW5lam9pbj0icm91bmQiIHN0cm9rZS1saW5lY2FwPSJyb3VuZCIgc3Ryb2tlLXdpZHRoPSIxMiIgdHJhbnNmb3JtPSJtYXRyaXgoLjA2LDAsMCwtLjA2LDAsODQyKSIvPiYjeGE7PHBhdGggZD0iTTcyMjAgMTA5MDkgNzIxOSAxMDkwNSA3MjE4IDEwOTAyIDcyMTYgMTA4OTggNzIxNSAxMDg5NSA3MjE0IDEwODkxIDcyMTMgMTA4ODcgNzIxMiAxMDg4NCA3MjExIDEwODgxIiBzdHJva2U9IiMwMDAwMDAiIGZpbGw9Im5vbmUiIHN0cm9rZS1saW5lam9pbj0icm91bmQiIHN0cm9rZS1saW5lY2FwPSJyb3VuZCIgc3Ryb2tlLXdpZHRoPSIxMiIgdHJhbnNmb3JtPSJtYXRyaXgoLjA2LDAsMCwtLjA2LDAsODQyKSIvPiYjeGE7PHBhdGggZD0iTS0zMjkuOTMyNjkgNDEuMjM5MzVDLTMzMS42NDI1OSAyNy41NTk0MS0zMzIuNSAxMy43ODYzOC0zMzIuNSAwIiBzdHJva2U9IiMwMDAwMDAiIGZpbGw9Im5vbmUiIHN0cm9rZS1saW5lam9pbj0icm91bmQiIHN0cm9rZS1saW5lY2FwPSJyb3VuZCIgc3Ryb2tlLXdpZHRoPSIxMiIgdHJhbnNmb3JtPSJtYXRyaXgoLS4wMjM4NjY3OTksLjA1NTA0ODc5OSwuMDU1MDQ4Nzk5LC4wMjM4NjY3OTksNDI0LjcxLDIwNy40NzAwMykiLz4mI3hhOzxwYXRoIGQ9Ik03MzI4IDEwNzk2IDczMzEgMTA3OTggNzMzNCAxMDgwMCA3MzM3IDEwODAyIDczNDAgMTA4MDQgNzM0MyAxMDgwNiA3MzQ2IDEwODA5IDczNDkgMTA4MTEgNzM1MiAxMDgxMyIgc3Ryb2tlPSIjMDAwMDAwIiBmaWxsPSJub25lIiBzdHJva2UtbGluZWpvaW49InJvdW5kIiBzdHJva2UtbGluZWNhcD0icm91bmQiIHN0cm9rZS13aWR0aD0iMTIiIHRyYW5zZm9ybT0ibWF0cml4KC4wNiwwLDAsLS4wNiwwLDg0MikiLz4mI3hhOzxwYXRoIGQ9Ik03MzE2IDEwODQ5IDczMTQgMTA4NDYgNzMxMiAxMDg0MyA3MzA5IDEwODQwIDczMDcgMTA4MzcgNzMwNSAxMDgzNCA3MzAzIDEwODMxIDczMDEgMTA4MjggNzI5OSAxMDgyNSIgc3Ryb2tlPSIjMDAwMDAwIiBmaWxsPSJub25lIiBzdHJva2UtbGluZWpvaW49InJvdW5kIiBzdHJva2UtbGluZWNhcD0icm91bmQiIHN0cm9rZS13aWR0aD0iMTIiIHRyYW5zZm9ybT0ibWF0cml4KC4wNiwwLDAsLS4wNiwwLDg0MikiLz4mI3hhOzxwYXRoIGQ9Ik0tMzI5LjkzMjY5IDQxLjIzOTM1Qy0zMzEuNjQyNTkgMjcuNTU5NDEtMzMyLjUgMTMuNzg2MzgtMzMyLjUgMCIgc3Ryb2tlPSIjMDAwMDAwIiBmaWxsPSJub25lIiBzdHJva2UtbGluZWpvaW49InJvdW5kIiBzdHJva2UtbGluZWNhcD0icm91bmQiIHN0cm9rZS13aWR0aD0iMTIiIHRyYW5zZm9ybT0ibWF0cml4KC0uMDM5NzEwNCwuMDQ0OTc4NCwuMDQ0OTc4NCwuMDM5NzEwNCw0MjQuNzEsMjA3LjQ3MDAzKSIvPiYjeGE7PHBhdGggZD0iTTczODQgMTA3MDggNzM4NyAxMDcwOSA3MzkwIDEwNzEwIDczOTQgMTA3MTEgNzM5OCAxMDcxMiA3NDAxIDEwNzEzIDc0MDUgMTA3MTUgNzQwOCAxMDcxNiA3NDEyIDEwNzE3IiBzdHJva2U9IiMwMDAwMDAiIGZpbGw9Im5vbmUiIHN0cm9rZS1saW5lam9pbj0icm91bmQiIHN0cm9rZS1saW5lY2FwPSJyb3VuZCIgc3Ryb2tlLXdpZHRoPSIxMiIgdHJhbnNmb3JtPSJtYXRyaXgoLjA2LDAsMCwtLjA2LDAsODQyKSIvPiYjeGE7PHBhdGggZD0iTTczODkgMTA3NjIgNzM4NiAxMDc2MCA3MzgzIDEwNzU4IDczODAgMTA3NTUgNzM3NyAxMDc1MyA3Mzc0IDEwNzUxIDczNzEgMTA3NDkgNzM2OCAxMDc0NyA3MzY1IDEwNzQ1IiBzdHJva2U9IiMwMDAwMDAiIGZpbGw9Im5vbmUiIHN0cm9rZS1saW5lam9pbj0icm91bmQiIHN0cm9rZS1saW5lY2FwPSJyb3VuZCIgc3Ryb2tlLXdpZHRoPSIxMiIgdHJhbnNmb3JtPSJtYXRyaXgoLjA2LDAsMCwtLjA2LDAsODQyKSIvPiYjeGE7PHBhdGggZD0iTS0zMjkuOTMyNjkgNDEuMjM5MzVDLTMzMS42NDI1OSAyNy41NTk0MS0zMzIuNSAxMy43ODYzOC0zMzIuNSAwIiBzdHJva2U9IiMwMDAwMDAiIGZpbGw9Im5vbmUiIHN0cm9rZS1saW5lam9pbj0icm91bmQiIHN0cm9rZS1saW5lY2FwPSJyb3VuZCIgc3Ryb2tlLXdpZHRoPSIxMiIgdHJhbnNmb3JtPSJtYXRyaXgoLS4wNTE2NjY2LC4wMzA1MDUxOTksLjAzMDUwNTE5OSwuMDUxNjY2Niw0MjQuNzEsMjA3LjQ3MDAzKSIvPiYjeGE7PHBhdGggZD0iTTc0MDkgMTA2MDdINzQxMyA3NDE3IDc0MjAgNzQyNCA3NDI4IDc0MzIgNzQzNiA3NDQwIiBzdHJva2U9IiMwMDAwMDAiIGZpbGw9Im5vbmUiIHN0cm9rZS1saW5lam9pbj0icm91bmQiIHN0cm9rZS1saW5lY2FwPSJyb3VuZCIgc3Ryb2tlLXdpZHRoPSIxMiIgdHJhbnNmb3JtPSJtYXRyaXgoLjA2LDAsMCwtLjA2LDAsODQyKSIvPiYjeGE7PHBhdGggZD0iTTc0MzIgMTA2NTcgNzQyOCAxMDY1NiA3NDI0IDEwNjU1IDc0MjEgMTA2NTQgNzQxNyAxMDY1MiA3NDEzIDEwNjUxIDc0MTAgMTA2NTAgNzQwNiAxMDY0OSA3NDAzIDEwNjQ4IiBzdHJva2U9IiMwMDAwMDAiIGZpbGw9Im5vbmUiIHN0cm9rZS1saW5lam9pbj0icm91bmQiIHN0cm9rZS1saW5lY2FwPSJyb3VuZCIgc3Ryb2tlLXdpZHRoPSIxMiIgdHJhbnNmb3JtPSJtYXRyaXgoLjA2LDAsMCwtLjA2LDAsODQyKSIvPiYjeGE7PHBhdGggZD0iTS0zMjkuOTMyNjkgNDEuMjM5MzVDLTMzMS42NDI1OSAyNy41NTk0MS0zMzIuNSAxMy43ODYzOC0zMzIuNSAwIiBzdHJva2U9IiMwMDAwMDAiIGZpbGw9Im5vbmUiIHN0cm9rZS1saW5lam9pbj0icm91bmQiIHN0cm9rZS1saW5lY2FwPSJyb3VuZCIgc3Ryb2tlLXdpZHRoPSIxMiIgdHJhbnNmb3JtPSJtYXRyaXgoLS4wNTg1NjM1OTksLjAxMzA1MDYsLjAxMzA1MDYsLjA1ODU2MzU5OSw0MjQuNzEsMjA3LjQ3MDAzKSIvPiYjeGE7PHBhdGggZD0iTTc0MDMgMTA1MDMgNzQwNiAxMDUwMiA3NDEwIDEwNTAxIDc0MTMgMTA1MDAgNzQxNyAxMDQ5OSA3NDIxIDEwNDk3IDc0MjQgMTA0OTYgNzQyOCAxMDQ5NSA3NDMyIDEwNDk0IiBzdHJva2U9IiMwMDAwMDAiIGZpbGw9Im5vbmUiIHN0cm9rZS1saW5lam9pbj0icm91bmQiIHN0cm9rZS1saW5lY2FwPSJyb3VuZCIgc3Ryb2tlLXdpZHRoPSIxMiIgdHJhbnNmb3JtPSJtYXRyaXgoLjA2LDAsMCwtLjA2LDAsODQyKSIvPiYjeGE7PHBhdGggZD0iTTc0NDAgMTA1NDRINzQzNiA3NDMyIDc0MjggNzQyNCA3NDIwIDc0MTcgNzQxMyA3NDA5IiBzdHJva2U9IiMwMDAwMDAiIGZpbGw9Im5vbmUiIHN0cm9rZS1saW5lam9pbj0icm91bmQiIHN0cm9rZS1saW5lY2FwPSJyb3VuZCIgc3Ryb2tlLXdpZHRoPSIxMiIgdHJhbnNmb3JtPSJtYXRyaXgoLjA2LDAsMCwtLjA2LDAsODQyKSIvPiYjeGE7PHBhdGggZD0iTS0zMjkuOTMyNjkgNDEuMjM5MzVDLTMzMS42NDI1OSAyNy41NTk0MS0zMzIuNSAxMy43ODYzOC0zMzIuNSAwIiBzdHJva2U9IiMwMDAwMDAiIGZpbGw9Im5vbmUiIHN0cm9rZS1saW5lam9pbj0icm91bmQiIHN0cm9rZS1saW5lY2FwPSJyb3VuZCIgc3Ryb2tlLXdpZHRoPSIxMiIgdHJhbnNmb3JtPSJtYXRyaXgoLS4wNTk3MywtLjAwNTY4NjE5OTksLS4wMDU2ODYxOTk5LC4wNTk3Myw0MjQuNzEsMjA3LjQ3MDAzKSIvPiYjeGE7PHBhdGggZD0iTTczNjUgMTA0MDYgNzM2OCAxMDQwNCA3MzcxIDEwNDAyIDczNzQgMTA0MDAgNzM3NyAxMDM5OCA3MzgwIDEwMzk2IDczODMgMTAzOTMgNzM4NiAxMDM5MSA3Mzg5IDEwMzg5IiBzdHJva2U9IiMwMDAwMDAiIGZpbGw9Im5vbmUiIHN0cm9rZS1saW5lam9pbj0icm91bmQiIHN0cm9rZS1saW5lY2FwPSJyb3VuZCIgc3Ryb2tlLXdpZHRoPSIxMiIgdHJhbnNmb3JtPSJtYXRyaXgoLjA2LDAsMCwtLjA2LDAsODQyKSIvPiYjeGE7PHBhdGggZD0iTTc0MTIgMTA0MzQgNzQwOCAxMDQzNSA3NDA1IDEwNDM2IDc0MDEgMTA0MzggNzM5OCAxMDQzOSA3Mzk0IDEwNDQwIDczOTAgMTA0NDEgNzM4NyAxMDQ0MiA3Mzg0IDEwNDQzIiBzdHJva2U9IiMwMDAwMDAiIGZpbGw9Im5vbmUiIHN0cm9rZS1saW5lam9pbj0icm91bmQiIHN0cm9rZS1saW5lY2FwPSJyb3VuZCIgc3Ryb2tlLXdpZHRoPSIxMiIgdHJhbnNmb3JtPSJtYXRyaXgoLjA2LDAsMCwtLjA2LDAsODQyKSIvPiYjeGE7PHBhdGggZD0iTS0zMjkuOTMyNjkgNDEuMjM5MzVDLTMzMS42NDI1OSAyNy41NTk0MS0zMzIuNSAxMy43ODYzOC0zMzIuNSAwIiBzdHJva2U9IiMwMDAwMDAiIGZpbGw9Im5vbmUiIHN0cm9rZS1saW5lam9pbj0icm91bmQiIHN0cm9rZS1saW5lY2FwPSJyb3VuZCIgc3Ryb2tlLXdpZHRoPSIxMiIgdHJhbnNmb3JtPSJtYXRyaXgoLS4wNTUwNDg3OTksLS4wMjM4NjY3OTksLS4wMjM4NjY3OTksLjA1NTA0ODc5OSw0MjQuNzEsMjA3LjQ3MDAzKSIvPiYjeGE7PHBhdGggZD0iTTcyOTkgMTAzMjYgNzMwMSAxMDMyMyA3MzAzIDEwMzIwIDczMDUgMTAzMTcgNzMwNyAxMDMxNCA3MzA5IDEwMzExIDczMTIgMTAzMDggNzMxNCAxMDMwNSA3MzE2IDEwMzAyIiBzdHJva2U9IiMwMDAwMDAiIGZpbGw9Im5vbmUiIHN0cm9rZS1saW5lam9pbj0icm91bmQiIHN0cm9rZS1saW5lY2FwPSJyb3VuZCIgc3Ryb2tlLXdpZHRoPSIxMiIgdHJhbnNmb3JtPSJtYXRyaXgoLjA2LDAsMCwtLjA2LDAsODQyKSIvPiYjeGE7PHBhdGggZD0iTTczNTIgMTAzMzggNzM0OSAxMDM0MCA3MzQ2IDEwMzQyIDczNDMgMTAzNDUgNzM0MCAxMDM0NyA3MzM3IDEwMzQ5IDczMzQgMTAzNTEgNzMzMSAxMDM1MyA3MzI4IDEwMzU1IiBzdHJva2U9IiMwMDAwMDAiIGZpbGw9Im5vbmUiIHN0cm9rZS1saW5lam9pbj0icm91bmQiIHN0cm9rZS1saW5lY2FwPSJyb3VuZCIgc3Ryb2tlLXdpZHRoPSIxMiIgdHJhbnNmb3JtPSJtYXRyaXgoLjA2LDAsMCwtLjA2LDAsODQyKSIvPiYjeGE7PHBhdGggZD0iTS0zMjkuOTMyNjkgNDEuMjM5MzVDLTMzMS42NDI1OSAyNy41NTk0MS0zMzIuNSAxMy43ODYzOC0zMzIuNSAwIiBzdHJva2U9IiMwMDAwMDAiIGZpbGw9Im5vbmUiIHN0cm9rZS1saW5lam9pbj0icm91bmQiIHN0cm9rZS1saW5lY2FwPSJyb3VuZCIgc3Ryb2tlLXdpZHRoPSIxMiIgdHJhbnNmb3JtPSJtYXRyaXgoLS4wNDQ5Nzg0LC0uMDM5NzEwNCwtLjAzOTcxMDQsLjA0NDk3ODQsNDI0LjcxLDIwNy40NzAwMykiLz4mI3hhOzxwYXRoIGQ9Ik03MjExIDEwMjcwIDcyMTIgMTAyNjcgNzIxMyAxMDI2NCA3MjE0IDEwMjYwIDcyMTUgMTAyNTYgNzIxNiAxMDI1MyA3MjE4IDEwMjQ5IDcyMTkgMTAyNDYgNzIyMCAxMDI0MiIgc3Ryb2tlPSIjMDAwMDAwIiBmaWxsPSJub25lIiBzdHJva2UtbGluZWpvaW49InJvdW5kIiBzdHJva2UtbGluZWNhcD0icm91bmQiIHN0cm9rZS13aWR0aD0iMTIiIHRyYW5zZm9ybT0ibWF0cml4KC4wNiwwLDAsLS4wNiwwLDg0MikiLz4mI3hhOzxwYXRoIGQ9Ik03MjY1IDEwMjY1IDcyNjMgMTAyNjggNzI2MSAxMDI3MSA3MjU4IDEwMjc0IDcyNTYgMTAyNzcgNzI1NCAxMDI4MCA3MjUyIDEwMjgzIDcyNTAgMTAyODYgNzI0OCAxMDI4OSIgc3Ryb2tlPSIjMDAwMDAwIiBmaWxsPSJub25lIiBzdHJva2UtbGluZWpvaW49InJvdW5kIiBzdHJva2UtbGluZWNhcD0icm91bmQiIHN0cm9rZS13aWR0aD0iMTIiIHRyYW5zZm9ybT0ibWF0cml4KC4wNiwwLDAsLS4wNiwwLDg0MikiLz4mI3hhOzxwYXRoIGQ9Ik0tMzI5LjkzMjY5IDQxLjIzOTM1Qy0zMzEuNjQyNTkgMjcuNTU5NDEtMzMyLjUgMTMuNzg2MzgtMzMyLjUgMCIgc3Ryb2tlPSIjMDAwMDAwIiBmaWxsPSJub25lIiBzdHJva2UtbGluZWpvaW49InJvdW5kIiBzdHJva2UtbGluZWNhcD0icm91bmQiIHN0cm9rZS13aWR0aD0iMTIiIHRyYW5zZm9ybT0ibWF0cml4KC0uMDMwNTA1MTk5LC0uMDUxNjY2NiwtLjA1MTY2NjYsLjAzMDUwNTE5OSw0MjQuNzEsMjA3LjQ3MDAzKSIvPiYjeGE7PHBhdGggZD0iTTY3NzMgMTA0NDMgNjc3MCAxMDQ0MiA2NzY3IDEwNDQxIDY3NjMgMTA0NDAgNjc1OSAxMDQzOSA2NzU2IDEwNDM4IDY3NTIgMTA0MzYgNjc0OSAxMDQzNSA2NzQ1IDEwNDM0IiBzdHJva2U9IiMwMDAwMDAiIGZpbGw9Im5vbmUiIHN0cm9rZS1saW5lam9pbj0icm91bmQiIHN0cm9rZS1saW5lY2FwPSJyb3VuZCIgc3Ryb2tlLXdpZHRoPSIxMiIgdHJhbnNmb3JtPSJtYXRyaXgoLjA2LDAsMCwtLjA2LDAsODQyKSIvPiYjeGE7PHBhdGggZD0iTTY3NjggMTAzODkgNjc3MSAxMDM5MSA2Nzc0IDEwMzkzIDY3NzcgMTAzOTYgNjc4MCAxMDM5OCA2NzgzIDEwNDAwIDY3ODYgMTA0MDIgNjc4OSAxMDQwNCA2NzkyIDEwNDA2IiBzdHJva2U9IiMwMDAwMDAiIGZpbGw9Im5vbmUiIHN0cm9rZS1saW5lam9pbj0icm91bmQiIHN0cm9rZS1saW5lY2FwPSJyb3VuZCIgc3Ryb2tlLXdpZHRoPSIxMiIgdHJhbnNmb3JtPSJtYXRyaXgoLjA2LDAsMCwtLjA2LDAsODQyKSIvPiYjeGE7PHBhdGggZD0iTS0zMjkuOTMyNjkgNDEuMjM5MzVDLTMzMS42NDI1OSAyNy41NTk0MS0zMzIuNSAxMy43ODYzOC0zMzIuNSAwIiBzdHJva2U9IiMwMDAwMDAiIGZpbGw9Im5vbmUiIHN0cm9rZS1saW5lam9pbj0icm91bmQiIHN0cm9rZS1saW5lY2FwPSJyb3VuZCIgc3Ryb2tlLXdpZHRoPSIxMiIgdHJhbnNmb3JtPSJtYXRyaXgoLjA1MTY2NjYsLS4wMzA1MDUxOTksLS4wMzA1MDUxOTksLS4wNTE2NjY2LDQyNC43MSwyMDcuNDcwMDMpIi8+JiN4YTs8cGF0aCBkPSJNNjgyOSAxMDM1NSA2ODI2IDEwMzUzIDY4MjMgMTAzNTEgNjgyMCAxMDM0OSA2ODE3IDEwMzQ3IDY4MTQgMTAzNDUgNjgxMSAxMDM0MiA2ODA4IDEwMzQwIDY4MDUgMTAzMzgiIHN0cm9rZT0iIzAwMDAwMCIgZmlsbD0ibm9uZSIgc3Ryb2tlLWxpbmVqb2luPSJyb3VuZCIgc3Ryb2tlLWxpbmVjYXA9InJvdW5kIiBzdHJva2Utd2lkdGg9IjEyIiB0cmFuc2Zvcm09Im1hdHJpeCguMDYsMCwwLC0uMDYsMCw4NDIpIi8+JiN4YTs8cGF0aCBkPSJNNjg0MSAxMDMwMiA2ODQzIDEwMzA1IDY4NDUgMTAzMDggNjg0OCAxMDMxMSA2ODUwIDEwMzE0IDY4NTIgMTAzMTcgNjg1NCAxMDMyMCA2ODU2IDEwMzIzIDY4NTggMTAzMjYiIHN0cm9rZT0iIzAwMDAwMCIgZmlsbD0ibm9uZSIgc3Ryb2tlLWxpbmVqb2luPSJyb3VuZCIgc3Ryb2tlLWxpbmVjYXA9InJvdW5kIiBzdHJva2Utd2lkdGg9IjEyIiB0cmFuc2Zvcm09Im1hdHJpeCguMDYsMCwwLC0uMDYsMCw4NDIpIi8+JiN4YTs8cGF0aCBkPSJNLTMyOS45MzI2OSA0MS4yMzkzNUMtMzMxLjY0MjU5IDI3LjU1OTQxLTMzMi41IDEzLjc4NjM4LTMzMi41IDAiIHN0cm9rZT0iIzAwMDAwMCIgZmlsbD0ibm9uZSIgc3Ryb2tlLWxpbmVqb2luPSJyb3VuZCIgc3Ryb2tlLWxpbmVjYXA9InJvdW5kIiBzdHJva2Utd2lkdGg9IjEyIiB0cmFuc2Zvcm09Im1hdHJpeCguMDM5NzEwNCwtLjA0NDk3ODQsLS4wNDQ5Nzg0LC0uMDM5NzEwNCw0MjQuNzEsMjA3LjQ3MDAzKSIvPiYjeGE7PHBhdGggZD0iTTY5MDkgMTAyODkgNjkwNyAxMDI4NiA2OTA1IDEwMjgzIDY5MDMgMTAyODAgNjkwMSAxMDI3NyA2ODk5IDEwMjc0IDY4OTYgMTAyNzEgNjg5NCAxMDI2OCA2ODkyIDEwMjY1IiBzdHJva2U9IiMwMDAwMDAiIGZpbGw9Im5vbmUiIHN0cm9rZS1saW5lam9pbj0icm91bmQiIHN0cm9rZS1saW5lY2FwPSJyb3VuZCIgc3Ryb2tlLXdpZHRoPSIxMiIgdHJhbnNmb3JtPSJtYXRyaXgoLjA2LDAsMCwtLjA2LDAsODQyKSIvPiYjeGE7PHBhdGggZD0iTTY5MzcgMTAyNDIgNjkzOCAxMDI0NiA2OTM5IDEwMjQ5IDY5NDEgMTAyNTMgNjk0MiAxMDI1NiA2OTQzIDEwMjYwIDY5NDQgMTAyNjQgNjk0NSAxMDI2NyA2OTQ2IDEwMjcwIiBzdHJva2U9IiMwMDAwMDAiIGZpbGw9Im5vbmUiIHN0cm9rZS1saW5lam9pbj0icm91bmQiIHN0cm9rZS1saW5lY2FwPSJyb3VuZCIgc3Ryb2tlLXdpZHRoPSIxMiIgdHJhbnNmb3JtPSJtYXRyaXgoLjA2LDAsMCwtLjA2LDAsODQyKSIvPiYjeGE7PHBhdGggZD0iTS0zMjkuOTMyNjkgNDEuMjM5MzVDLTMzMS42NDI1OSAyNy41NTk0MS0zMzIuNSAxMy43ODYzOC0zMzIuNSAwIiBzdHJva2U9IiMwMDAwMDAiIGZpbGw9Im5vbmUiIHN0cm9rZS1saW5lam9pbj0icm91bmQiIHN0cm9rZS1saW5lY2FwPSJyb3VuZCIgc3Ryb2tlLXdpZHRoPSIxMiIgdHJhbnNmb3JtPSJtYXRyaXgoLjAyMzg2Njc5OSwtLjA1NTA0ODc5OSwtLjA1NTA0ODc5OSwtLjAyMzg2Njc5OSw0MjQuNzEsMjA3LjQ3MDAzKSIvPiYjeGE7PHBhdGggZD0iTTcwMDYgMTAyNTEgNzAwNSAxMDI0OCA3MDA0IDEwMjQ0IDcwMDMgMTAyNDEgNzAwMiAxMDIzNyA3MDAwIDEwMjMzIDY5OTkgMTAyMzAgNjk5OCAxMDIyNiA2OTk3IDEwMjIyIiBzdHJva2U9IiMwMDAwMDAiIGZpbGw9Im5vbmUiIHN0cm9rZS1saW5lam9pbj0icm91bmQiIHN0cm9rZS1saW5lY2FwPSJyb3VuZCIgc3Ryb2tlLXdpZHRoPSIxMiIgdHJhbnNmb3JtPSJtYXRyaXgoLjA2LDAsMCwtLjA2LDAsODQyKSIvPiYjeGE7PHBhdGggZD0iTTcwNDcgMTAyMTRWMTAyMTggMTAyMjIgMTAyMjYgMTAyMzAgMTAyMzQgMTAyMzcgMTAyNDEgMTAyNDUiIHN0cm9rZT0iIzAwMDAwMCIgZmlsbD0ibm9uZSIgc3Ryb2tlLWxpbmVqb2luPSJyb3VuZCIgc3Ryb2tlLWxpbmVjYXA9InJvdW5kIiBzdHJva2Utd2lkdGg9IjEyIiB0cmFuc2Zvcm09Im1hdHJpeCguMDYsMCwwLC0uMDYsMCw4NDIpIi8+JiN4YTs8cGF0aCBkPSJNLTMyOS45MzI2OSA0MS4yMzkzNUMtMzMxLjY0MjU5IDI3LjU1OTQxLTMzMi41IDEzLjc4NjM4LTMzMi41IDAiIHN0cm9rZT0iIzAwMDAwMCIgZmlsbD0ibm9uZSIgc3Ryb2tlLWxpbmVqb2luPSJyb3VuZCIgc3Ryb2tlLWxpbmVjYXA9InJvdW5kIiBzdHJva2Utd2lkdGg9IjEyIiB0cmFuc2Zvcm09Im1hdHJpeCguMDA1Njg2MTk5OSwtLjA1OTczLC0uMDU5NzMsLS4wMDU2ODYxOTk5LDQyNC43MSwyMDcuNDcwMDMpIi8+JiN4YTs8cGF0aCBkPSJNNzExMCAxMDI0NVYxMDI0MSAxMDIzNyAxMDIzNCAxMDIzMCAxMDIyNiAxMDIyMiAxMDIxOCAxMDIxNCIgc3Ryb2tlPSIjMDAwMDAwIiBmaWxsPSJub25lIiBzdHJva2UtbGluZWpvaW49InJvdW5kIiBzdHJva2UtbGluZWNhcD0icm91bmQiIHN0cm9rZS13aWR0aD0iMTIiIHRyYW5zZm9ybT0ibWF0cml4KC4wNiwwLDAsLS4wNiwwLDg0MikiLz4mI3hhOzxwYXRoIGQ9Ik03MTYwIDEwMjIyIDcxNTkgMTAyMjYgNzE1OCAxMDIzMCA3MTU3IDEwMjMzIDcxNTUgMTAyMzcgNzE1NCAxMDI0MSA3MTUzIDEwMjQ0IDcxNTIgMTAyNDggNzE1MSAxMDI1MSIgc3Ryb2tlPSIjMDAwMDAwIiBmaWxsPSJub25lIiBzdHJva2UtbGluZWpvaW49InJvdW5kIiBzdHJva2UtbGluZWNhcD0icm91bmQiIHN0cm9rZS13aWR0aD0iMTIiIHRyYW5zZm9ybT0ibWF0cml4KC4wNiwwLDAsLS4wNiwwLDg0MikiLz4mI3hhOzxwYXRoIGQ9Ik0tMzI5LjkzMjY5IDQxLjIzOTM1Qy0zMzEuNjQyNTkgMjcuNTU5NDEtMzMyLjUgMTMuNzg2MzgtMzMyLjUgMCIgc3Ryb2tlPSIjMDAwMDAwIiBmaWxsPSJub25lIiBzdHJva2UtbGluZWpvaW49InJvdW5kIiBzdHJva2UtbGluZWNhcD0icm91bmQiIHN0cm9rZS13aWR0aD0iMTIiIHRyYW5zZm9ybT0ibWF0cml4KC0uMDEzMDUwNiwtLjA1ODU2MzU5OSwtLjA1ODU2MzU5OSwuMDEzMDUwNiw0MjQuNzEsMjA3LjQ3MDAzKSIvPiYjeGE7PHBhdGggZD0iTTc1NjUgMTAxODIuNUM3NTY1IDEwMDczLjk3NiA3NjUyLjk3NiA5OTg2IDc3NjEuNSA5OTg2IDc4NzAuMDI0IDk5ODYgNzk1OCAxMDA3My45NzYgNzk1OCAxMDE4Mi41IDc5NTggMTAyOTEuMDI0IDc4NzAuMDI0IDEwMzc5IDc3NjEuNSAxMDM3OSA3NjUyLjk3NiAxMDM3OSA3NTY1IDEwMjkxLjAyNCA3NTY1IDEwMTgyLjUiIHN0cm9rZT0iIzAwMDAwMCIgZmlsbD0ibm9uZSIgc3Ryb2tlLWxpbmVqb2luPSJyb3VuZCIgc3Ryb2tlLWxpbmVjYXA9InJvdW5kIiBzdHJva2Utd2lkdGg9IjEyIiB0cmFuc2Zvcm09Im1hdHJpeCguMDYsMCwwLC0uMDYsMCw4NDIpIi8+JiN4YTs8cGF0aCBkPSJNNzk3NCAxMDE4Mi41Qzc5NzQgMTAyOTkuODYgNzg3OC44NjA1IDEwMzk1IDc3NjEuNSAxMDM5NSA3NjQ0LjEzOTggMTAzOTUgNzU0OSAxMDI5OS44NiA3NTQ5IDEwMTgyLjUgNzU0OSAxMDA2NS4xNCA3NjQ0LjEzOTggOTk3MCA3NzYxLjUgOTk3MCA3ODc4Ljg2MDUgOTk3MCA3OTc0IDEwMDY1LjE0IDc5NzQgMTAxODIuNSIgc3Ryb2tlPSIjMDAwMDAwIiBmaWxsPSJub25lIiBzdHJva2UtbGluZWpvaW49InJvdW5kIiBzdHJva2UtbGluZWNhcD0icm91bmQiIHN0cm9rZS13aWR0aD0iMTIiIHRyYW5zZm9ybT0ibWF0cml4KC4wNiwwLDAsLS4wNiwwLDg0MikiLz4mI3hhOzxwYXRoIGQ9Ik03OTc0IDEwOTY5LjVDNzk3NCAxMTA4Ni44NiA3ODc4Ljg2MDUgMTExODIgNzc2MS41IDExMTgyIDc2NDQuMTM5OCAxMTE4MiA3NTQ5IDExMDg2Ljg2IDc1NDkgMTA5NjkuNSA3NTQ5IDEwODUyLjE0IDc2NDQuMTM5OCAxMDc1NyA3NzYxLjUgMTA3NTcgNzg3OC44NjA1IDEwNzU3IDc5NzQgMTA4NTIuMTQgNzk3NCAxMDk2OS41IiBzdHJva2U9IiMwMDAwMDAiIGZpbGw9Im5vbmUiIHN0cm9rZS1saW5lam9pbj0icm91bmQiIHN0cm9rZS1saW5lY2FwPSJyb3VuZCIgc3Ryb2tlLXdpZHRoPSIxMiIgdHJhbnNmb3JtPSJtYXRyaXgoLjA2LDAsMCwtLjA2LDAsODQyKSIvPiYjeGE7PHBhdGggZD0iTTY2MDkgMTA5NjkuNUM2NjA5IDExMDg2Ljg2IDY1MTMuODYwNSAxMTE4MiA2Mzk2LjUgMTExODIgNjI3OS4xMzk4IDExMTgyIDYxODQgMTEwODYuODYgNjE4NCAxMDk2OS41IDYxODQgMTA4NTIuMTQgNjI3OS4xMzk4IDEwNzU3IDYzOTYuNSAxMDc1NyA2NTEzLjg2MDUgMTA3NTcgNjYwOSAxMDg1Mi4xNCA2NjA5IDEwOTY5LjUiIHN0cm9rZT0iIzAwMDAwMCIgZmlsbD0ibm9uZSIgc3Ryb2tlLWxpbmVqb2luPSJyb3VuZCIgc3Ryb2tlLWxpbmVjYXA9InJvdW5kIiBzdHJva2Utd2lkdGg9IjEyIiB0cmFuc2Zvcm09Im1hdHJpeCguMDYsMCwwLC0uMDYsMCw4NDIpIi8+JiN4YTs8cGF0aCBkPSJNNzI5MSA5Nzg4LjVDNzI5MSA5OTA1Ljg2IDcxOTUuODYwNSAxMDAwMSA3MDc4LjUgMTAwMDEgNjk2MS4xMzk4IDEwMDAxIDY4NjYgOTkwNS44NiA2ODY2IDk3ODguNSA2ODY2IDk2NzEuMTQgNjk2MS4xMzk4IDk1NzYgNzA3OC41IDk1NzYgNzE5NS44NjA1IDk1NzYgNzI5MSA5NjcxLjE0IDcyOTEgOTc4OC41IiBzdHJva2U9IiMwMDAwMDAiIGZpbGw9Im5vbmUiIHN0cm9rZS1saW5lam9pbj0icm91bmQiIHN0cm9rZS1saW5lY2FwPSJyb3VuZCIgc3Ryb2tlLXdpZHRoPSIxMiIgdHJhbnNmb3JtPSJtYXRyaXgoLjA2LDAsMCwtLjA2LDAsODQyKSIvPiYjeGE7PHBhdGggZD0iTTU3MTEgMTA1NzUuNUM1NzExIDk4MjAuMjUxIDYzMjMuMjUwNyA5MjA4IDcwNzguNSA5MjA4IDc4MzMuNzQ5NyA5MjA4IDg0NDYgOTgyMC4yNTEgODQ0NiAxMDU3NS41IDg0NDYgMTEzMzAuNzQ5IDc4MzMuNzQ5NyAxMTk0MyA3MDc4LjUgMTE5NDMgNjMyMy4yNTA3IDExOTQzIDU3MTEgMTEzMzAuNzQ5IDU3MTEgMTA1NzUuNSIgc3Ryb2tlPSIjMDAwMDAwIiBmaWxsPSJub25lIiBzdHJva2UtbGluZWpvaW49InJvdW5kIiBzdHJva2UtbGluZWNhcD0icm91bmQiIHN0cm9rZS13aWR0aD0iMTIiIHRyYW5zZm9ybT0ibWF0cml4KC4wNiwwLDAsLS4wNiwwLDg0MikiLz4mI3hhOzxwYXRoIGQ9Ik02NjA5IDEwMTgyLjVDNjYwOSAxMDI5OS44NiA2NTEzLjg2MDUgMTAzOTUgNjM5Ni41IDEwMzk1IDYyNzkuMTM5OCAxMDM5NSA2MTg0IDEwMjk5Ljg2IDYxODQgMTAxODIuNSA2MTg0IDEwMDY1LjE0IDYyNzkuMTM5OCA5OTcwIDYzOTYuNSA5OTcwIDY1MTMuODYwNSA5OTcwIDY2MDkgMTAwNjUuMTQgNjYwOSAxMDE4Mi41IiBzdHJva2U9IiMwMDAwMDAiIGZpbGw9Im5vbmUiIHN0cm9rZS1saW5lam9pbj0icm91bmQiIHN0cm9rZS1saW5lY2FwPSJyb3VuZCIgc3Ryb2tlLXdpZHRoPSIxMiIgdHJhbnNmb3JtPSJtYXRyaXgoLjA2LDAsMCwtLjA2LDAsODQyKSIvPiYjeGE7PHBhdGggZD0iTTcyOTEgMTEzNjMuNUM3MjkxIDExNDgwLjg2IDcxOTUuODYwNSAxMTU3NiA3MDc4LjUgMTE1NzYgNjk2MS4xMzk4IDExNTc2IDY4NjYgMTE0ODAuODYgNjg2NiAxMTM2My41IDY4NjYgMTEyNDYuMTQgNjk2MS4xMzk4IDExMTUxIDcwNzguNSAxMTE1MSA3MTk1Ljg2MDUgMTExNTEgNzI5MSAxMTI0Ni4xNCA3MjkxIDExMzYzLjUiIHN0cm9rZT0iIzAwMDAwMCIgZmlsbD0ibm9uZSIgc3Ryb2tlLWxpbmVqb2luPSJyb3VuZCIgc3Ryb2tlLWxpbmVjYXA9InJvdW5kIiBzdHJva2Utd2lkdGg9IjEyIiB0cmFuc2Zvcm09Im1hdHJpeCguMDYsMCwwLC0uMDYsMCw4NDIpIi8+JiN4YTs8cGF0aCBkPSJNNzQwOSAxMDU3NS41Qzc0MDkgMTA3NTguMDMgNzI2MS4wMzA1IDEwOTA2IDcwNzguNSAxMDkwNiA2ODk1Ljk2OTkgMTA5MDYgNjc0OCAxMDc1OC4wMyA2NzQ4IDEwNTc1LjUgNjc0OCAxMDM5Mi45NyA2ODk1Ljk2OTkgMTAyNDUgNzA3OC41IDEwMjQ1IDcyNjEuMDMwNSAxMDI0NSA3NDA5IDEwMzkyLjk3IDc0MDkgMTA1NzUuNSIgc3Ryb2tlPSIjMDAwMDAwIiBmaWxsPSJub25lIiBzdHJva2UtbGluZWpvaW49InJvdW5kIiBzdHJva2UtbGluZWNhcD0icm91bmQiIHN0cm9rZS13aWR0aD0iMTIiIHRyYW5zZm9ybT0ibWF0cml4KC4wNiwwLDAsLS4wNiwwLDg0MikiLz4mI3hhOzxwYXRoIGQ9Ik03NTY1IDEwOTY5LjVDNzU2NSAxMDg2MC45NzYgNzY1Mi45NzYgMTA3NzMgNzc2MS41IDEwNzczIDc4NzAuMDI0IDEwNzczIDc5NTggMTA4NjAuOTc2IDc5NTggMTA5NjkuNSA3OTU4IDExMDc4LjAyNCA3ODcwLjAyNCAxMTE2NiA3NzYxLjUgMTExNjYgNzY1Mi45NzYgMTExNjYgNzU2NSAxMTA3OC4wMjQgNzU2NSAxMDk2OS41IiBzdHJva2U9IiMwMDAwMDAiIGZpbGw9Im5vbmUiIHN0cm9rZS1saW5lam9pbj0icm91bmQiIHN0cm9rZS1saW5lY2FwPSJyb3VuZCIgc3Ryb2tlLXdpZHRoPSIxMiIgdHJhbnNmb3JtPSJtYXRyaXgoLjA2LDAsMCwtLjA2LDAsODQyKSIvPiYjeGE7PHBhdGggZD0iTTY4ODIgMTEzNjMuNUM2ODgyIDExMjU0Ljk3NiA2OTY5Ljk3NiAxMTE2NyA3MDc4LjUgMTExNjcgNzE4Ny4wMjQgMTExNjcgNzI3NSAxMTI1NC45NzYgNzI3NSAxMTM2My41IDcyNzUgMTE0NzIuMDI0IDcxODcuMDI0IDExNTYwIDcwNzguNSAxMTU2MCA2OTY5Ljk3NiAxMTU2MCA2ODgyIDExNDcyLjAyNCA2ODgyIDExMzYzLjUiIHN0cm9rZT0iIzAwMDAwMCIgZmlsbD0ibm9uZSIgc3Ryb2tlLWxpbmVqb2luPSJyb3VuZCIgc3Ryb2tlLWxpbmVjYXA9InJvdW5kIiBzdHJva2Utd2lkdGg9IjEyIiB0cmFuc2Zvcm09Im1hdHJpeCguMDYsMCwwLC0uMDYsMCw4NDIpIi8+JiN4YTs8cGF0aCBkPSJNNjIwMCAxMDk2OS41QzYyMDAgMTA4NjAuOTc2IDYyODcuOTc2IDEwNzczIDYzOTYuNSAxMDc3MyA2NTA1LjAyNCAxMDc3MyA2NTkzIDEwODYwLjk3NiA2NTkzIDEwOTY5LjUgNjU5MyAxMTA3OC4wMjQgNjUwNS4wMjQgMTExNjYgNjM5Ni41IDExMTY2IDYyODcuOTc2IDExMTY2IDYyMDAgMTEwNzguMDI0IDYyMDAgMTA5NjkuNSIgc3Ryb2tlPSIjMDAwMDAwIiBmaWxsPSJub25lIiBzdHJva2UtbGluZWpvaW49InJvdW5kIiBzdHJva2UtbGluZWNhcD0icm91bmQiIHN0cm9rZS13aWR0aD0iMTIiIHRyYW5zZm9ybT0ibWF0cml4KC4wNiwwLDAsLS4wNiwwLDg0MikiLz4mI3hhOzxwYXRoIGQ9Ik02MjAwIDEwMTgyLjVDNjIwMCAxMDA3My45NzYgNjI4Ny45NzYgOTk4NiA2Mzk2LjUgOTk4NiA2NTA1LjAyNCA5OTg2IDY1OTMgMTAwNzMuOTc2IDY1OTMgMTAxODIuNSA2NTkzIDEwMjkxLjAyNCA2NTA1LjAyNCAxMDM3OSA2Mzk2LjUgMTAzNzkgNjI4Ny45NzYgMTAzNzkgNjIwMCAxMDI5MS4wMjQgNjIwMCAxMDE4Mi41IiBzdHJva2U9IiMwMDAwMDAiIGZpbGw9Im5vbmUiIHN0cm9rZS1saW5lam9pbj0icm91bmQiIHN0cm9rZS1saW5lY2FwPSJyb3VuZCIgc3Ryb2tlLXdpZHRoPSIxMiIgdHJhbnNmb3JtPSJtYXRyaXgoLjA2LDAsMCwtLjA2LDAsODQyKSIvPiYjeGE7PHBhdGggZD0iTTY4ODIgOTc4OC41QzY4ODIgOTY3OS45NzYgNjk2OS45NzYgOTU5MiA3MDc4LjUgOTU5MiA3MTg3LjAyNCA5NTkyIDcyNzUgOTY3OS45NzYgNzI3NSA5Nzg4LjUgNzI3NSA5ODk3LjAyNCA3MTg3LjAyNCA5OTg1IDcwNzguNSA5OTg1IDY5NjkuOTc2IDk5ODUgNjg4MiA5ODk3LjAyNCA2ODgyIDk3ODguNSIgc3Ryb2tlPSIjMDAwMDAwIiBmaWxsPSJub25lIiBzdHJva2UtbGluZWpvaW49InJvdW5kIiBzdHJva2UtbGluZWNhcD0icm91bmQiIHN0cm9rZS13aWR0aD0iMTIiIHRyYW5zZm9ybT0ibWF0cml4KC4wNiwwLDAsLS4wNiwwLDg0MikiLz4mI3hhOzxwYXRoIGQ9Ik04NDYyIDEwNTc1LjVDODQ2MiAxMTMzOS41ODYgNzg0Mi41ODYgMTE5NTkgNzA3OC41IDExOTU5IDYzMTQuNDE0IDExOTU5IDU2OTUgMTEzMzkuNTg2IDU2OTUgMTA1NzUuNSA1Njk1IDk4MTEuNDE0IDYzMTQuNDE0IDkxOTIgNzA3OC41IDkxOTIgNzg0Mi41ODYgOTE5MiA4NDYyIDk4MTEuNDE0IDg0NjIgMTA1NzUuNSIgc3Ryb2tlPSIjMDAwMDAwIiBmaWxsPSJub25lIiBzdHJva2UtbGluZWpvaW49InJvdW5kIiBzdHJva2UtbGluZWNhcD0icm91bmQiIHN0cm9rZS13aWR0aD0iMTIiIHRyYW5zZm9ybT0ibWF0cml4KC4wNiwwLDAsLS4wNiwwLDg0MikiLz4mI3hhOzxwYXRoIGQ9Ik02NzYzIDEwNTc1LjVDNjc2MyAxMDQwMS4yNTQgNjkwNC4yNTQ2IDEwMjYwIDcwNzguNSAxMDI2MCA3MjUyLjc0NTggMTAyNjAgNzM5NCAxMDQwMS4yNTQgNzM5NCAxMDU3NS41IDczOTQgMTA3NDkuNzQ2IDcyNTIuNzQ1OCAxMDg5MSA3MDc4LjUgMTA4OTEgNjkwNC4yNTQ2IDEwODkxIDY3NjMgMTA3NDkuNzQ2IDY3NjMgMTA1NzUuNSIgc3Ryb2tlPSIjMDAwMDAwIiBmaWxsPSJub25lIiBzdHJva2UtbGluZWpvaW49InJvdW5kIiBzdHJva2UtbGluZWNhcD0icm91bmQiIHN0cm9rZS13aWR0aD0iMTIiIHRyYW5zZm9ybT0ibWF0cml4KC4wNiwwLDAsLS4wNiwwLDg0MikiLz4mI3hhOzwvZz4mI3hhOzxnIGNsaXAtcGF0aD0idXJsKCNjbGlwXzIpIj4mI3hhOzxwYXRoIGQ9Ik03NDYzIDc2OTFINzQ2MSA3NDU2IDc0NDYgNzQzNCA3NDE4IDczOTggNzM3NiA3MzUwIDczMjIgNzI5MiA3MjYwIDcyMjYgNzE5MCA3MTU0IDcxMTYgNzA3OSA3MDQxIDcwMDMgNjk2NyA2OTMxIDY4OTcgNjg2NSA2ODM1IDY4MDcgNjc4MSA2NzU5IDY3MzkgNjcyMyA2NzExIDY3MDEgNjY5NiA2Njk0IiBzdHJva2U9IiMwMDAwMDAiIGZpbGw9Im5vbmUiIHN0cm9rZS1saW5lam9pbj0icm91bmQiIHN0cm9rZS1saW5lY2FwPSJyb3VuZCIgc3Ryb2tlLXdpZHRoPSIxMiIgdHJhbnNmb3JtPSJtYXRyaXgoLjA2LDAsMCwtLjA2LDAsODQyKSIvPiYjeGE7PHBhdGggZD0iTTY2ODggNzY4NEg2NjkwIDY2OTUgNjcwNSA2NzE3IDY3MzQgNjc1NCA2Nzc2IDY4MDIgNjgzMSA2ODYxIDY4OTQgNjkyOSA2OTY1IDcwMDIgNzA0MCA3MDc5IDcxMTcgNzE1NSA3MTkyIDcyMjggNzI2MyA3Mjk2IDczMjYgNzM1NSA3MzgxIDc0MDMgNzQyMyA3NDQwIDc0NTIgNzQ2MiA3NDY3IDc0NjkiIHN0cm9rZT0iIzAwMDAwMCIgZmlsbD0ibm9uZSIgc3Ryb2tlLWxpbmVqb2luPSJyb3VuZCIgc3Ryb2tlLWxpbmVjYXA9InJvdW5kIiBzdHJva2Utd2lkdGg9IjEyIiB0cmFuc2Zvcm09Im1hdHJpeCguMDYsMCwwLC0uMDYsMCw4NDIpIi8+JiN4YTs8cGF0aCBkPSJNNjk4OCA3Njc1Vjc2NDUiIHN0cm9rZT0iIzAwMDAwMCIgZmlsbD0ibm9uZSIgc3Ryb2tlLWxpbmVqb2luPSJyb3VuZCIgc3Ryb2tlLWxpbmVjYXA9InJvdW5kIiBzdHJva2Utd2lkdGg9IjEyIiB0cmFuc2Zvcm09Im1hdHJpeCguMDYsMCwwLC0uMDYsMCw4NDIpIi8+JiN4YTs8cGF0aCBkPSJNNzA0NyA3NjQ1Vjc2NzVINzA3OSA3MTEwVjc2NDUiIHN0cm9rZT0iIzAwMDAwMCIgZmlsbD0ibm9uZSIgc3Ryb2tlLWxpbmVqb2luPSJyb3VuZCIgc3Ryb2tlLWxpbmVjYXA9InJvdW5kIiBzdHJva2Utd2lkdGg9IjEyIiB0cmFuc2Zvcm09Im1hdHJpeCguMDYsMCwwLC0uMDYsMCw4NDIpIi8+JiN4YTs8cGF0aCBkPSJNNzE2OSA3NjQ1Vjc2NzVINzE5OSA3MjI5Vjc2NDUiIHN0cm9rZT0iIzAwMDAwMCIgZmlsbD0ibm9uZSIgc3Ryb2tlLWxpbmVqb2luPSJyb3VuZCIgc3Ryb2tlLWxpbmVjYXA9InJvdW5kIiBzdHJva2Utd2lkdGg9IjEyIiB0cmFuc2Zvcm09Im1hdHJpeCguMDYsMCwwLC0uMDYsMCw4NDIpIi8+JiN4YTs8cGF0aCBkPSJNNzI4MiA3NjQ1Vjc2NzVINzMwOCA3MzMzVjc2NDUiIHN0cm9rZT0iIzAwMDAwMCIgZmlsbD0ibm9uZSIgc3Ryb2tlLWxpbmVqb2luPSJyb3VuZCIgc3Ryb2tlLWxpbmVjYXA9InJvdW5kIiBzdHJva2Utd2lkdGg9IjEyIiB0cmFuc2Zvcm09Im1hdHJpeCguMDYsMCwwLC0uMDYsMCw4NDIpIi8+JiN4YTs8cGF0aCBkPSJNNzM3NSA3NjQ1Vjc2NzVINzM5NSA3NDEyVjc2NDUiIHN0cm9rZT0iIzAwMDAwMCIgZmlsbD0ibm9uZSIgc3Ryb2tlLWxpbmVqb2luPSJyb3VuZCIgc3Ryb2tlLWxpbmVjYXA9InJvdW5kIiBzdHJva2Utd2lkdGg9IjEyIiB0cmFuc2Zvcm09Im1hdHJpeCguMDYsMCwwLC0uMDYsMCw4NDIpIi8+JiN4YTs8cGF0aCBkPSJNNzQzOSA3NjQ1Vjc2NzVINzQ1MCA3NDU5Vjc2NDUiIHN0cm9rZT0iIzAwMDAwMCIgZmlsbD0ibm9uZSIgc3Ryb2tlLWxpbmVqb2luPSJyb3VuZCIgc3Ryb2tlLWxpbmVjYXA9InJvdW5kIiBzdHJva2Utd2lkdGg9IjEyIiB0cmFuc2Zvcm09Im1hdHJpeCguMDYsMCwwLC0uMDYsMCw4NDIpIi8+JiN4YTs8cGF0aCBkPSJNNzQ2OCA3NjQ1Vjc2NzVINzQ2OSIgc3Ryb2tlPSIjMDAwMDAwIiBmaWxsPSJub25lIiBzdHJva2UtbGluZWpvaW49InJvdW5kIiBzdHJva2UtbGluZWNhcD0icm91bmQiIHN0cm9rZS13aWR0aD0iMTIiIHRyYW5zZm9ybT0ibWF0cml4KC4wNiwwLDAsLS4wNiwwLDg0MikiLz4mI3hhOzxwYXRoIGQ9Ik02Njg5IDc2NDVWNzY3NUg2Njg4IiBzdHJva2U9IiMwMDAwMDAiIGZpbGw9Im5vbmUiIHN0cm9rZS1saW5lam9pbj0icm91bmQiIHN0cm9rZS1saW5lY2FwPSJyb3VuZCIgc3Ryb2tlLXdpZHRoPSIxMiIgdHJhbnNmb3JtPSJtYXRyaXgoLjA2LDAsMCwtLjA2LDAsODQyKSIvPiYjeGE7PHBhdGggZD0iTTY2OTggNzY0NVY3Njc1SDY3MDcgNjcxOFY3NjQ1IiBzdHJva2U9IiMwMDAwMDAiIGZpbGw9Im5vbmUiIHN0cm9rZS1saW5lam9pbj0icm91bmQiIHN0cm9rZS1saW5lY2FwPSJyb3VuZCIgc3Ryb2tlLXdpZHRoPSIxMiIgdHJhbnNmb3JtPSJtYXRyaXgoLjA2LDAsMCwtLjA2LDAsODQyKSIvPiYjeGE7PHBhdGggZD0iTTY3NDUgNzY0NVY3Njc1SDY3NjIgNjc4MlY3NjQ1IiBzdHJva2U9IiMwMDAwMDAiIGZpbGw9Im5vbmUiIHN0cm9rZS1saW5lam9pbj0icm91bmQiIHN0cm9rZS1saW5lY2FwPSJyb3VuZCIgc3Ryb2tlLXdpZHRoPSIxMiIgdHJhbnNmb3JtPSJtYXRyaXgoLjA2LDAsMCwtLjA2LDAsODQyKSIvPiYjeGE7PHBhdGggZD0iTTY4MjQgNzY0NVY3Njc1SDY4NDkgNjg3NVY3NjQ1IiBzdHJva2U9IiMwMDAwMDAiIGZpbGw9Im5vbmUiIHN0cm9rZS1saW5lam9pbj0icm91bmQiIHN0cm9rZS1saW5lY2FwPSJyb3VuZCIgc3Ryb2tlLXdpZHRoPSIxMiIgdHJhbnNmb3JtPSJtYXRyaXgoLjA2LDAsMCwtLjA2LDAsODQyKSIvPiYjeGE7PHBhdGggZD0iTTY5MjggNzY0NVY3Njc1SDY5NTggNjk4OCIgc3Ryb2tlPSIjMDAwMDAwIiBmaWxsPSJub25lIiBzdHJva2UtbGluZWpvaW49InJvdW5kIiBzdHJva2UtbGluZWNhcD0icm91bmQiIHN0cm9rZS13aWR0aD0iMTIiIHRyYW5zZm9ybT0ibWF0cml4KC4wNiwwLDAsLS4wNiwwLDg0MikiLz4mI3hhOzxwYXRoIGQ9Ik03Mzc1IDc2NTcgNzM3OSA3NjYyIDczODIgNzY2NiA3Mzg2IDc2NzAgNzM4OSA3Njc1IiBzdHJva2U9IiMwMDAwMDAiIGZpbGw9Im5vbmUiIHN0cm9rZS1saW5lam9pbj0icm91bmQiIHN0cm9rZS1saW5lY2FwPSJyb3VuZCIgc3Ryb2tlLXdpZHRoPSIxMiIgdHJhbnNmb3JtPSJtYXRyaXgoLjA2LDAsMCwtLjA2LDAsODQyKSIvPiYjeGE7PHBhdGggZD0iTTcyOTkgNzY0NSA3MzAxIDc2NDggNzMwMyA3NjUyIDczMDUgNzY1NiA3MzA3IDc2NTkgNzMwOSA3NjYzIDczMTIgNzY2NyA3MzE0IDc2NzEgNzMxNiA3Njc1IiBzdHJva2U9IiMwMDAwMDAiIGZpbGw9Im5vbmUiIHN0cm9rZS1saW5lam9pbj0icm91bmQiIHN0cm9rZS1saW5lY2FwPSJyb3VuZCIgc3Ryb2tlLXdpZHRoPSIxMiIgdHJhbnNmb3JtPSJtYXRyaXgoLjA2LDAsMCwtLjA2LDAsODQyKSIvPiYjeGE7PHBhdGggZD0iTTcyMTEgNzY0NSA3MjEyIDc2NDggNzIxMyA3NjUyIDcyMTQgNzY1NiA3MjE1IDc2NTkgNzIxNiA3NjYzIDcyMTggNzY2NyA3MjE5IDc2NzEgNzIyMCA3Njc1IiBzdHJva2U9IiMwMDAwMDAiIGZpbGw9Im5vbmUiIHN0cm9rZS1saW5lam9pbj0icm91bmQiIHN0cm9rZS1saW5lY2FwPSJyb3VuZCIgc3Ryb2tlLXdpZHRoPSIxMiIgdHJhbnNmb3JtPSJtYXRyaXgoLjA2LDAsMCwtLjA2LDAsODQyKSIvPiYjeGE7PHBhdGggZD0iTTY3NjggNzY3NSA2NzcxIDc2NzAgNjc3NSA3NjY2IDY3NzggNzY2MiA2NzgyIDc2NTciIHN0cm9rZT0iIzAwMDAwMCIgZmlsbD0ibm9uZSIgc3Ryb2tlLWxpbmVqb2luPSJyb3VuZCIgc3Ryb2tlLWxpbmVjYXA9InJvdW5kIiBzdHJva2Utd2lkdGg9IjEyIiB0cmFuc2Zvcm09Im1hdHJpeCguMDYsMCwwLC0uMDYsMCw4NDIpIi8+JiN4YTs8cGF0aCBkPSJNNjg0MSA3Njc1IDY4NDMgNzY3MSA2ODQ1IDc2NjcgNjg0OCA3NjYzIDY4NTAgNzY1OSA2ODUyIDc2NTYgNjg1NCA3NjUyIDY4NTYgNzY0OCA2ODU4IDc2NDUiIHN0cm9rZT0iIzAwMDAwMCIgZmlsbD0ibm9uZSIgc3Ryb2tlLWxpbmVqb2luPSJyb3VuZCIgc3Ryb2tlLWxpbmVjYXA9InJvdW5kIiBzdHJva2Utd2lkdGg9IjEyIiB0cmFuc2Zvcm09Im1hdHJpeCguMDYsMCwwLC0uMDYsMCw4NDIpIi8+JiN4YTs8cGF0aCBkPSJNNjkzNyA3Njc1IDY5MzggNzY3MSA2OTM5IDc2NjcgNjk0MSA3NjYzIDY5NDIgNzY1OSA2OTQzIDc2NTYgNjk0NCA3NjUyIDY5NDUgNzY0OCA2OTQ2IDc2NDUiIHN0cm9rZT0iIzAwMDAwMCIgZmlsbD0ibm9uZSIgc3Ryb2tlLWxpbmVqb2luPSJyb3VuZCIgc3Ryb2tlLWxpbmVjYXA9InJvdW5kIiBzdHJva2Utd2lkdGg9IjEyIiB0cmFuc2Zvcm09Im1hdHJpeCguMDYsMCwwLC0uMDYsMCw4NDIpIi8+JiN4YTs8cGF0aCBkPSJNNTcxMSA3NTk3SDU3MTMgNTcxOSA1NzI5IDU3NDMgNTc2MSA1NzgyIDU4MDggNTgzNyA1ODcwIDU5MDcgNTk0NyA1OTkwIDYwMzYgNjA4NiA2MTM4IDYxOTMgNjI1MSA2MzExIDYzNzMgNjQzOCA2NTA0IDY1NzIgNjY0MiA2NzEzIDY3ODUgNjg1NyA2OTMxIDcwMDQgNzA3OSA3MTUzIDcyMjYgNzMwMCA3MzcyIDc0NDQgNzUxNSA3NTg1IDc2NTMgNzcxOSA3Nzg0IDc4NDYgNzkwNiA3OTY0IDgwMTkgODA3MSA4MTIxIDgxNjcgODIxMCA4MjUwIDgyODcgODMyMCA4MzQ5IDgzNzUgODM5NiA4NDE0IDg0MjggODQzOCA4NDQ0IDg0NDYiIHN0cm9rZT0iIzAwMDAwMCIgZmlsbD0ibm9uZSIgc3Ryb2tlLWxpbmVqb2luPSJyb3VuZCIgc3Ryb2tlLWxpbmVjYXA9InJvdW5kIiBzdHJva2Utd2lkdGg9IjEyIiB0cmFuc2Zvcm09Im1hdHJpeCguMDYsMCwwLC0uMDYsMCw4NDIpIi8+JiN4YTs8cGF0aCBkPSJNODQ0NiA3NjQ1SDg0NDQgODQzOCA4NDI4IDg0MTQgODM5NiA4Mzc1IDgzNDkgODMyMCA4Mjg3IDgyNTAgODIxMCA4MTY3IDgxMjEgODA3MSA4MDE5IDc5NjQgNzkwNiA3ODQ2IDc3ODQgNzcxOSA3NjUzIDc1ODUgNzUxNSA3NDQ0IDczNzIgNzMwMCA3MjI2IDcxNTMgNzA3OSA3MDA0IDY5MzEgNjg1NyA2Nzg1IDY3MTMgNjY0MiA2NTcyIDY1MDQgNjQzOCA2MzczIDYzMTEgNjI1MSA2MTkzIDYxMzggNjA4NiA2MDM2IDU5OTAgNTk0NyA1OTA3IDU4NzAgNTgzNyA1ODA4IDU3ODIgNTc2MSA1NzQzIDU3MjkgNTcxOSA1NzEzIDU3MTEiIHN0cm9rZT0iIzAwMDAwMCIgZmlsbD0ibm9uZSIgc3Ryb2tlLWxpbmVqb2luPSJyb3VuZCIgc3Ryb2tlLWxpbmVjYXA9InJvdW5kIiBzdHJva2Utd2lkdGg9IjEyIiB0cmFuc2Zvcm09Im1hdHJpeCguMDYsMCwwLC0uMDYsMCw4NDIpIi8+JiN4YTs8cGF0aCBkPSJNODQ2MiA3NjEzSDg0NjAgODQ1NCA4NDQ0IDg0MzAgODQxMSA4Mzg5IDgzNjQgODMzNCA4MzAxIDgyNjQgODIyNCA4MTgwIDgxMzMgODA4MyA4MDMwIDc5NzQgNzkxNiA3ODU1IDc3OTIgNzcyNiA3NjU5IDc1OTEgNzUyMCA3NDQ5IDczNzYgNzMwMiA3MjI4IDcxNTMgNzA3OSA3MDA0IDY5MjkgNjg1NSA2NzgxIDY3MDggNjYzNyA2NTY2IDY0OTggNjQzMSA2MzY1IDYzMDIgNjI0MSA2MTgzIDYxMjcgNjA3NCA2MDI0IDU5NzcgNTkzMyA1ODkzIDU4NTYgNTgyMyA1NzkzIDU3NjggNTc0NiA1NzI3IDU3MTMgNTcwMyA1Njk3IDU2OTUiIHN0cm9rZT0iIzAwMDAwMCIgZmlsbD0ibm9uZSIgc3Ryb2tlLWxpbmVqb2luPSJyb3VuZCIgc3Ryb2tlLWxpbmVjYXA9InJvdW5kIiBzdHJva2Utd2lkdGg9IjEyIiB0cmFuc2Zvcm09Im1hdHJpeCguMDYsMCwwLC0uMDYsMCw4NDIpIi8+JiN4YTs8cGF0aCBkPSJNNTY5NSA3NjI5SDU2OTcgNTcwMyA1NzEzIDU3MjcgNTc0NiA1NzY4IDU3OTMgNTgyMyA1ODU2IDU4OTMgNTkzMyA1OTc3IDYwMjQgNjA3NCA2MTI3IDYxODMgNjI0MSA2MzAyIDYzNjUgNjQzMSA2NDk4IDY1NjYgNjYzNyA2NzA4IDY3ODEgNjg1NSA2OTI5IDcwMDQgNzA3OSA3MTUzIDcyMjggNzMwMiA3Mzc2IDc0NDkgNzUyMCA3NTkxIDc2NTkgNzcyNiA3NzkyIDc4NTUgNzkxNiA3OTc0IDgwMzAgODA4MyA4MTMzIDgxODAgODIyNCA4MjY0IDgzMDEgODMzNCA4MzY0IDgzODkgODQxMSA4NDMwIDg0NDQgODQ1NCA4NDYwIDg0NjIiIHN0cm9rZT0iIzAwMDAwMCIgZmlsbD0ibm9uZSIgc3Ryb2tlLWxpbmVqb2luPSJyb3VuZCIgc3Ryb2tlLWxpbmVjYXA9InJvdW5kIiBzdHJva2Utd2lkdGg9IjEyIiB0cmFuc2Zvcm09Im1hdHJpeCguMDYsMCwwLC0uMDYsMCw4NDIpIi8+JiN4YTs8cGF0aCBkPSJNNzQ2MyA3NjkxIDc0NjkgNzY4NCIgc3Ryb2tlPSIjMDAwMDAwIiBmaWxsPSJub25lIiBzdHJva2UtbGluZWpvaW49InJvdW5kIiBzdHJva2UtbGluZWNhcD0icm91bmQiIHN0cm9rZS13aWR0aD0iMTIiIHRyYW5zZm9ybT0ibWF0cml4KC4wNiwwLDAsLS4wNiwwLDg0MikiLz4mI3hhOzxwYXRoIGQ9Ik02Njk0IDc2OTEgNjY4OCA3Njg0Vjc2NzUiIHN0cm9rZT0iIzAwMDAwMCIgZmlsbD0ibm9uZSIgc3Ryb2tlLWxpbmVqb2luPSJyb3VuZCIgc3Ryb2tlLWxpbmVjYXA9InJvdW5kIiBzdHJva2Utd2lkdGg9IjEyIiB0cmFuc2Zvcm09Im1hdHJpeCguMDYsMCwwLC0uMDYsMCw4NDIpIi8+JiN4YTs8cGF0aCBkPSJNNzQ2OSA3Njc1Vjc2ODQiIHN0cm9rZT0iIzAwMDAwMCIgZmlsbD0ibm9uZSIgc3Ryb2tlLWxpbmVqb2luPSJyb3VuZCIgc3Ryb2tlLWxpbmVjYXA9InJvdW5kIiBzdHJva2Utd2lkdGg9IjEyIiB0cmFuc2Zvcm09Im1hdHJpeCguMDYsMCwwLC0uMDYsMCw4NDIpIi8+JiN4YTs8cGF0aCBkPSJNNTcxMSA3NTk3IDU2OTUgNzYxMyIgc3Ryb2tlPSIjMDAwMDAwIiBmaWxsPSJub25lIiBzdHJva2UtbGluZWpvaW49InJvdW5kIiBzdHJva2UtbGluZWNhcD0icm91bmQiIHN0cm9rZS13aWR0aD0iMTIiIHRyYW5zZm9ybT0ibWF0cml4KC4wNiwwLDAsLS4wNiwwLDg0MikiLz4mI3hhOzxwYXRoIGQ9Ik04NDQ2IDc1OTcgODQ2MiA3NjEzIiBzdHJva2U9IiMwMDAwMDAiIGZpbGw9Im5vbmUiIHN0cm9rZS1saW5lam9pbj0icm91bmQiIHN0cm9rZS1saW5lY2FwPSJyb3VuZCIgc3Ryb2tlLXdpZHRoPSIxMiIgdHJhbnNmb3JtPSJtYXRyaXgoLjA2LDAsMCwtLjA2LDAsODQyKSIvPiYjeGE7PHBhdGggZD0iTTU2OTUgNzYxM1Y3NjI5IiBzdHJva2U9IiMwMDAwMDAiIGZpbGw9Im5vbmUiIHN0cm9rZS1saW5lam9pbj0icm91bmQiIHN0cm9rZS1saW5lY2FwPSJyb3VuZCIgc3Ryb2tlLXdpZHRoPSIxMiIgdHJhbnNmb3JtPSJtYXRyaXgoLjA2LDAsMCwtLjA2LDAsODQyKSIvPiYjeGE7PHBhdGggZD0iTTg0NjIgNzYxM1Y3NjI5TDg0NDYgNzY0NSIgc3Ryb2tlPSIjMDAwMDAwIiBmaWxsPSJub25lIiBzdHJva2UtbGluZWpvaW49InJvdW5kIiBzdHJva2UtbGluZWNhcD0icm91bmQiIHN0cm9rZS13aWR0aD0iMTIiIHRyYW5zZm9ybT0ibWF0cml4KC4wNiwwLDAsLS4wNiwwLDg0MikiLz4mI3hhOzxwYXRoIGQ9Ik01NzExIDc2NDUgNTY5NSA3NjI5IiBzdHJva2U9IiMwMDAwMDAiIGZpbGw9Im5vbmUiIHN0cm9rZS1saW5lam9pbj0icm91bmQiIHN0cm9rZS1saW5lY2FwPSJyb3VuZCIgc3Ryb2tlLXdpZHRoPSIxMiIgdHJhbnNmb3JtPSJtYXRyaXgoLjA2LDAsMCwtLjA2LDAsODQyKSIvPiYjeGE7PC9nPiYjeGE7PGcgY2xpcC1wYXRoPSJ1cmwoI2NsaXBfMykiPiYjeGE7PHBhdGggZD0iTTAtMzEuNUM4LjM1NDMyLTMxLjUgMTYuMzY2NDctMjguMTgxMjYgMjIuMjczODYtMjIuMjczODYiIHN0cm9rZT0iIzAwMDAwMCIgZmlsbD0ibm9uZSIgc3Ryb2tlLWxpbmVqb2luPSJyb3VuZCIgc3Ryb2tlLWxpbmVjYXA9InJvdW5kIiBzdHJva2Utd2lkdGg9IjEyIiB0cmFuc2Zvcm09Im1hdHJpeCguMDQyNDI2NTk5LC0uMDQyNDI2NTk5LC0uMDQyNDI2NTk5LC0uMDQyNDI2NTk5LDI2MC4yNSwzNzYuNjEwMDMpIi8+JiN4YTs8cGF0aCBkPSJNNDMzNyA3NzY5Vjc4MTJMNDM0NyA3ODIySDQzNTlMNDM2OSA3ODEyVjc3NTYiIHN0cm9rZT0iIzAwMDAwMCIgZmlsbD0ibm9uZSIgc3Ryb2tlLWxpbmVqb2luPSJyb3VuZCIgc3Ryb2tlLWxpbmVjYXA9InJvdW5kIiBzdHJva2Utd2lkdGg9IjEyIiB0cmFuc2Zvcm09Im1hdHJpeCguMDYsMCwwLC0uMDYsMCw4NDIpIi8+JiN4YTs8cGF0aCBkPSJNNDMyOC43NzQgNzc0Ny4yMjZDNDMzNC42ODEgNzc1My4xMzM1IDQzMzggNzc2MS4xNDU3IDQzMzggNzc2OS41IiBzdHJva2U9IiMwMDAwMDAiIGZpbGw9Im5vbmUiIHN0cm9rZS1saW5lam9pbj0icm91bmQiIHN0cm9rZS1saW5lY2FwPSJyb3VuZCIgc3Ryb2tlLXdpZHRoPSIxMiIgdHJhbnNmb3JtPSJtYXRyaXgoLjA2LDAsMCwtLjA2LDAsODQyKSIvPiYjeGE7PHBhdGggZD0iTTQzMjggNzc0NiA0MjU5IDc2NzdINDIzN0w0MjI3IDc2NjdWNzY0NUw0MTM3IDc1NTUiIHN0cm9rZT0iIzAwMDAwMCIgZmlsbD0ibm9uZSIgc3Ryb2tlLWxpbmVqb2luPSJyb3VuZCIgc3Ryb2tlLWxpbmVjYXA9InJvdW5kIiBzdHJva2Utd2lkdGg9IjEyIiB0cmFuc2Zvcm09Im1hdHJpeCguMDYsMCwwLC0uMDYsMCw4NDIpIi8+JiN4YTs8cGF0aCBkPSJNMC0zMS41QzQuMTM2NjQtMzEuNSA4LjIzMjc3LTMwLjY4NTIzIDEyLjA1NDUzLTI5LjEwMjIxIiBzdHJva2U9IiMwMDAwMDAiIGZpbGw9Im5vbmUiIHN0cm9rZS1saW5lam9pbj0icm91bmQiIHN0cm9rZS1saW5lY2FwPSJyb3VuZCIgc3Ryb2tlLXdpZHRoPSIxMiIgdHJhbnNmb3JtPSJtYXRyaXgoLS4wNDI0MjY1OTksLjA0MjQyNjU5OSwuMDQyNDI2NTk5LC4wNDI0MjY1OTksMjQ5LjU2OTk5LDM5MC4wNTAwMykiLz4mI3hhOzxwYXRoIGQ9Ik00MTMwIDc1NDQgNDEwNiA3NDg2IDQwOTMgNzQ3N0gxNjUyTDE2MzkgNzQ4NiAxNjE1IDc1NDQiIHN0cm9rZT0iIzAwMDAwMCIgZmlsbD0ibm9uZSIgc3Ryb2tlLWxpbmVqb2luPSJyb3VuZCIgc3Ryb2tlLWxpbmVjYXA9InJvdW5kIiBzdHJva2Utd2lkdGg9IjEyIiB0cmFuc2Zvcm09Im1hdHJpeCguMDYsMCwwLC0uMDYsMCw4NDIpIi8+JiN4YTs8cGF0aCBkPSJNMzEuNSAwQzMxLjUgNC4xMzY2NCAzMC42ODUyMyA4LjIzMjc3IDI5LjEwMjIxIDEyLjA1NDUzIiBzdHJva2U9IiMwMDAwMDAiIGZpbGw9Im5vbmUiIHN0cm9rZS1saW5lam9pbj0icm91bmQiIHN0cm9rZS1saW5lY2FwPSJyb3VuZCIgc3Ryb2tlLXdpZHRoPSIxMiIgdHJhbnNmb3JtPSJtYXRyaXgoLjA1NTQzMjc5OCwtLjAyMjk2MDc5OSwtLjAyMjk2MDc5OSwtLjA1NTQzMjc5OCw5NS4xODk5OTgsMzkwLjA1MDAzKSIvPiYjeGE7PHBhdGggZD0iTTE2MDggNzU1NSAxNTE4IDc2NDVWNzY2N0wxNTA4IDc2NzdIMTQ4NkwxNDE3IDc3NDYiIHN0cm9rZT0iIzAwMDAwMCIgZmlsbD0ibm9uZSIgc3Ryb2tlLWxpbmVqb2luPSJyb3VuZCIgc3Ryb2tlLWxpbmVjYXA9InJvdW5kIiBzdHJva2Utd2lkdGg9IjEyIiB0cmFuc2Zvcm09Im1hdHJpeCguMDYsMCwwLC0uMDYsMCw4NDIpIi8+JiN4YTs8cGF0aCBkPSJNLTIyLjI3Mzg2LTIyLjI3Mzg2Qy0xNi4zNjY0Ny0yOC4xODEyNi04LjM1NDMyLTMxLjUgMC0zMS41IiBzdHJva2U9IiMwMDAwMDAiIGZpbGw9Im5vbmUiIHN0cm9rZS1saW5lam9pbj0icm91bmQiIHN0cm9rZS1saW5lY2FwPSJyb3VuZCIgc3Ryb2tlLXdpZHRoPSIxMiIgdHJhbnNmb3JtPSJtYXRyaXgoLjA0MjQyNjU5OSwuMDQyNDI2NTk5LC4wNDI0MjY1OTksLS4wNDI0MjY1OTksODYuMzY5OTk4LDM3NS44MzAwMykiLz4mI3hhOzxwYXRoIGQ9Ik0xNDA4IDc3NjlWNzgxMkwxMzk4IDc4MjJIMTM4NkwxMzc2IDc4MTJWNzc1NiIgc3Ryb2tlPSIjMDAwMDAwIiBmaWxsPSJub25lIiBzdHJva2UtbGluZWpvaW49InJvdW5kIiBzdHJva2UtbGluZWNhcD0icm91bmQiIHN0cm9rZS13aWR0aD0iMTIiIHRyYW5zZm9ybT0ibWF0cml4KC4wNiwwLDAsLS4wNiwwLDg0MikiLz4mI3hhOzxwYXRoIGQ9Ik0zMS41IDBDMzEuNSA4LjM1NDMyIDI4LjE4MTI2IDE2LjM2NjQ3IDIyLjI3Mzg2IDIyLjI3Mzg2IiBzdHJva2U9IiMwMDAwMDAiIGZpbGw9Im5vbmUiIHN0cm9rZS1saW5lam9pbj0icm91bmQiIHN0cm9rZS1saW5lY2FwPSJyb3VuZCIgc3Ryb2tlLXdpZHRoPSIxMiIgdHJhbnNmb3JtPSJtYXRyaXgoLS4wNiwtMCwwLC4wNiw4NC41MDk5OTgsMzc2LjYxMDAzKSIvPiYjeGE7PHBhdGggZD0iTTEzODUgNzczMyAxNjAzIDc1MTUiIHN0cm9rZT0iIzAwMDAwMCIgZmlsbD0ibm9uZSIgc3Ryb2tlLWxpbmVqb2luPSJyb3VuZCIgc3Ryb2tlLWxpbmVjYXA9InJvdW5kIiBzdHJva2Utd2lkdGg9IjEyIiB0cmFuc2Zvcm09Im1hdHJpeCguMDYsMCwwLC0uMDYsMCw4NDIpIi8+JiN4YTs8cGF0aCBkPSJNLTIyLjI3Mzg2LTIyLjI3Mzg2Qy0xNi4zNjY0Ny0yOC4xODEyNi04LjM1NDMyLTMxLjUgMC0zMS41IiBzdHJva2U9IiMwMDAwMDAiIGZpbGw9Im5vbmUiIHN0cm9rZS1saW5lam9pbj0icm91bmQiIHN0cm9rZS1saW5lY2FwPSJyb3VuZCIgc3Ryb2tlLXdpZHRoPSIxMiIgdHJhbnNmb3JtPSJtYXRyaXgoLS4wNDI0MjY1OTksLS4wNDI0MjY1OTksLS4wNDI0MjY1OTksLjA0MjQyNjU5OSw5NC44OSwzOTIuMzkpIi8+JiN4YTs8cGF0aCBkPSJNMTYxMiA3NDkzVjc0NThMMTYyOCA3NDQySDQxMTdMNDEzMyA3NDU4Vjc0OTMiIHN0cm9rZT0iIzAwMDAwMCIgZmlsbD0ibm9uZSIgc3Ryb2tlLWxpbmVqb2luPSJyb3VuZCIgc3Ryb2tlLWxpbmVjYXA9InJvdW5kIiBzdHJva2Utd2lkdGg9IjEyIiB0cmFuc2Zvcm09Im1hdHJpeCguMDYsMCwwLC0uMDYsMCw4NDIpIi8+JiN4YTs8cGF0aCBkPSJNMjIuMjczODYtMjIuMjczODZDMjguMTgxMjYtMTYuMzY2NDcgMzEuNS04LjM1NDMyIDMxLjUgMCIgc3Ryb2tlPSIjMDAwMDAwIiBmaWxsPSJub25lIiBzdHJva2UtbGluZWpvaW49InJvdW5kIiBzdHJva2UtbGluZWNhcD0icm91bmQiIHN0cm9rZS13aWR0aD0iMTIiIHRyYW5zZm9ybT0ibWF0cml4KC0uMDYsLTAsMCwuMDYsMjQ5Ljg3LDM5Mi4zOSkiLz4mI3hhOzxwYXRoIGQ9Ik00MTQyIDc1MTUgNDM2MCA3NzMzIiBzdHJva2U9IiMwMDAwMDAiIGZpbGw9Im5vbmUiIHN0cm9rZS1saW5lam9pbj0icm91bmQiIHN0cm9rZS1saW5lY2FwPSJyb3VuZCIgc3Ryb2tlLXdpZHRoPSIxMiIgdHJhbnNmb3JtPSJtYXRyaXgoLjA2LDAsMCwtLjA2LDAsODQyKSIvPiYjeGE7PHBhdGggZD0iTTE0MDggNzgxMkgxNDEwIDE0MTYgMTQyNiAxNDQwIDE0NTcgMTQ3OSAxNTA1IDE1MzQgMTU2NyAxNjA0IDE2NDQgMTY4NyAxNzM0IDE3ODQgMTgzNyAxODkyIDE5NTEgMjAxMSAyMDc1IDIxNDAgMjIwNyAyMjc3IDIzNDggMjQyMCAyNDkzIDI1NjggMjY0MyAyNzE5IDI3OTYgMjg3MiAyOTQ5IDMwMjYgMzEwMiAzMTc3IDMyNTIgMzMyNSAzMzk3IDM0NjggMzUzOCAzNjA1IDM2NzAgMzczNCAzNzk0IDM4NTMgMzkwOCAzOTYxIDQwMTEgNDA1OCA0MTAxIDQxNDEgNDE3OCA0MjExIDQyNDAgNDI2NiA0Mjg4IDQzMDUgNDMxOSA0MzI5IDQzMzUgNDMzNyIgc3Ryb2tlPSIjMDAwMDAwIiBmaWxsPSJub25lIiBzdHJva2UtbGluZWpvaW49InJvdW5kIiBzdHJva2UtbGluZWNhcD0icm91bmQiIHN0cm9rZS13aWR0aD0iMTIiIHRyYW5zZm9ybT0ibWF0cml4KC4wNiwwLDAsLS4wNiwwLDg0MikiLz4mI3hhOzxwYXRoIGQ9Ik00MTA2IDc0ODZINDEwNCA0MDk4IDQwODkgNDA3NSA0MDU4IDQwMzcgNDAxMiAzOTg0IDM5NTIgMzkxNyAzODc4IDM4MzcgMzc5MiAzNzQ1IDM2OTQgMzY0MiAzNTg2IDM1MjkgMzQ2OSAzNDA4IDMzNDUgMzI4MCAzMjE0IDMxNDcgMzA3OSAzMDExIDI5NDIgMjg3MiAyODAzIDI3MzQgMjY2NiAyNTk4IDI1MzEgMjQ2NSAyNDAwIDIzMzcgMjI3NiAyMjE2IDIxNTkgMjEwMyAyMDUxIDIwMDAgMTk1MyAxOTA4IDE4NjcgMTgyOCAxNzkzIDE3NjEgMTczMyAxNzA4IDE2ODcgMTY3MCAxNjU2IDE2NDcgMTY0MSAxNjM5IiBzdHJva2U9IiMwMDAwMDAiIGZpbGw9Im5vbmUiIHN0cm9rZS1saW5lam9pbj0icm91bmQiIHN0cm9rZS1saW5lY2FwPSJyb3VuZCIgc3Ryb2tlLXdpZHRoPSIxMiIgdHJhbnNmb3JtPSJtYXRyaXgoLjA2LDAsMCwtLjA2LDAsODQyKSIvPiYjeGE7PHBhdGggZD0iTTQyMjcgNzY0NUg0MjI1IDQyMTkgNDIwOSA0MTk1IDQxNzggNDE1NiA0MTMxIDQxMDIgNDA2OSA0MDMzIDM5OTQgMzk1MSAzOTA1IDM4NTYgMzgwNCAzNzQ5IDM2OTIgMzYzMyAzNTcxIDM1MDcgMzQ0MSAzMzc0IDMzMDUgMzIzNSAzMTY0IDMwOTIgMzAxOSAyOTQ2IDI4NzIgMjc5OSAyNzI2IDI2NTMgMjU4MSAyNTEwIDI0NDAgMjM3MSAyMzA0IDIyMzggMjE3NCAyMTEyIDIwNTMgMTk5NiAxOTQxIDE4ODkgMTg0MCAxNzk0IDE3NTEgMTcxMiAxNjc2IDE2NDMgMTYxNCAxNTg5IDE1NjcgMTU1MCAxNTM2IDE1MjYgMTUyMCAxNTE4IiBzdHJva2U9IiMwMDAwMDAiIGZpbGw9Im5vbmUiIHN0cm9rZS1saW5lam9pbj0icm91bmQiIHN0cm9rZS1saW5lY2FwPSJyb3VuZCIgc3Ryb2tlLXdpZHRoPSIxMiIgdHJhbnNmb3JtPSJtYXRyaXgoLjA2LDAsMCwtLjA2LDAsODQyKSIvPiYjeGE7PHBhdGggZD0iTTQyMzcgNzY3N0g0MjM1IDQyMjkgNDIxOSA0MjA1IDQxODcgNDE2NSA0MTQwIDQxMTEgNDA3OCA0MDQxIDQwMDIgMzk1OCAzOTEyIDM4NjMgMzgxMSAzNzU2IDM2OTggMzYzOCAzNTc2IDM1MTEgMzQ0NSAzMzc3IDMzMDggMzIzNyAzMTY2IDMwOTMgMzAyMCAyOTQ2IDI4NzIgMjc5OSAyNzI1IDI2NTIgMjU3OSAyNTA4IDI0MzcgMjM2OCAyMzAwIDIyMzQgMjE2OSAyMTA3IDIwNDcgMTk4OSAxOTM0IDE4ODIgMTgzMyAxNzg3IDE3NDMgMTcwNCAxNjY3IDE2MzQgMTYwNSAxNTgwIDE1NTggMTU0MCAxNTI2IDE1MTYgMTUxMCAxNTA4IiBzdHJva2U9IiMwMDAwMDAiIGZpbGw9Im5vbmUiIHN0cm9rZS1saW5lam9pbj0icm91bmQiIHN0cm9rZS1saW5lY2FwPSJyb3VuZCIgc3Ryb2tlLXdpZHRoPSIxMiIgdHJhbnNmb3JtPSJtYXRyaXgoLjA2LDAsMCwtLjA2LDAsODQyKSIvPiYjeGE7PHBhdGggZD0iTTE1MTggNzY2N0gxNTIwIDE1MjYgMTUzNiAxNTUwIDE1NjcgMTU4OSAxNjE0IDE2NDMgMTY3NiAxNzEyIDE3NTEgMTc5NCAxODQwIDE4ODkgMTk0MSAxOTk2IDIwNTMgMjExMiAyMTc0IDIyMzggMjMwNCAyMzcxIDI0NDAgMjUxMCAyNTgxIDI2NTMgMjcyNiAyNzk5IDI4NzIgMjk0NiAzMDE5IDMwOTIgMzE2NCAzMjM1IDMzMDUgMzM3NCAzNDQxIDM1MDcgMzU3MSAzNjMzIDM2OTIgMzc0OSAzODA0IDM4NTYgMzkwNSAzOTUxIDM5OTQgNDAzMyA0MDY5IDQxMDIgNDEzMSA0MTU2IDQxNzggNDE5NSA0MjA5IDQyMTkgNDIyNSA0MjI3IiBzdHJva2U9IiMwMDAwMDAiIGZpbGw9Im5vbmUiIHN0cm9rZS1saW5lam9pbj0icm91bmQiIHN0cm9rZS1saW5lY2FwPSJyb3VuZCIgc3Ryb2tlLXdpZHRoPSIxMiIgdHJhbnNmb3JtPSJtYXRyaXgoLjA2LDAsMCwtLjA2LDAsODQyKSIvPiYjeGE7PHBhdGggZD0iTTQzNDcgNzgyMkg0MzQ1IDQzMzkgNDMyOSA0MzE1IDQyOTcgNDI3NSA0MjQ5IDQyMTkgNDE4NiA0MTQ5IDQxMDkgNDA2NSA0MDE4IDM5NjggMzkxNSAzODU5IDM4MDAgMzczOSAzNjc1IDM2MTAgMzU0MiAzNDcyIDM0MDEgMzMyOCAzMjU0IDMxNzkgMzEwMyAzMDI3IDI5NTAgMjg3MiAyNzk1IDI3MTggMjY0MiAyNTY2IDI0OTEgMjQxNyAyMzQ0IDIyNzMgMjIwMyAyMTM1IDIwNzAgMjAwNiAxOTQ1IDE4ODYgMTgzMCAxNzc3IDE3MjcgMTY4MCAxNjM2IDE1OTYgMTU1OSAxNTI2IDE0OTYgMTQ3MCAxNDQ4IDE0MzAgMTQxNiAxNDA2IDE0MDAgMTM5OCIgc3Ryb2tlPSIjMDAwMDAwIiBmaWxsPSJub25lIiBzdHJva2UtbGluZWpvaW49InJvdW5kIiBzdHJva2UtbGluZWNhcD0icm91bmQiIHN0cm9rZS13aWR0aD0iMTIiIHRyYW5zZm9ybT0ibWF0cml4KC4wNiwwLDAsLS4wNiwwLDg0MikiLz4mI3hhOzwvZz4mI3hhOzxnIGNsaXAtcGF0aD0idXJsKCNjbGlwXzQpIj4mI3hhOzxnPiYjeGE7PHBhdGggZD0iTTQ2MjcgMTI0NzcgMzk5NSAxMTc4NiIgc3Ryb2tlPSIjMDAwMDAwIiBmaWxsPSJub25lIiBzdHJva2UtbGluZWpvaW49InJvdW5kIiBzdHJva2UtbGluZWNhcD0icm91bmQiIHN0cm9rZS13aWR0aD0iMTIiIHRyYW5zZm9ybT0ibWF0cml4KC4wNiwwLDAsLS4wNiwwLDg0MikiLz4mI3hhOzwvZz4mI3hhOzwvZz4mI3hhOzxnIGNsaXAtcGF0aD0idXJsKCNjbGlwXzUpIj4mI3hhOzxnPiYjeGE7PHRleHQgZm9udC1mYW1pbHk9IlZlcmRhbmEiIGZvbnQtc2l6ZT0iMjI3LjQyMzg4IiB0cmFuc2Zvcm09Im1hdHJpeCguMDQwNTE5MDQ5IC0uMDQ0MjUxNjMzIC4wNDQyNTE2MzMgLjA0MDUxOTA0OSAwIDg0MikiIHhtbDpzcGFjZT0icHJlc2VydmUiPjx0c3BhbiB4PSIxMTYwMC4xNDcgMTE3NTguMjA3IDExOTAyLjg0OSIgeT0iLTUwODIuOTA3Ij5SMzE8L3RzcGFuPjx0c3BhbiB4PSIxMjA0Ny40OSIgeT0iLTUwODIuOTA2NCI+LjwvdHNwYW4+PHRzcGFuIHg9IjEyMTMwLjI3MiIgeT0iLTUwODIuOTA2OSI+NzwvdHNwYW4+PC90ZXh0PiYjeGE7PC9nPiYjeGE7PC9nPiYjeGE7PGcgY2xpcC1wYXRoPSJ1cmwoI2NsaXBfNikiPiYjeGE7PHBhdGggZD0iTTI4NzMgMTA1NjEgMzg4MyAxMTY2NCIgc3Ryb2tlPSIjMDAwMDAwIiBmaWxsPSJub25lIiBzdHJva2UtbGluZWpvaW49InJvdW5kIiBzdHJva2UtbGluZWNhcD0icm91bmQiIHN0cm9rZS13aWR0aD0iMTIiIHRyYW5zZm9ybT0ibWF0cml4KC4wNiwwLDAsLS4wNiwwLDg0MikiLz4mI3hhOzxwYXRoIGQ9Ik0zOTc0IDExODA1IDQwMTUgMTE3NjggMzg4MyAxMTY2NFoiIHRyYW5zZm9ybT0ibWF0cml4KC4wNiwwLDAsLS4wNiwwLDg0MikiLz4mI3hhOzxwYXRoIGQ9Ik0zOTc0IDExODA1IDQwMTUgMTE3NjggMzg4MyAxMTY2NFoiIHN0cm9rZT0iIzAwMDAwMCIgZmlsbD0ibm9uZSIgc3Ryb2tlLWxpbmVqb2luPSJtaXRlciIgc3Ryb2tlLW1pdGVybGltaXQ9IjEwIiBzdHJva2UtbGluZWNhcD0icm91bmQiIHN0cm9rZS13aWR0aD0iMCIgdHJhbnNmb3JtPSJtYXRyaXgoLjA2LDAsMCwtLjA2LDAsODQyKSIvPiYjeGE7PHBhdGggZD0iTTQ3NjUgMTE5NzggNDE3OCAxMTUzOCIgc3Ryb2tlPSIjMDAwMDAwIiBmaWxsPSJub25lIiBzdHJva2UtbGluZWpvaW49InJvdW5kIiBzdHJva2UtbGluZWNhcD0icm91bmQiIHN0cm9rZS13aWR0aD0iMTIiIHRyYW5zZm9ybT0ibWF0cml4KC4wNiwwLDAsLS4wNiwwLDg0MikiLz4mI3hhOzx0ZXh0IGZvbnQtZmFtaWx5PSJWZXJkYW5hIiBmb250LXNpemU9IjIyNy40MjM1NCIgdHJhbnNmb3JtPSJtYXRyaXgoLjA0ODAzMTA4OSAtLjAzNTk1ODUxNSAuMDM1OTU4NTE1IC4wNDgwMzEwODkgMCA4NDIpIiB4bWw6c3BhY2U9InByZXNlcnZlIj48dHNwYW4geD0iMTA1MDMuNzI3IDEwNjYxLjc4NiIgeT0iLTY4MDEuODc4NiI+UjM8L3RzcGFuPjx0c3BhbiB4PSIxMDgwNi40MjgiIHk9Ii02ODAxLjg3OCI+MTwvdHNwYW4+PC90ZXh0PiYjeGE7PHBhdGggZD0iTTI4NzMgMTA1NjEgNDA0NSAxMTQzOSIgc3Ryb2tlPSIjMDAwMDAwIiBmaWxsPSJub25lIiBzdHJva2UtbGluZWpvaW49InJvdW5kIiBzdHJva2UtbGluZWNhcD0icm91bmQiIHN0cm9rZS13aWR0aD0iMTIiIHRyYW5zZm9ybT0ibWF0cml4KC4wNiwwLDAsLS4wNiwwLDg0MikiLz4mI3hhOzxwYXRoIGQ9Ik00MTYxIDExNTYwIDQxOTQgMTE1MTYgNDA0NSAxMTQzOVoiIHRyYW5zZm9ybT0ibWF0cml4KC4wNiwwLDAsLS4wNiwwLDg0MikiLz4mI3hhOzxwYXRoIGQ9Ik00MTYxIDExNTYwIDQxOTQgMTE1MTYgNDA0NSAxMTQzOVoiIHN0cm9rZT0iIzAwMDAwMCIgZmlsbD0ibm9uZSIgc3Ryb2tlLWxpbmVqb2luPSJtaXRlciIgc3Ryb2tlLW1pdGVybGltaXQ9IjEwIiBzdHJva2UtbGluZWNhcD0icm91bmQiIHN0cm9rZS13aWR0aD0iMCIgdHJhbnNmb3JtPSJtYXRyaXgoLjA2LDAsMCwtLjA2LDAsODQyKSIvPiYjeGE7PHBhdGggZD0iTTUyODMgMTA1ODUgNDI3MSAxMDU3NSIgc3Ryb2tlPSIjMDAwMDAwIiBmaWxsPSJub25lIiBzdHJva2UtbGluZWpvaW49InJvdW5kIiBzdHJva2UtbGluZWNhcD0icm91bmQiIHN0cm9rZS13aWR0aD0iMTIiIHRyYW5zZm9ybT0ibWF0cml4KC4wNiwwLDAsLS4wNiwwLDg0MikiLz4mI3hhOzx0ZXh0IGZvbnQtZmFtaWx5PSJWZXJkYW5hIiBmb250LXNpemU9IjIyNy40MjM4MiIgdHJhbnNmb3JtPSJtYXRyaXgoLjA1OTk5Njc4OSAtLjAwMDYyMDk5NzggLjAwMDYyMDk5NzggLjA1OTk5Njc4OSAwIDg0MikiIHhtbDpzcGFjZT0icHJlc2VydmUiPjx0c3BhbiB4PSI0Njc1Ljk1MSA0ODM0LjAxMDkgNDk3OC42NTI1IDUxMjMuMjk0IDUyMDYuMDc2IiB5PSItMTA1OTkuMTcxIj5SMjYuMTwvdHNwYW4+PC90ZXh0PiYjeGE7PHBhdGggZD0iTTI4NzMgMTA1NjEgNDEwNiAxMDU3MyIgc3Ryb2tlPSIjMDAwMDAwIiBmaWxsPSJub25lIiBzdHJva2UtbGluZWpvaW49InJvdW5kIiBzdHJva2UtbGluZWNhcD0icm91bmQiIHN0cm9rZS13aWR0aD0iMTIiIHRyYW5zZm9ybT0ibWF0cml4KC4wNiwwLDAsLS4wNiwwLDg0MikiLz4mI3hhOzxwYXRoIGQ9Ik00MjcxIDEwNjAyVjEwNTQ3TDQxMDYgMTA1NzNaIiB0cmFuc2Zvcm09Im1hdHJpeCguMDYsMCwwLC0uMDYsMCw4NDIpIi8+JiN4YTs8cGF0aCBkPSJNNDI3MSAxMDYwMlYxMDU0N0w0MTA2IDEwNTczWiIgc3Ryb2tlPSIjMDAwMDAwIiBmaWxsPSJub25lIiBzdHJva2UtbGluZWpvaW49Im1pdGVyIiBzdHJva2UtbWl0ZXJsaW1pdD0iMTAiIHN0cm9rZS1saW5lY2FwPSJyb3VuZCIgc3Ryb2tlLXdpZHRoPSIwIiB0cmFuc2Zvcm09Im1hdHJpeCguMDYsMCwwLC0uMDYsMCw4NDIpIi8+JiN4YTs8cGF0aCBkPSJNNTEyNyAxMTYwNSA0MjgwIDExMjEzIiBzdHJva2U9IiMwMDAwMDAiIGZpbGw9Im5vbmUiIHN0cm9rZS1saW5lam9pbj0icm91bmQiIHN0cm9rZS1saW5lY2FwPSJyb3VuZCIgc3Ryb2tlLXdpZHRoPSIxMiIgdHJhbnNmb3JtPSJtYXRyaXgoLjA2LDAsMCwtLjA2LDAsODQyKSIvPiYjeGE7PHRleHQgZm9udC1mYW1pbHk9IlZlcmRhbmEiIGZvbnQtc2l6ZT0iMjI3LjQyMjEiIHRyYW5zZm9ybT0ibWF0cml4KC4wNTQ0NTg2MSAtLjAyNTE4NDQ5OCAuMDI1MTg0NDk4IC4wNTQ0NTg2MSAwIDg0MikiIHhtbDpzcGFjZT0icHJlc2VydmUiPjx0c3BhbiB4PSI4ODAwLjc5IiB5PSItODQ1MC4zOSI+UjwvdHNwYW4+PHRzcGFuIHg9Ijg5NTguODQ5IDkxMDMuNDg4IDkyNDguMTI5IDkzMzAuOTExIiB5PSItODQ1MC4zOTEiPjI5LjM8L3RzcGFuPjwvdGV4dD4mI3hhOzxwYXRoIGQ9Ik0yODczIDEwNTYxIDQxMzAgMTExNDMiIHN0cm9rZT0iIzAwMDAwMCIgZmlsbD0ibm9uZSIgc3Ryb2tlLWxpbmVqb2luPSJyb3VuZCIgc3Ryb2tlLWxpbmVjYXA9InJvdW5kIiBzdHJva2Utd2lkdGg9IjEyIiB0cmFuc2Zvcm09Im1hdHJpeCguMDYsMCwwLC0uMDYsMCw4NDIpIi8+JiN4YTs8cGF0aCBkPSJNNDI2OSAxMTIzOCA0MjkyIDExMTg4IDQxMzAgMTExNDNaIiB0cmFuc2Zvcm09Im1hdHJpeCguMDYsMCwwLC0uMDYsMCw4NDIpIi8+JiN4YTs8cGF0aCBkPSJNNDI2OSAxMTIzOCA0MjkyIDExMTg4IDQxMzAgMTExNDNaIiBzdHJva2U9IiMwMDAwMDAiIGZpbGw9Im5vbmUiIHN0cm9rZS1saW5lam9pbj0ibWl0ZXIiIHN0cm9rZS1taXRlcmxpbWl0PSIxMCIgc3Ryb2tlLWxpbmVjYXA9InJvdW5kIiBzdHJva2Utd2lkdGg9IjAiIHRyYW5zZm9ybT0ibWF0cml4KC4wNiwwLDAsLS4wNiwwLDg0MikiLz4mI3hhOzxwYXRoIGQ9Ik01Mjg5IDExMTE2IDQzNjMgMTA5MDMiIHN0cm9rZT0iIzAwMDAwMCIgZmlsbD0ibm9uZSIgc3Ryb2tlLWxpbmVqb2luPSJyb3VuZCIgc3Ryb2tlLWxpbmVjYXA9InJvdW5kIiBzdHJva2Utd2lkdGg9IjEyIiB0cmFuc2Zvcm09Im1hdHJpeCguMDYsMCwwLC0uMDYsMCw4NDIpIi8+JiN4YTs8dGV4dCBmb250LWZhbWlseT0iVmVyZGFuYSIgZm9udC1zaXplPSIyMjcuNDIzMzkiIHRyYW5zZm9ybT0ibWF0cml4KC4wNTg0NzU5MDYgLS4wMTM0Mzc1Nzc5IC4wMTM0Mzc1Nzc5IC4wNTg0NzU5MDYgMCA4NDIpIiB4bWw6c3BhY2U9InByZXNlcnZlIj48dHNwYW4geD0iNjkxOC41MDA3IiB5PSItOTcxOS40MjYiPlI8L3RzcGFuPjx0c3BhbiB4PSI3MDc2LjU1OTgiIHk9Ii05NzE5LjQyNSI+MjwvdHNwYW4+PHRzcGFuIHg9IjcyMjEuMjAwOSIgeT0iLTk3MTkuNDI0Ij44PC90c3Bhbj48dHNwYW4geD0iNzM2NS44NDI1IiB5PSItOTcxOS40MjUiPi48L3RzcGFuPjx0c3BhbiB4PSI3NDQ4LjYyNCIgeT0iLTk3MTkuNDI0Ij45PC90c3Bhbj48L3RleHQ+JiN4YTs8cGF0aCBkPSJNMjg3MyAxMDU2MSA0MjAyIDEwODY2IiBzdHJva2U9IiMwMDAwMDAiIGZpbGw9Im5vbmUiIHN0cm9rZS1saW5lam9pbj0icm91bmQiIHN0cm9rZS1saW5lY2FwPSJyb3VuZCIgc3Ryb2tlLXdpZHRoPSIxMiIgdHJhbnNmb3JtPSJtYXRyaXgoLjA2LDAsMCwtLjA2LDAsODQyKSIvPiYjeGE7PHBhdGggZD0iTTQzNTcgMTA5MzAgNDM2OSAxMDg3NiA0MjAyIDEwODY2WiIgdHJhbnNmb3JtPSJtYXRyaXgoLjA2LDAsMCwtLjA2LDAsODQyKSIvPiYjeGE7PHBhdGggZD0iTTQzNTcgMTA5MzAgNDM2OSAxMDg3NiA0MjAyIDEwODY2WiIgc3Ryb2tlPSIjMDAwMDAwIiBmaWxsPSJub25lIiBzdHJva2UtbGluZWpvaW49Im1pdGVyIiBzdHJva2UtbWl0ZXJsaW1pdD0iMTAiIHN0cm9rZS1saW5lY2FwPSJyb3VuZCIgc3Ryb2tlLXdpZHRoPSIwIiB0cmFuc2Zvcm09Im1hdHJpeCguMDYsMCwwLC0uMDYsMCw4NDIpIi8+JiN4YTs8cGF0aCBkPSJNODE3OCAxMjU0NSA3ODMzIDExOTI3IiBzdHJva2U9IiMwMDAwMDAiIGZpbGw9Im5vbmUiIHN0cm9rZS1saW5lam9pbj0icm91bmQiIHN0cm9rZS1saW5lY2FwPSJyb3VuZCIgc3Ryb2tlLXdpZHRoPSIxMiIgdHJhbnNmb3JtPSJtYXRyaXgoLjA2LDAsMCwtLjA2LDAsODQyKSIvPiYjeGE7PHRleHQgZm9udC1mYW1pbHk9IlZlcmRhbmEiIGZvbnQtc2l6ZT0iMjI3LjQyMjg4IiB0cmFuc2Zvcm09Im1hdHJpeCguMDI5MjcyODE2IC0uMDUyMzc0NjI5IC4wNTIzNzQ2MjkgLjAyOTI3MjgxNiAwIDg0MikiIHhtbDpzcGFjZT0icHJlc2VydmUiPjx0c3BhbiB4PSIxNDQ0Mi42ODUiIHk9Ijk0OS4zNTI1NiI+UjwvdHNwYW4+PHRzcGFuIHg9IjE0NjAwLjc0MyAxNDc0NS4zODUiIHk9Ijk0OS4zNTIwOCI+Mjk8L3RzcGFuPjwvdGV4dD4mI3hhOzxwYXRoIGQ9Ik03MDc4IDEwNTc1IDc3NTMgMTE3ODMiIHN0cm9rZT0iIzAwMDAwMCIgZmlsbD0ibm9uZSIgc3Ryb2tlLWxpbmVqb2luPSJyb3VuZCIgc3Ryb2tlLWxpbmVjYXA9InJvdW5kIiBzdHJva2Utd2lkdGg9IjEyIiB0cmFuc2Zvcm09Im1hdHJpeCguMDYsMCwwLC0uMDYsMCw4NDIpIi8+JiN4YTs8cGF0aCBkPSJNNzgwOSAxMTk0MCA3ODU3IDExOTE0IDc3NTMgMTE3ODNaIiB0cmFuc2Zvcm09Im1hdHJpeCguMDYsMCwwLC0uMDYsMCw4NDIpIi8+JiN4YTs8cGF0aCBkPSJNNzgwOSAxMTk0MCA3ODU3IDExOTE0IDc3NTMgMTE3ODNaIiBzdHJva2U9IiMwMDAwMDAiIGZpbGw9Im5vbmUiIHN0cm9rZS1saW5lam9pbj0ibWl0ZXIiIHN0cm9rZS1taXRlcmxpbWl0PSIxMCIgc3Ryb2tlLWxpbmVjYXA9InJvdW5kIiBzdHJva2Utd2lkdGg9IjAiIHRyYW5zZm9ybT0ibWF0cml4KC4wNiwwLDAsLS4wNiwwLDg0MikiLz4mI3hhOzxnPiYjeGE7PHBhdGggZD0iTTcxMjAuNjg0OCAxMTM2MS44NjlDNzA5Mi41ODE3IDExMzYzLjM3NyA3MDY0LjQxODcgMTEzNjMuMzc3IDcwMzYuMzE1NiAxMTM2MS44NjkiIHN0cm9rZT0iIzAwMDAwMCIgZmlsbD0ibm9uZSIgc3Ryb2tlLWxpbmVqb2luPSJyb3VuZCIgc3Ryb2tlLWxpbmVjYXA9InJvdW5kIiBzdHJva2Utd2lkdGg9IjEyIiB0cmFuc2Zvcm09Im1hdHJpeCguMDYsMCwwLC0uMDYsMCw4NDIpIi8+JiN4YTs8cGF0aCBkPSJNNzA3OCAxMTMyMVYxMTQwNSIgc3Ryb2tlPSIjMDAwMDAwIiBmaWxsPSJub25lIiBzdHJva2UtbGluZWpvaW49InJvdW5kIiBzdHJva2UtbGluZWNhcD0icm91bmQiIHN0cm9rZS13aWR0aD0iMTIiIHRyYW5zZm9ybT0ibWF0cml4KC4wNiwwLDAsLS4wNiwwLDg0MikiLz4mI3hhOzxwYXRoIGQ9Ik03MDc4IDEwOTg1VjExMjM2IiBzdHJva2U9IiMwMDAwMDAiIGZpbGw9Im5vbmUiIHN0cm9rZS1saW5lam9pbj0icm91bmQiIHN0cm9rZS1saW5lY2FwPSJyb3VuZCIgc3Ryb2tlLXdpZHRoPSIxMiIgdHJhbnNmb3JtPSJtYXRyaXgoLjA2LDAsMCwtLjA2LDAsODQyKSIvPiYjeGE7PHBhdGggZD0iTTcwNzggMTE0ODlWMTE3NDEiIHN0cm9rZT0iIzAwMDAwMCIgZmlsbD0ibm9uZSIgc3Ryb2tlLWxpbmVqb2luPSJyb3VuZCIgc3Ryb2tlLWxpbmVjYXA9InJvdW5kIiBzdHJva2Utd2lkdGg9IjEyIiB0cmFuc2Zvcm09Im1hdHJpeCguMDYsMCwwLC0uMDYsMCw4NDIpIi8+JiN4YTs8cGF0aCBkPSJNNzAzNi4zMTU2IDk3ODkuMTMxQzcwNjQuNDE4NyA5Nzg3LjYyMyA3MDkyLjU4MTcgOTc4Ny42MjMgNzEyMC42ODQ4IDk3ODkuMTMxIiBzdHJva2U9IiMwMDAwMDAiIGZpbGw9Im5vbmUiIHN0cm9rZS1saW5lam9pbj0icm91bmQiIHN0cm9rZS1saW5lY2FwPSJyb3VuZCIgc3Ryb2tlLXdpZHRoPSIxMiIgdHJhbnNmb3JtPSJtYXRyaXgoLjA2LDAsMCwtLjA2LDAsODQyKSIvPiYjeGE7PHBhdGggZD0iTTcwNzggOTgzMFY5NzQ2IiBzdHJva2U9IiMwMDAwMDAiIGZpbGw9Im5vbmUiIHN0cm9rZS1saW5lam9pbj0icm91bmQiIHN0cm9rZS1saW5lY2FwPSJyb3VuZCIgc3Ryb2tlLXdpZHRoPSIxMiIgdHJhbnNmb3JtPSJtYXRyaXgoLjA2LDAsMCwtLjA2LDAsODQyKSIvPiYjeGE7PHBhdGggZD0iTTcwNzggMTAxNjZWOTkxNSIgc3Ryb2tlPSIjMDAwMDAwIiBmaWxsPSJub25lIiBzdHJva2UtbGluZWpvaW49InJvdW5kIiBzdHJva2UtbGluZWNhcD0icm91bmQiIHN0cm9rZS13aWR0aD0iMTIiIHRyYW5zZm9ybT0ibWF0cml4KC4wNiwwLDAsLS4wNiwwLDg0MikiLz4mI3hhOzxwYXRoIGQ9Ik03MDc4IDk2NjJWOTQxMCIgc3Ryb2tlPSIjMDAwMDAwIiBmaWxsPSJub25lIiBzdHJva2UtbGluZWpvaW49InJvdW5kIiBzdHJva2UtbGluZWNhcD0icm91bmQiIHN0cm9rZS13aWR0aD0iMTIiIHRyYW5zZm9ybT0ibWF0cml4KC4wNiwwLDAsLS4wNiwwLDg0MikiLz4mI3hhOzxwYXRoIGQ9Ik02Mzc2LjM4MDYgMTAyMTguODcxQzYzODkuMTI1NyAxMDE5My43NzggNjQwMy4yMDY3IDEwMTY5LjM4OCA2NDE4LjU2MyAxMDE0NS44MDQiIHN0cm9rZT0iIzAwMDAwMCIgZmlsbD0ibm9uZSIgc3Ryb2tlLWxpbmVqb2luPSJyb3VuZCIgc3Ryb2tlLWxpbmVjYXA9InJvdW5kIiBzdHJva2Utd2lkdGg9IjEyIiB0cmFuc2Zvcm09Im1hdHJpeCguMDYsMCwwLC0uMDYsMCw4NDIpIi8+JiN4YTs8cGF0aCBkPSJNNjQzMyAxMDIwMyA2MzYwIDEwMTYxIiBzdHJva2U9IiMwMDAwMDAiIGZpbGw9Im5vbmUiIHN0cm9rZS1saW5lam9pbj0icm91bmQiIHN0cm9rZS1saW5lY2FwPSJyb3VuZCIgc3Ryb2tlLXdpZHRoPSIxMiIgdHJhbnNmb3JtPSJtYXRyaXgoLjA2LDAsMCwtLjA2LDAsODQyKSIvPiYjeGE7PHBhdGggZD0iTTY3MjQgMTAzNzEgNjUwNiAxMDI0NSIgc3Ryb2tlPSIjMDAwMDAwIiBmaWxsPSJub25lIiBzdHJva2UtbGluZWpvaW49InJvdW5kIiBzdHJva2UtbGluZWNhcD0icm91bmQiIHN0cm9rZS13aWR0aD0iMTIiIHRyYW5zZm9ybT0ibWF0cml4KC4wNiwwLDAsLS4wNiwwLDg0MikiLz4mI3hhOzxwYXRoIGQ9Ik02Mjg3IDEwMTE5IDYwNjkgOTk5MyIgc3Ryb2tlPSIjMDAwMDAwIiBmaWxsPSJub25lIiBzdHJva2UtbGluZWpvaW49InJvdW5kIiBzdHJva2UtbGluZWNhcD0icm91bmQiIHN0cm9rZS13aWR0aD0iMTIiIHRyYW5zZm9ybT0ibWF0cml4KC4wNiwwLDAsLS4wNiwwLDg0MikiLz4mI3hhOzxwYXRoIGQ9Ik02NDE4LjU2MyAxMTAwNS4xOTZDNjQwMy4yMDY3IDEwOTgxLjYxMiA2Mzg5LjEyNTcgMTA5NTcuMjIyIDYzNzYuMzgwNiAxMDkzMi4xMjkiIHN0cm9rZT0iIzAwMDAwMCIgZmlsbD0ibm9uZSIgc3Ryb2tlLWxpbmVqb2luPSJyb3VuZCIgc3Ryb2tlLWxpbmVjYXA9InJvdW5kIiBzdHJva2Utd2lkdGg9IjEyIiB0cmFuc2Zvcm09Im1hdHJpeCguMDYsMCwwLC0uMDYsMCw4NDIpIi8+JiN4YTs8cGF0aCBkPSJNNjQzMyAxMDk0OCA2MzYwIDEwOTkwIiBzdHJva2U9IiMwMDAwMDAiIGZpbGw9Im5vbmUiIHN0cm9rZS1saW5lam9pbj0icm91bmQiIHN0cm9rZS1saW5lY2FwPSJyb3VuZCIgc3Ryb2tlLXdpZHRoPSIxMiIgdHJhbnNmb3JtPSJtYXRyaXgoLjA2LDAsMCwtLjA2LDAsODQyKSIvPiYjeGE7PHBhdGggZD0iTTY3MjQgMTA3ODAgNjUwNiAxMDkwNiIgc3Ryb2tlPSIjMDAwMDAwIiBmaWxsPSJub25lIiBzdHJva2UtbGluZWpvaW49InJvdW5kIiBzdHJva2UtbGluZWNhcD0icm91bmQiIHN0cm9rZS13aWR0aD0iMTIiIHRyYW5zZm9ybT0ibWF0cml4KC4wNiwwLDAsLS4wNiwwLDg0MikiLz4mI3hhOzxwYXRoIGQ9Ik02Mjg3IDExMDMyIDYwNjkgMTExNTgiIHN0cm9rZT0iIzAwMDAwMCIgZmlsbD0ibm9uZSIgc3Ryb2tlLWxpbmVqb2luPSJyb3VuZCIgc3Ryb2tlLWxpbmVjYXA9InJvdW5kIiBzdHJva2Utd2lkdGg9IjEyIiB0cmFuc2Zvcm09Im1hdHJpeCguMDYsMCwwLC0uMDYsMCw4NDIpIi8+JiN4YTs8cGF0aCBkPSJNNzc4MC42MTk4IDEwOTMyLjEyOUM3NzY3Ljg3NDcgMTA5NTcuMjIyIDc3NTMuNzkzNyAxMDk4MS42MTIgNzczOC40MzcgMTEwMDUuMTk2IiBzdHJva2U9IiMwMDAwMDAiIGZpbGw9Im5vbmUiIHN0cm9rZS1saW5lam9pbj0icm91bmQiIHN0cm9rZS1saW5lY2FwPSJyb3VuZCIgc3Ryb2tlLXdpZHRoPSIxMiIgdHJhbnNmb3JtPSJtYXRyaXgoLjA2LDAsMCwtLjA2LDAsODQyKSIvPiYjeGE7PHBhdGggZD0iTTc3MjQgMTA5NDggNzc5NyAxMDk5MCIgc3Ryb2tlPSIjMDAwMDAwIiBmaWxsPSJub25lIiBzdHJva2UtbGluZWpvaW49InJvdW5kIiBzdHJva2UtbGluZWNhcD0icm91bmQiIHN0cm9rZS13aWR0aD0iMTIiIHRyYW5zZm9ybT0ibWF0cml4KC4wNiwwLDAsLS4wNiwwLDg0MikiLz4mI3hhOzxwYXRoIGQ9Ik03NDMzIDEwNzgwIDc2NTEgMTA5MDYiIHN0cm9rZT0iIzAwMDAwMCIgZmlsbD0ibm9uZSIgc3Ryb2tlLWxpbmVqb2luPSJyb3VuZCIgc3Ryb2tlLWxpbmVjYXA9InJvdW5kIiBzdHJva2Utd2lkdGg9IjEyIiB0cmFuc2Zvcm09Im1hdHJpeCguMDYsMCwwLC0uMDYsMCw4NDIpIi8+JiN4YTs8cGF0aCBkPSJNNzg3MCAxMTAzMiA4MDg4IDExMTU4IiBzdHJva2U9IiMwMDAwMDAiIGZpbGw9Im5vbmUiIHN0cm9rZS1saW5lam9pbj0icm91bmQiIHN0cm9rZS1saW5lY2FwPSJyb3VuZCIgc3Ryb2tlLXdpZHRoPSIxMiIgdHJhbnNmb3JtPSJtYXRyaXgoLjA2LDAsMCwtLjA2LDAsODQyKSIvPiYjeGE7PHBhdGggZD0iTTc3MzguNDM3IDEwMTQ1LjgwNEM3NzUzLjc5MzcgMTAxNjkuMzg4IDc3NjcuODc0NyAxMDE5My43NzggNzc4MC42MTk4IDEwMjE4Ljg3MSIgc3Ryb2tlPSIjMDAwMDAwIiBmaWxsPSJub25lIiBzdHJva2UtbGluZWpvaW49InJvdW5kIiBzdHJva2UtbGluZWNhcD0icm91bmQiIHN0cm9rZS13aWR0aD0iMTIiIHRyYW5zZm9ybT0ibWF0cml4KC4wNiwwLDAsLS4wNiwwLDg0MikiLz4mI3hhOzxwYXRoIGQ9Ik03NzI0IDEwMjAzIDc3OTcgMTAxNjEiIHN0cm9rZT0iIzAwMDAwMCIgZmlsbD0ibm9uZSIgc3Ryb2tlLWxpbmVqb2luPSJyb3VuZCIgc3Ryb2tlLWxpbmVjYXA9InJvdW5kIiBzdHJva2Utd2lkdGg9IjEyIiB0cmFuc2Zvcm09Im1hdHJpeCguMDYsMCwwLC0uMDYsMCw4NDIpIi8+JiN4YTs8cGF0aCBkPSJNNzQzMyAxMDM3MSA3NjUxIDEwMjQ1IiBzdHJva2U9IiMwMDAwMDAiIGZpbGw9Im5vbmUiIHN0cm9rZS1saW5lam9pbj0icm91bmQiIHN0cm9rZS1saW5lY2FwPSJyb3VuZCIgc3Ryb2tlLXdpZHRoPSIxMiIgdHJhbnNmb3JtPSJtYXRyaXgoLjA2LDAsMCwtLjA2LDAsODQyKSIvPiYjeGE7PHBhdGggZD0iTTc4NzAgMTAxMTkgODA4OCA5OTkzIiBzdHJva2U9IiMwMDAwMDAiIGZpbGw9Im5vbmUiIHN0cm9rZS1saW5lam9pbj0icm91bmQiIHN0cm9rZS1saW5lY2FwPSJyb3VuZCIgc3Ryb2tlLXdpZHRoPSIxMiIgdHJhbnNmb3JtPSJtYXRyaXgoLjA2LDAsMCwtLjA2LDAsODQyKSIvPiYjeGE7PHBhdGggZD0iTTc2ODggMTEwNzMgNzY1NCAxMTExMiA3NjE4IDExMTQ5IDc1NzkgMTExODQgNzUzOCAxMTIxNSA3NDk0IDExMjQ0IDc0NDkgMTEyNzAgNzQwMyAxMTI5MyA3MzU1IDExMzEzIDczMDYgMTEzMjkgNzI1NiAxMTM0MyA3MjA1IDExMzUzIiBzdHJva2U9IiMwMDAwMDAiIGZpbGw9Im5vbmUiIHN0cm9rZS1saW5lam9pbj0icm91bmQiIHN0cm9rZS1saW5lY2FwPSJyb3VuZCIgc3Ryb2tlLXdpZHRoPSIxMiIgdHJhbnNmb3JtPSJtYXRyaXgoLjA2LDAsMCwtLjA2LDAsODQyKSIvPiYjeGE7PHBhdGggZD0iTTY5NTIgMTEzNTMgNjkwMSAxMTM0MyA2ODUxIDExMzI5IDY4MDIgMTEzMTMgNjc1NCAxMTI5MyA2NzA3IDExMjcwIDY2NjMgMTEyNDQgNjYxOSAxMTIxNSA2NTc4IDExMTg0IDY1MzkgMTExNDkgNjUwMyAxMTExMiA2NDY4IDExMDczIiBzdHJva2U9IiMwMDAwMDAiIGZpbGw9Im5vbmUiIHN0cm9rZS1saW5lam9pbj0icm91bmQiIHN0cm9rZS1saW5lY2FwPSJyb3VuZCIgc3Ryb2tlLXdpZHRoPSIxMiIgdHJhbnNmb3JtPSJtYXRyaXgoLjA2LDAsMCwtLjA2LDAsODQyKSIvPiYjeGE7PHBhdGggZD0iTTYzNDIgMTA4NTUgNjMyNiAxMDgwNiA2MzEyIDEwNzU2IDYzMDIgMTA3MDUgNjI5NSAxMDY1MyA2MjkyIDEwNjAxVjEwNTUwTDYyOTUgMTA0OTggNjMwMiAxMDQ0NiA2MzEyIDEwMzk1IDYzMjYgMTAzNDUgNjM0MiAxMDI5NiIgc3Ryb2tlPSIjMDAwMDAwIiBmaWxsPSJub25lIiBzdHJva2UtbGluZWpvaW49InJvdW5kIiBzdHJva2UtbGluZWNhcD0icm91bmQiIHN0cm9rZS13aWR0aD0iMTIiIHRyYW5zZm9ybT0ibWF0cml4KC4wNiwwLDAsLS4wNiwwLDg0MikiLz4mI3hhOzxwYXRoIGQ9Ik02NDY4IDEwMDc4IDY1MDMgMTAwMzkgNjUzOSAxMDAwMiA2NTc4IDk5NjcgNjYxOSA5OTM2IDY2NjMgOTkwNyA2NzA3IDk4ODEgNjc1NCA5ODU4IDY4MDIgOTgzOCA2ODUxIDk4MjIgNjkwMSA5ODA4IDY5NTIgOTc5OCIgc3Ryb2tlPSIjMDAwMDAwIiBmaWxsPSJub25lIiBzdHJva2UtbGluZWpvaW49InJvdW5kIiBzdHJva2UtbGluZWNhcD0icm91bmQiIHN0cm9rZS13aWR0aD0iMTIiIHRyYW5zZm9ybT0ibWF0cml4KC4wNiwwLDAsLS4wNiwwLDg0MikiLz4mI3hhOzxwYXRoIGQ9Ik03MjA1IDk3OTggNzI1NiA5ODA4IDczMDYgOTgyMiA3MzU1IDk4MzggNzQwMyA5ODU4IDc0NDkgOTg4MSA3NDk0IDk5MDcgNzUzOCA5OTM2IDc1NzkgOTk2NyA3NjE4IDEwMDAyIDc2NTQgMTAwMzkgNzY4OCAxMDA3OCIgc3Ryb2tlPSIjMDAwMDAwIiBmaWxsPSJub25lIiBzdHJva2UtbGluZWpvaW49InJvdW5kIiBzdHJva2UtbGluZWNhcD0icm91bmQiIHN0cm9rZS13aWR0aD0iMTIiIHRyYW5zZm9ybT0ibWF0cml4KC4wNiwwLDAsLS4wNiwwLDg0MikiLz4mI3hhOzxwYXRoIGQ9Ik03ODE1IDEwMjk2IDc4MzEgMTAzNDUgNzg0NSAxMDM5NSA3ODU1IDEwNDQ2IDc4NjIgMTA0OTggNzg2NSAxMDU1MFYxMDYwMUw3ODYyIDEwNjUzIDc4NTUgMTA3MDUgNzg0NSAxMDc1NiA3ODMxIDEwODA2IDc4MTUgMTA4NTUiIHN0cm9rZT0iIzAwMDAwMCIgZmlsbD0ibm9uZSIgc3Ryb2tlLWxpbmVqb2luPSJyb3VuZCIgc3Ryb2tlLWxpbmVjYXA9InJvdW5kIiBzdHJva2Utd2lkdGg9IjEyIiB0cmFuc2Zvcm09Im1hdHJpeCguMDYsMCwwLC0uMDYsMCw4NDIpIi8+JiN4YTs8cGF0aCBkPSJNNzAzNiAxMDU3NUg3MTIxIiBzdHJva2U9IiMwMDAwMDAiIGZpbGw9Im5vbmUiIHN0cm9rZS1saW5lam9pbj0icm91bmQiIHN0cm9rZS1saW5lY2FwPSJyb3VuZCIgc3Ryb2tlLXdpZHRoPSIxMiIgdHJhbnNmb3JtPSJtYXRyaXgoLjA2LDAsMCwtLjA2LDAsODQyKSIvPiYjeGE7PHBhdGggZD0iTTcwNzggMTA1MzNWMTA2MTgiIHN0cm9rZT0iIzAwMDAwMCIgZmlsbD0ibm9uZSIgc3Ryb2tlLWxpbmVqb2luPSJyb3VuZCIgc3Ryb2tlLWxpbmVjYXA9InJvdW5kIiBzdHJva2Utd2lkdGg9IjEyIiB0cmFuc2Zvcm09Im1hdHJpeCguMDYsMCwwLC0uMDYsMCw4NDIpIi8+JiN4YTs8cGF0aCBkPSJNNjU5OCAxMDU3NUg2OTUyIiBzdHJva2U9IiMwMDAwMDAiIGZpbGw9Im5vbmUiIHN0cm9rZS1saW5lam9pbj0icm91bmQiIHN0cm9rZS1saW5lY2FwPSJyb3VuZCIgc3Ryb2tlLXdpZHRoPSIxMiIgdHJhbnNmb3JtPSJtYXRyaXgoLjA2LDAsMCwtLjA2LDAsODQyKSIvPiYjeGE7PHBhdGggZD0iTTcyMDUgMTA1NzVINzU1OSIgc3Ryb2tlPSIjMDAwMDAwIiBmaWxsPSJub25lIiBzdHJva2UtbGluZWpvaW49InJvdW5kIiBzdHJva2UtbGluZWNhcD0icm91bmQiIHN0cm9rZS13aWR0aD0iMTIiIHRyYW5zZm9ybT0ibWF0cml4KC4wNiwwLDAsLS4wNiwwLDg0MikiLz4mI3hhOzxwYXRoIGQ9Ik03MDc4IDEwMDk1VjEwNDQ5IiBzdHJva2U9IiMwMDAwMDAiIGZpbGw9Im5vbmUiIHN0cm9rZS1saW5lam9pbj0icm91bmQiIHN0cm9rZS1saW5lY2FwPSJyb3VuZCIgc3Ryb2tlLXdpZHRoPSIxMiIgdHJhbnNmb3JtPSJtYXRyaXgoLjA2LDAsMCwtLjA2LDAsODQyKSIvPiYjeGE7PHBhdGggZD0iTTcwNzggMTA3MDJWMTEwNTYiIHN0cm9rZT0iIzAwMDAwMCIgZmlsbD0ibm9uZSIgc3Ryb2tlLWxpbmVqb2luPSJyb3VuZCIgc3Ryb2tlLWxpbmVjYXA9InJvdW5kIiBzdHJva2Utd2lkdGg9IjEyIiB0cmFuc2Zvcm09Im1hdHJpeCguMDYsMCwwLC0uMDYsMCw4NDIpIi8+JiN4YTs8L2c+JiN4YTs8Zz4mI3hhOzxwYXRoIGQ9Ik02OTc5IDEwNTc1SDYwMTgiIHN0cm9rZT0iIzAwMDAwMCIgZmlsbD0ibm9uZSIgc3Ryb2tlLWxpbmVqb2luPSJyb3VuZCIgc3Ryb2tlLWxpbmVjYXA9InJvdW5kIiBzdHJva2Utd2lkdGg9IjEyIiB0cmFuc2Zvcm09Im1hdHJpeCguMDYsMCwwLC0uMDYsMCw4NDIpIi8+JiN4YTs8cGF0aCBkPSJNNjk3OSA5Nzg4SDYwMTgiIHN0cm9rZT0iIzAwMDAwMCIgZmlsbD0ibm9uZSIgc3Ryb2tlLWxpbmVqb2luPSJyb3VuZCIgc3Ryb2tlLWxpbmVjYXA9InJvdW5kIiBzdHJva2Utd2lkdGg9IjEyIiB0cmFuc2Zvcm09Im1hdHJpeCguMDYsMCwwLC0uMDYsMCw4NDIpIi8+JiN4YTs8cGF0aCBkPSJNNjExNyAxMDQxMFY5OTUzIiBzdHJva2U9IiMwMDAwMDAiIGZpbGw9Im5vbmUiIHN0cm9rZS1saW5lam9pbj0icm91bmQiIHN0cm9rZS1saW5lY2FwPSJyb3VuZCIgc3Ryb2tlLXdpZHRoPSIxMiIgdHJhbnNmb3JtPSJtYXRyaXgoLjA2LDAsMCwtLjA2LDAsODQyKSIvPiYjeGE7PHBhdGggZD0iTTYwOTAgMTA0MTBINjE0NUw2MTE3IDEwNTc1WiIgdHJhbnNmb3JtPSJtYXRyaXgoLjA2LDAsMCwtLjA2LDAsODQyKSIvPiYjeGE7PHBhdGggZD0iTTYwOTAgMTA0MTBINjE0NUw2MTE3IDEwNTc1WiIgc3Ryb2tlPSIjMDAwMDAwIiBmaWxsPSJub25lIiBzdHJva2UtbGluZWpvaW49Im1pdGVyIiBzdHJva2UtbWl0ZXJsaW1pdD0iMTAiIHN0cm9rZS1saW5lY2FwPSJyb3VuZCIgc3Ryb2tlLXdpZHRoPSIwIiB0cmFuc2Zvcm09Im1hdHJpeCguMDYsMCwwLC0uMDYsMCw4NDIpIi8+JiN4YTs8cGF0aCBkPSJNNjA5MCA5OTUzSDYxNDVMNjExNyA5Nzg4WiIgdHJhbnNmb3JtPSJtYXRyaXgoLjA2LDAsMCwtLjA2LDAsODQyKSIvPiYjeGE7PHBhdGggZD0iTTYwOTAgOTk1M0g2MTQ1TDYxMTcgOTc4OFoiIHN0cm9rZT0iIzAwMDAwMCIgZmlsbD0ibm9uZSIgc3Ryb2tlLWxpbmVqb2luPSJtaXRlciIgc3Ryb2tlLW1pdGVybGltaXQ9IjEwIiBzdHJva2UtbGluZWNhcD0icm91bmQiIHN0cm9rZS13aWR0aD0iMCIgdHJhbnNmb3JtPSJtYXRyaXgoLjA2LDAsMCwtLjA2LDAsODQyKSIvPiYjeGE7PHRleHQgZm9udC1mYW1pbHk9IlZlcmRhbmEiIGZvbnQtc2l6ZT0iMjI3LjQyMyIgdHJhbnNmb3JtPSJtYXRyaXgoMCAtLjA2IC4wNiAwIDAgODQyKSIgeG1sOnNwYWNlPSJwcmVzZXJ2ZSI+PHRzcGFuIHg9Ijk5MTUgMTAwNTkuNjQxIDEwMjA0LjI4MSAxMDI4Ny4wNjMiIHk9IjYwNDgiPjE2Ljc8L3RzcGFuPjwvdGV4dD4mI3hhOzxwYXRoIGQ9Ik04NTc4IDEyMzU5IDc5NDQgMTEyODEiIHN0cm9rZT0iIzAwMDAwMCIgZmlsbD0ibm9uZSIgc3Ryb2tlLWxpbmVqb2luPSJyb3VuZCIgc3Ryb2tlLWxpbmVjYXA9InJvdW5kIiBzdHJva2Utd2lkdGg9IjEyIiB0cmFuc2Zvcm09Im1hdHJpeCguMDYsMCwwLC0uMDYsMCw4NDIpIi8+JiN4YTs8dGV4dCBmb250LWZhbWlseT0iVmVyZGFuYSIgZm9udC1zaXplPSIyMjcuNDIyNDEiIHRyYW5zZm9ybT0ibWF0cml4KC4wMzA0MzU2ODQgLS4wNTE3MDc1MzcgLjA1MTcwNzUzNyAuMDMwNDM1Njg0IDAgODQyKSIgeG1sOnNwYWNlPSJwcmVzZXJ2ZSI+PHRzcGFuIHg9IjE0Mjc3Ljk4MiAxNDQzNi4wNDEgMTQ1ODAuNjgyIiB5PSIxMDU0LjAwMiI+UjQuPC90c3Bhbj48dHNwYW4geD0iMTQ2NjMuNDY1IDE0ODA4LjEwNSIgeT0iMTA1NC4wMDI1Ij4xNTwvdHNwYW4+PC90ZXh0PiYjeGE7PHBhdGggZD0iTTc3NjAgMTA5NjkgNzg2MCAxMTEzOSIgc3Ryb2tlPSIjMDAwMDAwIiBmaWxsPSJub25lIiBzdHJva2UtbGluZWpvaW49InJvdW5kIiBzdHJva2UtbGluZWNhcD0icm91bmQiIHN0cm9rZS13aWR0aD0iMTIiIHRyYW5zZm9ybT0ibWF0cml4KC4wNiwwLDAsLS4wNiwwLDg0MikiLz4mI3hhOzxwYXRoIGQ9Ik03OTIwIDExMjk1IDc5NjggMTEyNjcgNzg2MCAxMTEzOVoiIHRyYW5zZm9ybT0ibWF0cml4KC4wNiwwLDAsLS4wNiwwLDg0MikiLz4mI3hhOzxwYXRoIGQ9Ik03OTIwIDExMjk1IDc5NjggMTEyNjcgNzg2MCAxMTEzOVoiIHN0cm9rZT0iIzAwMDAwMCIgZmlsbD0ibm9uZSIgc3Ryb2tlLWxpbmVqb2luPSJtaXRlciIgc3Ryb2tlLW1pdGVybGltaXQ9IjEwIiBzdHJva2UtbGluZWNhcD0icm91bmQiIHN0cm9rZS13aWR0aD0iMCIgdHJhbnNmb3JtPSJtYXRyaXgoLjA2LDAsMCwtLjA2LDAsODQyKSIvPiYjeGE7PHBhdGggZD0iTTYwODQgMTIyOTYgNjgwMCAxMTA1NyIgc3Ryb2tlPSIjMDAwMDAwIiBmaWxsPSJub25lIiBzdHJva2UtbGluZWpvaW49InJvdW5kIiBzdHJva2UtbGluZWNhcD0icm91bmQiIHN0cm9rZS13aWR0aD0iMTIiIHRyYW5zZm9ybT0ibWF0cml4KC4wNiwwLDAsLS4wNiwwLDg0MikiLz4mI3hhOzx0ZXh0IGZvbnQtZmFtaWx5PSJWZXJkYW5hIiBmb250LXNpemU9IjIyNy40MjM1NyIgdHJhbnNmb3JtPSJtYXRyaXgoLjAzMDA4MjcyNSAuMDUxOTEzNjcgLS4wNTE5MTM2NyAuMDMwMDgyNzI1IDAgODQyKSIgeG1sOnNwYWNlPSJwcmVzZXJ2ZSI+PHRzcGFuIHg9Ii03NTQ0Ljc0NiAtNzM4Ni42ODYgLTcyNDIuMDQ1IiB5PSItMTE0OTguNDQ1Ij5SOC48L3RzcGFuPjx0c3BhbiB4PSItNzE1OS4yNjMiIHk9Ii0xMTQ5OC40NDYiPjI8L3RzcGFuPjwvdGV4dD4mI3hhOzxwYXRoIGQ9Ik03MDc4IDEwNTc1IDY4ODMgMTA5MTQiIHN0cm9rZT0iIzAwMDAwMCIgZmlsbD0ibm9uZSIgc3Ryb2tlLWxpbmVqb2luPSJyb3VuZCIgc3Ryb2tlLWxpbmVjYXA9InJvdW5kIiBzdHJva2Utd2lkdGg9IjEyIiB0cmFuc2Zvcm09Im1hdHJpeCguMDYsMCwwLC0uMDYsMCw4NDIpIi8+JiN4YTs8cGF0aCBkPSJNNjgyNCAxMTA3MSA2Nzc2IDExMDQzIDY4ODMgMTA5MTRaIiB0cmFuc2Zvcm09Im1hdHJpeCguMDYsMCwwLC0uMDYsMCw4NDIpIi8+JiN4YTs8cGF0aCBkPSJNNjgyNCAxMTA3MSA2Nzc2IDExMDQzIDY4ODMgMTA5MTRaIiBzdHJva2U9IiMwMDAwMDAiIGZpbGw9Im5vbmUiIHN0cm9rZS1saW5lam9pbj0ibWl0ZXIiIHN0cm9rZS1taXRlcmxpbWl0PSIxMCIgc3Ryb2tlLWxpbmVjYXA9InJvdW5kIiBzdHJva2Utd2lkdGg9IjAiIHRyYW5zZm9ybT0ibWF0cml4KC4wNiwwLDAsLS4wNiwwLDg0MikiLz4mI3hhOzxwYXRoIGQ9Ik01OTA3IDg2NzkgNjgyNiAxMDE2NyIgc3Ryb2tlPSIjMDAwMDAwIiBmaWxsPSJub25lIiBzdHJva2UtbGluZWpvaW49InJvdW5kIiBzdHJva2UtbGluZWNhcD0icm91bmQiIHN0cm9rZS13aWR0aD0iMTIiIHRyYW5zZm9ybT0ibWF0cml4KC4wNiwwLDAsLS4wNiwwLDg0MikiLz4mI3hhOzx0ZXh0IGZvbnQtZmFtaWx5PSJWZXJkYW5hIiBmb250LXNpemU9IjIyNy40MjM2IiB0cmFuc2Zvcm09Im1hdHJpeCguMDMxNTU4NzIgLS4wNTEwMjk4NjYgLjA1MTAyOTg2NiAuMDMxNTU4NzIgMCA4NDIpIiB4bWw6c3BhY2U9InByZXNlcnZlIj48dHNwYW4geD0iMTA1MzEuNTc3IiB5PSIzODkuOTA3NyI+UjwvdHNwYW4+PHRzcGFuIHg9IjEwNjg5LjYzNiAxMDgzNC4yNzciIHk9IjM4OS45MDcyNCI+Ni48L3RzcGFuPjx0c3BhbiB4PSIxMDkxNy4wNjEgMTEwNjEuNzAxIiB5PSIzODkuOTA2NzUiPjY2PC90c3Bhbj48L3RleHQ+JiN4YTs8cGF0aCBkPSJNNzA3OCAxMDU3NSA2OTEzIDEwMzA3IiBzdHJva2U9IiMwMDAwMDAiIGZpbGw9Im5vbmUiIHN0cm9rZS1saW5lam9pbj0icm91bmQiIHN0cm9rZS1saW5lY2FwPSJyb3VuZCIgc3Ryb2tlLXdpZHRoPSIxMiIgdHJhbnNmb3JtPSJtYXRyaXgoLjA2LDAsMCwtLjA2LDAsODQyKSIvPiYjeGE7PHBhdGggZD0iTTY4MDMgMTAxODEgNjg1MCAxMDE1MiA2OTEzIDEwMzA3WiIgdHJhbnNmb3JtPSJtYXRyaXgoLjA2LDAsMCwtLjA2LDAsODQyKSIvPiYjeGE7PHBhdGggZD0iTTY4MDMgMTAxODEgNjg1MCAxMDE1MiA2OTEzIDEwMzA3WiIgc3Ryb2tlPSIjMDAwMDAwIiBmaWxsPSJub25lIiBzdHJva2UtbGluZWpvaW49Im1pdGVyIiBzdHJva2UtbWl0ZXJsaW1pdD0iMTAiIHN0cm9rZS1saW5lY2FwPSJyb3VuZCIgc3Ryb2tlLXdpZHRoPSIwIiB0cmFuc2Zvcm09Im1hdHJpeCguMDYsMCwwLC0uMDYsMCw4NDIpIi8+JiN4YTs8cGF0aCBkPSJNNzE4MSAxMDE1NyA3NDcxIDkyNjYiIHN0cm9rZT0iIzAwMDAwMCIgZmlsbD0ibm9uZSIgc3Ryb2tlLWxpbmVqb2luPSJyb3VuZCIgc3Ryb2tlLWxpbmVjYXA9InJvdW5kIiBzdHJva2Utd2lkdGg9IjEyIiB0cmFuc2Zvcm09Im1hdHJpeCguMDYsMCwwLC0uMDYsMCw4NDIpIi8+JiN4YTs8cGF0aCBkPSJNNzI0MSAxMDE3NiA3NTMxIDkyODYiIHN0cm9rZT0iIzAwMDAwMCIgZmlsbD0ibm9uZSIgc3Ryb2tlLWxpbmVqb2luPSJyb3VuZCIgc3Ryb2tlLWxpbmVjYXA9InJvdW5kIiBzdHJva2Utd2lkdGg9IjEyIiB0cmFuc2Zvcm09Im1hdHJpeCguMDYsMCwwLC0uMDYsMCw4NDIpIi8+JiN4YTs8cGF0aCBkPSJNNzI4MyA5MzEwIDcxMjYgOTI1OSIgc3Ryb2tlPSIjMDAwMDAwIiBmaWxsPSJub25lIiBzdHJva2UtbGluZWpvaW49InJvdW5kIiBzdHJva2UtbGluZWNhcD0icm91bmQiIHN0cm9rZS13aWR0aD0iMTIiIHRyYW5zZm9ybT0ibWF0cml4KC4wNiwwLDAsLS4wNiwwLDg0MikiLz4mI3hhOzxwYXRoIGQ9Ik03NjU3IDk0MzEgNzgxNCA5NDgyIiBzdHJva2U9IiMwMDAwMDAiIGZpbGw9Im5vbmUiIHN0cm9rZS1saW5lam9pbj0icm91bmQiIHN0cm9rZS1saW5lY2FwPSJyb3VuZCIgc3Ryb2tlLXdpZHRoPSIxMiIgdHJhbnNmb3JtPSJtYXRyaXgoLjA2LDAsMCwtLjA2LDAsODQyKSIvPiYjeGE7PHBhdGggZD0iTTc0NDAgOTM2MSA3NTAwIDkzODAiIHN0cm9rZT0iIzAwMDAwMCIgZmlsbD0ibm9uZSIgc3Ryb2tlLWxpbmVqb2luPSJyb3VuZCIgc3Ryb2tlLWxpbmVjYXA9InJvdW5kIiBzdHJva2Utd2lkdGg9IjEyIiB0cmFuc2Zvcm09Im1hdHJpeCguMDYsMCwwLC0uMDYsMCw4NDIpIi8+JiN4YTs8cGF0aCBkPSJNNzI3NCA5MzM2IDcyOTEgOTI4MyA3NDQwIDkzNjFaIiB0cmFuc2Zvcm09Im1hdHJpeCguMDYsMCwwLC0uMDYsMCw4NDIpIi8+JiN4YTs8cGF0aCBkPSJNNzI3NCA5MzM2IDcyOTEgOTI4MyA3NDQwIDkzNjFaIiBzdHJva2U9IiMwMDAwMDAiIGZpbGw9Im5vbmUiIHN0cm9rZS1saW5lam9pbj0ibWl0ZXIiIHN0cm9rZS1taXRlcmxpbWl0PSIxMCIgc3Ryb2tlLWxpbmVjYXA9InJvdW5kIiBzdHJva2Utd2lkdGg9IjAiIHRyYW5zZm9ybT0ibWF0cml4KC4wNiwwLDAsLS4wNiwwLDg0MikiLz4mI3hhOzxwYXRoIGQ9Ik03NjQ5IDk0NTggNzY2NiA5NDA1IDc1MDAgOTM4MFoiIHRyYW5zZm9ybT0ibWF0cml4KC4wNiwwLDAsLS4wNiwwLDg0MikiLz4mI3hhOzxwYXRoIGQ9Ik03NjQ5IDk0NTggNzY2NiA5NDA1IDc1MDAgOTM4MFoiIHN0cm9rZT0iIzAwMDAwMCIgZmlsbD0ibm9uZSIgc3Ryb2tlLWxpbmVqb2luPSJtaXRlciIgc3Ryb2tlLW1pdGVybGltaXQ9IjEwIiBzdHJva2UtbGluZWNhcD0icm91bmQiIHN0cm9rZS13aWR0aD0iMCIgdHJhbnNmb3JtPSJtYXRyaXgoLjA2LDAsMCwtLjA2LDAsODQyKSIvPiYjeGE7PHRleHQgZm9udC1mYW1pbHk9IlZlcmRhbmEiIGZvbnQtc2l6ZT0iMjI3LjQyMzU0IiB0cmFuc2Zvcm09Im1hdHJpeCguMDU3MDgwODY2IC0uMDE4NDg3MTU4IC4wMTg0ODcxNTggLjA1NzA4MDg2NiAwIDg0MikiIHhtbDpzcGFjZT0icHJlc2VydmUiPjx0c3BhbiB4PSI5NzI4LjM1NDkgOTg3Mi45OTYgOTk1NS43NzgiIHk9Ii02NjgyLjYzMiI+MS4zPC90c3Bhbj48dHNwYW4geD0iMTAxMDAuNDIiIHk9Ii02NjgyLjYzMTUiPjM8L3RzcGFuPjwvdGV4dD4mI3hhOzxwYXRoIGQ9Ik03MTEwIDEwMzQ0VjEwNTAzIiBzdHJva2U9IiMwMDAwMDAiIGZpbGw9Im5vbmUiIHN0cm9rZS1saW5lam9pbj0icm91bmQiIHN0cm9rZS1saW5lY2FwPSJyb3VuZCIgc3Ryb2tlLXdpZHRoPSIxMiIgdHJhbnNmb3JtPSJtYXRyaXgoLjA2LDAsMCwtLjA2LDAsODQyKSIvPiYjeGE7PHBhdGggZD0iTTcxNTEgMTAzNTBWMTA1MDMiIHN0cm9rZT0iIzAwMDAwMCIgZmlsbD0ibm9uZSIgc3Ryb2tlLWxpbmVqb2luPSJyb3VuZCIgc3Ryb2tlLWxpbmVjYXA9InJvdW5kIiBzdHJva2Utd2lkdGg9IjEyIiB0cmFuc2Zvcm09Im1hdHJpeCguMDYsMCwwLC0uMDYsMCw4NDIpIi8+JiN4YTs8cGF0aCBkPSJNNjk0NSAxMDQwNEg2Nzc5IiBzdHJva2U9IiMwMDAwMDAiIGZpbGw9Im5vbmUiIHN0cm9rZS1saW5lam9pbj0icm91bmQiIHN0cm9rZS1saW5lY2FwPSJyb3VuZCIgc3Ryb2tlLXdpZHRoPSIxMiIgdHJhbnNmb3JtPSJtYXRyaXgoLjA2LDAsMCwtLjA2LDAsODQyKSIvPiYjeGE7PHBhdGggZD0iTTczMTYgMTA0MDRIODQ1NyIgc3Ryb2tlPSIjMDAwMDAwIiBmaWxsPSJub25lIiBzdHJva2UtbGluZWpvaW49InJvdW5kIiBzdHJva2UtbGluZWNhcD0icm91bmQiIHN0cm9rZS13aWR0aD0iMTIiIHRyYW5zZm9ybT0ibWF0cml4KC4wNiwwLDAsLS4wNiwwLDg0MikiLz4mI3hhOzxwYXRoIGQ9Ik03MTEwIDEwNDA0SDcxNTEiIHN0cm9rZT0iIzAwMDAwMCIgZmlsbD0ibm9uZSIgc3Ryb2tlLWxpbmVqb2luPSJyb3VuZCIgc3Ryb2tlLWxpbmVjYXA9InJvdW5kIiBzdHJva2Utd2lkdGg9IjEyIiB0cmFuc2Zvcm09Im1hdHJpeCguMDYsMCwwLC0uMDYsMCw4NDIpIi8+JiN4YTs8cGF0aCBkPSJNNjk0NSAxMDQzMVYxMDM3Nkw3MTEwIDEwNDA0WiIgdHJhbnNmb3JtPSJtYXRyaXgoLjA2LDAsMCwtLjA2LDAsODQyKSIvPiYjeGE7PHBhdGggZD0iTTY5NDUgMTA0MzFWMTAzNzZMNzExMCAxMDQwNFoiIHN0cm9rZT0iIzAwMDAwMCIgZmlsbD0ibm9uZSIgc3Ryb2tlLWxpbmVqb2luPSJtaXRlciIgc3Ryb2tlLW1pdGVybGltaXQ9IjEwIiBzdHJva2UtbGluZWNhcD0icm91bmQiIHN0cm9rZS13aWR0aD0iMCIgdHJhbnNmb3JtPSJtYXRyaXgoLjA2LDAsMCwtLjA2LDAsODQyKSIvPiYjeGE7PHBhdGggZD0iTTczMTYgMTA0MzFWMTAzNzZMNzE1MSAxMDQwNFoiIHRyYW5zZm9ybT0ibWF0cml4KC4wNiwwLDAsLS4wNiwwLDg0MikiLz4mI3hhOzxwYXRoIGQ9Ik03MzE2IDEwNDMxVjEwMzc2TDcxNTEgMTA0MDRaIiBzdHJva2U9IiMwMDAwMDAiIGZpbGw9Im5vbmUiIHN0cm9rZS1saW5lam9pbj0ibWl0ZXIiIHN0cm9rZS1taXRlcmxpbWl0PSIxMCIgc3Ryb2tlLWxpbmVjYXA9InJvdW5kIiBzdHJva2Utd2lkdGg9IjAiIHRyYW5zZm9ybT0ibWF0cml4KC4wNiwwLDAsLS4wNiwwLDg0MikiLz4mI3hhOzx0ZXh0IGZvbnQtZmFtaWx5PSJWZXJkYW5hIiBmb250LXNpemU9IjIyNy40MjMiIHRyYW5zZm9ybT0ibWF0cml4KC4wNiAwIC0wIC4wNiAwIDg0MikiIHhtbDpzcGFjZT0icHJlc2VydmUiPjx0c3BhbiB4PSI3ODg2IDgwMzAuNjQxIDgxMTMuNDIzIDgyNTguMDYzIiB5PSItMTA0NzQiPjAuODY8L3RzcGFuPjwvdGV4dD4mI3hhOzwvZz4mI3hhOzxnPiYjeGE7PHBhdGggZD0iTTEzNzkgNzc0MyAxNDA4IDc3NzIiIHN0cm9rZT0iIzAwMDAwMCIgZmlsbD0ibm9uZSIgc3Ryb2tlLWxpbmVqb2luPSJyb3VuZCIgc3Ryb2tlLWxpbmVjYXA9InJvdW5kIiBzdHJva2Utd2lkdGg9IjEyIiB0cmFuc2Zvcm09Im1hdHJpeCguMDYsMCwwLC0uMDYsMCw4NDIpIi8+JiN4YTs8cGF0aCBkPSJNMTQ4NCA3NjM1IDE1MTcgNzY2OSIgc3Ryb2tlPSIjMDAwMDAwIiBmaWxsPSJub25lIiBzdHJva2UtbGluZWpvaW49InJvdW5kIiBzdHJva2UtbGluZWNhcD0icm91bmQiIHN0cm9rZS13aWR0aD0iMTIiIHRyYW5zZm9ybT0ibWF0cml4KC4wNiwwLDAsLS4wNiwwLDg0MikiLz4mI3hhOzxwYXRoIGQ9Ik0xNTkwIDc1MjkgMTYxMiA3NTUxIiBzdHJva2U9IiMwMDAwMDAiIGZpbGw9Im5vbmUiIHN0cm9rZS1saW5lam9pbj0icm91bmQiIHN0cm9rZS1saW5lY2FwPSJyb3VuZCIgc3Ryb2tlLXdpZHRoPSIxMiIgdHJhbnNmb3JtPSJtYXRyaXgoLjA2LDAsMCwtLjA2LDAsODQyKSIvPiYjeGE7PHBhdGggZD0iTTE3MTYgNzQ0MyAxNzUwIDc0NzgiIHN0cm9rZT0iIzAwMDAwMCIgZmlsbD0ibm9uZSIgc3Ryb2tlLWxpbmVqb2luPSJyb3VuZCIgc3Ryb2tlLWxpbmVjYXA9InJvdW5kIiBzdHJva2Utd2lkdGg9IjEyIiB0cmFuc2Zvcm09Im1hdHJpeCguMDYsMCwwLC0uMDYsMCw4NDIpIi8+JiN4YTs8cGF0aCBkPSJNMTkyOCA3NDQzIDE5NjIgNzQ3OCIgc3Ryb2tlPSIjMDAwMDAwIiBmaWxsPSJub25lIiBzdHJva2UtbGluZWpvaW49InJvdW5kIiBzdHJva2UtbGluZWNhcD0icm91bmQiIHN0cm9rZS13aWR0aD0iMTIiIHRyYW5zZm9ybT0ibWF0cml4KC4wNiwwLDAsLS4wNiwwLDg0MikiLz4mI3hhOzxwYXRoIGQ9Ik0yMTQwIDc0NDMgMjE3NSA3NDc4IiBzdHJva2U9IiMwMDAwMDAiIGZpbGw9Im5vbmUiIHN0cm9rZS1saW5lam9pbj0icm91bmQiIHN0cm9rZS1saW5lY2FwPSJyb3VuZCIgc3Ryb2tlLXdpZHRoPSIxMiIgdHJhbnNmb3JtPSJtYXRyaXgoLjA2LDAsMCwtLjA2LDAsODQyKSIvPiYjeGE7PHBhdGggZD0iTTIzNTIgNzQ0MyAyMzg3IDc0NzgiIHN0cm9rZT0iIzAwMDAwMCIgZmlsbD0ibm9uZSIgc3Ryb2tlLWxpbmVqb2luPSJyb3VuZCIgc3Ryb2tlLWxpbmVjYXA9InJvdW5kIiBzdHJva2Utd2lkdGg9IjEyIiB0cmFuc2Zvcm09Im1hdHJpeCguMDYsMCwwLC0uMDYsMCw4NDIpIi8+JiN4YTs8cGF0aCBkPSJNMjU2NCA3NDQzIDI1OTkgNzQ3OCIgc3Ryb2tlPSIjMDAwMDAwIiBmaWxsPSJub25lIiBzdHJva2UtbGluZWpvaW49InJvdW5kIiBzdHJva2UtbGluZWNhcD0icm91bmQiIHN0cm9rZS13aWR0aD0iMTIiIHRyYW5zZm9ybT0ibWF0cml4KC4wNiwwLDAsLS4wNiwwLDg0MikiLz4mI3hhOzxwYXRoIGQ9Ik0yNzc2IDc0NDMgMjgxMSA3NDc4IiBzdHJva2U9IiMwMDAwMDAiIGZpbGw9Im5vbmUiIHN0cm9rZS1saW5lam9pbj0icm91bmQiIHN0cm9rZS1saW5lY2FwPSJyb3VuZCIgc3Ryb2tlLXdpZHRoPSIxMiIgdHJhbnNmb3JtPSJtYXRyaXgoLjA2LDAsMCwtLjA2LDAsODQyKSIvPiYjeGE7PHBhdGggZD0iTTI5ODggNzQ0MyAzMDIzIDc0NzgiIHN0cm9rZT0iIzAwMDAwMCIgZmlsbD0ibm9uZSIgc3Ryb2tlLWxpbmVqb2luPSJyb3VuZCIgc3Ryb2tlLWxpbmVjYXA9InJvdW5kIiBzdHJva2Utd2lkdGg9IjEyIiB0cmFuc2Zvcm09Im1hdHJpeCguMDYsMCwwLC0uMDYsMCw4NDIpIi8+JiN4YTs8cGF0aCBkPSJNMzIwMSA3NDQzIDMyMzUgNzQ3OCIgc3Ryb2tlPSIjMDAwMDAwIiBmaWxsPSJub25lIiBzdHJva2UtbGluZWpvaW49InJvdW5kIiBzdHJva2UtbGluZWNhcD0icm91bmQiIHN0cm9rZS13aWR0aD0iMTIiIHRyYW5zZm9ybT0ibWF0cml4KC4wNiwwLDAsLS4wNiwwLDg0MikiLz4mI3hhOzxwYXRoIGQ9Ik0zNDEzIDc0NDMgMzQ0NyA3NDc4IiBzdHJva2U9IiMwMDAwMDAiIGZpbGw9Im5vbmUiIHN0cm9rZS1saW5lam9pbj0icm91bmQiIHN0cm9rZS1saW5lY2FwPSJyb3VuZCIgc3Ryb2tlLXdpZHRoPSIxMiIgdHJhbnNmb3JtPSJtYXRyaXgoLjA2LDAsMCwtLjA2LDAsODQyKSIvPiYjeGE7PHBhdGggZD0iTTM2MjUgNzQ0MyAzNjU5IDc0NzgiIHN0cm9rZT0iIzAwMDAwMCIgZmlsbD0ibm9uZSIgc3Ryb2tlLWxpbmVqb2luPSJyb3VuZCIgc3Ryb2tlLWxpbmVjYXA9InJvdW5kIiBzdHJva2Utd2lkdGg9IjEyIiB0cmFuc2Zvcm09Im1hdHJpeCguMDYsMCwwLC0uMDYsMCw4NDIpIi8+JiN4YTs8cGF0aCBkPSJNMzgzNyA3NDQzIDM4NzIgNzQ3OCIgc3Ryb2tlPSIjMDAwMDAwIiBmaWxsPSJub25lIiBzdHJva2UtbGluZWpvaW49InJvdW5kIiBzdHJva2UtbGluZWNhcD0icm91bmQiIHN0cm9rZS13aWR0aD0iMTIiIHRyYW5zZm9ybT0ibWF0cml4KC4wNiwwLDAsLS4wNiwwLDg0MikiLz4mI3hhOzxwYXRoIGQ9Ik00MDQ5IDc0NDMgNDA4NCA3NDc4IiBzdHJva2U9IiMwMDAwMDAiIGZpbGw9Im5vbmUiIHN0cm9rZS1saW5lam9pbj0icm91bmQiIHN0cm9rZS1saW5lY2FwPSJyb3VuZCIgc3Ryb2tlLXdpZHRoPSIxMiIgdHJhbnNmb3JtPSJtYXRyaXgoLjA2LDAsMCwtLjA2LDAsODQyKSIvPiYjeGE7PHBhdGggZD0iTTQxMTUgNzUwOSA0MzY5IDc3NjMiIHN0cm9rZT0iIzAwMDAwMCIgZmlsbD0ibm9uZSIgc3Ryb2tlLWxpbmVqb2luPSJyb3VuZCIgc3Ryb2tlLWxpbmVjYXA9InJvdW5kIiBzdHJva2Utd2lkdGg9IjEyIiB0cmFuc2Zvcm09Im1hdHJpeCguMDYsMCwwLC0uMDYsMCw4NDIpIi8+JiN4YTs8L2c+JiN4YTs8Zz4mI3hhOzxwYXRoIGQ9Ik0xMjU5IDEwNTYxSDE0OTUiIHN0cm9rZT0iIzAwMDAwMCIgZmlsbD0ibm9uZSIgc3Ryb2tlLWxpbmVqb2luPSJyb3VuZCIgc3Ryb2tlLWxpbmVjYXA9InJvdW5kIiBzdHJva2Utd2lkdGg9IjI0IiB0cmFuc2Zvcm09Im1hdHJpeCguMDYsMCwwLC0uMDYsMCw4NDIpIi8+JiN4YTs8cGF0aCBkPSJNNDQ4NyAxMDU2MUg0MjUxIiBzdHJva2U9IiMwMDAwMDAiIGZpbGw9Im5vbmUiIHN0cm9rZS1saW5lam9pbj0icm91bmQiIHN0cm9rZS1saW5lY2FwPSJyb3VuZCIgc3Ryb2tlLXdpZHRoPSIyNCIgdHJhbnNmb3JtPSJtYXRyaXgoLjA2LDAsMCwtLjA2LDAsODQyKSIvPiYjeGE7PHBhdGggZD0iTTE0OTUgMTA1NjFIMjE5OCIgc3Ryb2tlPSIjMDAwMDAwIiBmaWxsPSJub25lIiBzdHJva2UtbGluZWpvaW49InJvdW5kIiBzdHJva2UtbGluZWNhcD0icm91bmQiIHN0cm9rZS13aWR0aD0iMTIiIHRyYW5zZm9ybT0ibWF0cml4KC4wNiwwLDAsLS4wNiwwLDg0MikiLz4mI3hhOzxwYXRoIGQ9Ik0yMzEwIDEwNTYxSDI0MjMiIHN0cm9rZT0iIzAwMDAwMCIgZmlsbD0ibm9uZSIgc3Ryb2tlLWxpbmVqb2luPSJyb3VuZCIgc3Ryb2tlLWxpbmVjYXA9InJvdW5kIiBzdHJva2Utd2lkdGg9IjEyIiB0cmFuc2Zvcm09Im1hdHJpeCguMDYsMCwwLC0uMDYsMCw4NDIpIi8+JiN4YTs8cGF0aCBkPSJNMjUzNSAxMDU2MUgzMjEwIiBzdHJva2U9IiMwMDAwMDAiIGZpbGw9Im5vbmUiIHN0cm9rZS1saW5lam9pbj0icm91bmQiIHN0cm9rZS1saW5lY2FwPSJyb3VuZCIgc3Ryb2tlLXdpZHRoPSIxMiIgdHJhbnNmb3JtPSJtYXRyaXgoLjA2LDAsMCwtLjA2LDAsODQyKSIvPiYjeGE7PHBhdGggZD0iTTMzMjMgMTA1NjFIMzQzNSIgc3Ryb2tlPSIjMDAwMDAwIiBmaWxsPSJub25lIiBzdHJva2UtbGluZWpvaW49InJvdW5kIiBzdHJva2UtbGluZWNhcD0icm91bmQiIHN0cm9rZS13aWR0aD0iMTIiIHRyYW5zZm9ybT0ibWF0cml4KC4wNiwwLDAsLS4wNiwwLDg0MikiLz4mI3hhOzxwYXRoIGQ9Ik0zNTQ4IDEwNTYxSDQyNTEiIHN0cm9rZT0iIzAwMDAwMCIgZmlsbD0ibm9uZSIgc3Ryb2tlLWxpbmVqb2luPSJyb3VuZCIgc3Ryb2tlLWxpbmVjYXA9InJvdW5kIiBzdHJva2Utd2lkdGg9IjEyIiB0cmFuc2Zvcm09Im1hdHJpeCguMDYsMCwwLC0uMDYsMCw4NDIpIi8+JiN4YTs8cGF0aCBkPSJNMTM3NyAxMDMyNVYxMDA4OSIgc3Ryb2tlPSIjMDAwMDAwIiBmaWxsPSJub25lIiBzdHJva2UtbGluZWpvaW49InJvdW5kIiBzdHJva2UtbGluZWNhcD0icm91bmQiIHN0cm9rZS13aWR0aD0iMTIiIHRyYW5zZm9ybT0ibWF0cml4KC4wNiwwLDAsLS4wNiwwLDg0MikiLz4mI3hhOzxwYXRoIGQ9Ik0xMzM3IDEwMzI1IDEzNzcgMTA1NjEgMTQxNiAxMDMyNVoiIHRyYW5zZm9ybT0ibWF0cml4KC4wNiwwLDAsLS4wNiwwLDg0MikiLz4mI3hhOzxwYXRoIGQ9Ik0xMzM3IDEwMzI1IDEzNzcgMTA1NjEgMTQxNiAxMDMyNVoiIHN0cm9rZT0iIzAwMDAwMCIgZmlsbD0ibm9uZSIgc3Ryb2tlLWxpbmVqb2luPSJtaXRlciIgc3Ryb2tlLW1pdGVybGltaXQ9IjEwIiBzdHJva2UtbGluZWNhcD0icm91bmQiIHN0cm9rZS13aWR0aD0iMCIgdHJhbnNmb3JtPSJtYXRyaXgoLjA2LDAsMCwtLjA2LDAsODQyKSIvPiYjeGE7PHBhdGggZD0iTTQzNjkgMTAzMjVWMTAwODkiIHN0cm9rZT0iIzAwMDAwMCIgZmlsbD0ibm9uZSIgc3Ryb2tlLWxpbmVqb2luPSJyb3VuZCIgc3Ryb2tlLWxpbmVjYXA9InJvdW5kIiBzdHJva2Utd2lkdGg9IjEyIiB0cmFuc2Zvcm09Im1hdHJpeCguMDYsMCwwLC0uMDYsMCw4NDIpIi8+JiN4YTs8cGF0aCBkPSJNNDMyOSAxMDMyNSA0MzY5IDEwNTYxIDQ0MDggMTAzMjVaIiB0cmFuc2Zvcm09Im1hdHJpeCguMDYsMCwwLC0uMDYsMCw4NDIpIi8+JiN4YTs8cGF0aCBkPSJNNDMyOSAxMDMyNSA0MzY5IDEwNTYxIDQ0MDggMTAzMjVaIiBzdHJva2U9IiMwMDAwMDAiIGZpbGw9Im5vbmUiIHN0cm9rZS1saW5lam9pbj0ibWl0ZXIiIHN0cm9rZS1taXRlcmxpbWl0PSIxMCIgc3Ryb2tlLWxpbmVjYXA9InJvdW5kIiBzdHJva2Utd2lkdGg9IjAiIHRyYW5zZm9ybT0ibWF0cml4KC4wNiwwLDAsLS4wNiwwLDg0MikiLz4mI3hhOzwvZz4mI3hhOzwvZz4mI3hhOzxnIGNsaXAtcGF0aD0idXJsKCNjbGlwXzcpIj4mI3hhOzxnPiYjeGE7PHRleHQgZm9udC1mYW1pbHk9IkFyaWFsTVQiIGZvbnQtc2l6ZT0iMzI5Ljk4OCIgdHJhbnNmb3JtPSJtYXRyaXgoLjA2IDAgLTAgLjA2IDAgODQyKSIgeG1sOnNwYWNlPSJwcmVzZXJ2ZSI+PHRzcGFuIHg9IjExNjQiIHk9Ii0xMDQ0MyI+4oCJPC90c3Bhbj48L3RleHQ+JiN4YTs8L2c+JiN4YTs8L2c+JiN4YTs8ZyBjbGlwLXBhdGg9InVybCgjY2xpcF84KSI+JiN4YTs8dGV4dCBmb250LWZhbWlseT0iQXJpYWxNVCIgZm9udC1zaXplPSIzMjkuOTg4IiB0cmFuc2Zvcm09Im1hdHJpeCguMDYgMCAtMCAuMDYgMCA4NDIpIiB4bWw6c3BhY2U9InByZXNlcnZlIj48dHNwYW4geD0iNDU4MSIgeT0iLTEwNDQzIj7igIk8L3RzcGFuPjwvdGV4dD4mI3hhOzxnPiYjeGE7PHBhdGggZD0iTTE0MTkgNzY0NUgxMTkxIiBzdHJva2U9IiMwMDAwMDAiIGZpbGw9Im5vbmUiIHN0cm9rZS1saW5lam9pbj0icm91bmQiIHN0cm9rZS1saW5lY2FwPSJyb3VuZCIgc3Ryb2tlLXdpZHRoPSIxMiIgdHJhbnNmb3JtPSJtYXRyaXgoLjA2LDAsMCwtLjA2LDAsODQyKSIvPiYjeGE7PHBhdGggZD0iTTE1NTMgNzQ3OEgxMTkxIiBzdHJva2U9IiMwMDAwMDAiIGZpbGw9Im5vbmUiIHN0cm9rZS1saW5lam9pbj0icm91bmQiIHN0cm9rZS1saW5lY2FwPSJyb3VuZCIgc3Ryb2tlLXdpZHRoPSIxMiIgdHJhbnNmb3JtPSJtYXRyaXgoLjA2LDAsMCwtLjA2LDAsODQyKSIvPiYjeGE7PHBhdGggZD0iTTEyOTAgNzgxMFY3OTc2IiBzdHJva2U9IiMwMDAwMDAiIGZpbGw9Im5vbmUiIHN0cm9rZS1saW5lam9pbj0icm91bmQiIHN0cm9rZS1saW5lY2FwPSJyb3VuZCIgc3Ryb2tlLXdpZHRoPSIxMiIgdHJhbnNmb3JtPSJtYXRyaXgoLjA2LDAsMCwtLjA2LDAsODQyKSIvPiYjeGE7PHBhdGggZD0iTTEyOTAgNzMxMlY3MTQ3IiBzdHJva2U9IiMwMDAwMDAiIGZpbGw9Im5vbmUiIHN0cm9rZS1saW5lam9pbj0icm91bmQiIHN0cm9rZS1saW5lY2FwPSJyb3VuZCIgc3Ryb2tlLXdpZHRoPSIxMiIgdHJhbnNmb3JtPSJtYXRyaXgoLjA2LDAsMCwtLjA2LDAsODQyKSIvPiYjeGE7PHBhdGggZD0iTTEyOTAgNzY0NVY3NDc4IiBzdHJva2U9IiMwMDAwMDAiIGZpbGw9Im5vbmUiIHN0cm9rZS1saW5lam9pbj0icm91bmQiIHN0cm9rZS1saW5lY2FwPSJyb3VuZCIgc3Ryb2tlLXdpZHRoPSIxMiIgdHJhbnNmb3JtPSJtYXRyaXgoLjA2LDAsMCwtLjA2LDAsODQyKSIvPiYjeGE7PHBhdGggZD0iTTEyNjMgNzgxMEgxMzE4TDEyOTAgNzY0NVoiIHRyYW5zZm9ybT0ibWF0cml4KC4wNiwwLDAsLS4wNiwwLDg0MikiLz4mI3hhOzxwYXRoIGQ9Ik0xMjYzIDc4MTBIMTMxOEwxMjkwIDc2NDVaIiBzdHJva2U9IiMwMDAwMDAiIGZpbGw9Im5vbmUiIHN0cm9rZS1saW5lam9pbj0ibWl0ZXIiIHN0cm9rZS1taXRlcmxpbWl0PSIxMCIgc3Ryb2tlLWxpbmVjYXA9InJvdW5kIiBzdHJva2Utd2lkdGg9IjAiIHRyYW5zZm9ybT0ibWF0cml4KC4wNiwwLDAsLS4wNiwwLDg0MikiLz4mI3hhOzxwYXRoIGQ9Ik0xMjYzIDczMTJIMTMxOEwxMjkwIDc0NzhaIiB0cmFuc2Zvcm09Im1hdHJpeCguMDYsMCwwLC0uMDYsMCw4NDIpIi8+JiN4YTs8cGF0aCBkPSJNMTI2MyA3MzEySDEzMThMMTI5MCA3NDc4WiIgc3Ryb2tlPSIjMDAwMDAwIiBmaWxsPSJub25lIiBzdHJva2UtbGluZWpvaW49Im1pdGVyIiBzdHJva2UtbWl0ZXJsaW1pdD0iMTAiIHN0cm9rZS1saW5lY2FwPSJyb3VuZCIgc3Ryb2tlLXdpZHRoPSIwIiB0cmFuc2Zvcm09Im1hdHJpeCguMDYsMCwwLC0uMDYsMCw4NDIpIi8+JiN4YTs8dGV4dCBmb250LWZhbWlseT0iVmVyZGFuYSIgZm9udC1zaXplPSIyMjcuNDIzIiB0cmFuc2Zvcm09Im1hdHJpeCgwIC0uMDYgLjA2IDAgMCA4NDIpIiB4bWw6c3BhY2U9InByZXNlcnZlIj48dHNwYW4geD0iNzM3NCA3NTE4LjY0MSA3NjAxLjQyMyIgeT0iMTIyMSI+My41PC90c3Bhbj48L3RleHQ+JiN4YTs8cGF0aCBkPSJNNDMyNiA3NjY3SDUxMzEiIHN0cm9rZT0iIzAwMDAwMCIgZmlsbD0ibm9uZSIgc3Ryb2tlLWxpbmVqb2luPSJyb3VuZCIgc3Ryb2tlLWxpbmVjYXA9InJvdW5kIiBzdHJva2Utd2lkdGg9IjEyIiB0cmFuc2Zvcm09Im1hdHJpeCguMDYsMCwwLC0uMDYsMCw4NDIpIi8+JiN4YTs8cGF0aCBkPSJNNDQ0NiA3ODIxSDUxMzEiIHN0cm9rZT0iIzAwMDAwMCIgZmlsbD0ibm9uZSIgc3Ryb2tlLWxpbmVqb2luPSJyb3VuZCIgc3Ryb2tlLWxpbmVjYXA9InJvdW5kIiBzdHJva2Utd2lkdGg9IjEyIiB0cmFuc2Zvcm09Im1hdHJpeCguMDYsMCwwLC0uMDYsMCw4NDIpIi8+JiN4YTs8cGF0aCBkPSJNNTAzMSA3NTAyVjczMzYiIHN0cm9rZT0iIzAwMDAwMCIgZmlsbD0ibm9uZSIgc3Ryb2tlLWxpbmVqb2luPSJyb3VuZCIgc3Ryb2tlLWxpbmVjYXA9InJvdW5kIiBzdHJva2Utd2lkdGg9IjEyIiB0cmFuc2Zvcm09Im1hdHJpeCguMDYsMCwwLC0uMDYsMCw4NDIpIi8+JiN4YTs8cGF0aCBkPSJNNTAzMSA3OTg2VjgxNTIiIHN0cm9rZT0iIzAwMDAwMCIgZmlsbD0ibm9uZSIgc3Ryb2tlLWxpbmVqb2luPSJyb3VuZCIgc3Ryb2tlLWxpbmVjYXA9InJvdW5kIiBzdHJva2Utd2lkdGg9IjEyIiB0cmFuc2Zvcm09Im1hdHJpeCguMDYsMCwwLC0uMDYsMCw4NDIpIi8+JiN4YTs8cGF0aCBkPSJNNTAzMSA3NjY3Vjc4MjEiIHN0cm9rZT0iIzAwMDAwMCIgZmlsbD0ibm9uZSIgc3Ryb2tlLWxpbmVqb2luPSJyb3VuZCIgc3Ryb2tlLWxpbmVjYXA9InJvdW5kIiBzdHJva2Utd2lkdGg9IjEyIiB0cmFuc2Zvcm09Im1hdHJpeCguMDYsMCwwLC0uMDYsMCw4NDIpIi8+JiN4YTs8cGF0aCBkPSJNNTAwNCA3NTAySDUwNTlMNTAzMSA3NjY3WiIgdHJhbnNmb3JtPSJtYXRyaXgoLjA2LDAsMCwtLjA2LDAsODQyKSIvPiYjeGE7PHBhdGggZD0iTTUwMDQgNzUwMkg1MDU5TDUwMzEgNzY2N1oiIHN0cm9rZT0iIzAwMDAwMCIgZmlsbD0ibm9uZSIgc3Ryb2tlLWxpbmVqb2luPSJtaXRlciIgc3Ryb2tlLW1pdGVybGltaXQ9IjEwIiBzdHJva2UtbGluZWNhcD0icm91bmQiIHN0cm9rZS13aWR0aD0iMCIgdHJhbnNmb3JtPSJtYXRyaXgoLjA2LDAsMCwtLjA2LDAsODQyKSIvPiYjeGE7PHBhdGggZD0iTTUwMDQgNzk4Nkg1MDU5TDUwMzEgNzgyMVoiIHRyYW5zZm9ybT0ibWF0cml4KC4wNiwwLDAsLS4wNiwwLDg0MikiLz4mI3hhOzxwYXRoIGQ9Ik01MDA0IDc5ODZINTA1OUw1MDMxIDc4MjFaIiBzdHJva2U9IiMwMDAwMDAiIGZpbGw9Im5vbmUiIHN0cm9rZS1saW5lam9pbj0ibWl0ZXIiIHN0cm9rZS1taXRlcmxpbWl0PSIxMCIgc3Ryb2tlLWxpbmVjYXA9InJvdW5kIiBzdHJva2Utd2lkdGg9IjAiIHRyYW5zZm9ybT0ibWF0cml4KC4wNiwwLDAsLS4wNiwwLDg0MikiLz4mI3hhOzx0ZXh0IGZvbnQtZmFtaWx5PSJWZXJkYW5hIiBmb250LXNpemU9IjIyNy40MjMiIHRyYW5zZm9ybT0ibWF0cml4KDAgLS4wNiAuMDYgMCAwIDg0MikiIHhtbDpzcGFjZT0icHJlc2VydmUiPjx0c3BhbiB4PSI3NDg1IDc2MjkuNjQxIDc3MTIuNDIzIDc4NTcuMDY0IiB5PSI0OTYyIj4zLjI1PC90c3Bhbj48L3RleHQ+JiN4YTs8cGF0aCBkPSJNMTYxMyA3MzYwVjcwMTYiIHN0cm9rZT0iIzAwMDAwMCIgZmlsbD0ibm9uZSIgc3Ryb2tlLWxpbmVqb2luPSJyb3VuZCIgc3Ryb2tlLWxpbmVjYXA9InJvdW5kIiBzdHJva2Utd2lkdGg9IjEyIiB0cmFuc2Zvcm09Im1hdHJpeCguMDYsMCwwLC0uMDYsMCw4NDIpIi8+JiN4YTs8cGF0aCBkPSJNNDEzMiA3MzYwVjcwMTYiIHN0cm9rZT0iIzAwMDAwMCIgZmlsbD0ibm9uZSIgc3Ryb2tlLWxpbmVqb2luPSJyb3VuZCIgc3Ryb2tlLWxpbmVjYXA9InJvdW5kIiBzdHJva2Utd2lkdGg9IjEyIiB0cmFuc2Zvcm09Im1hdHJpeCguMDYsMCwwLC0uMDYsMCw4NDIpIi8+JiN4YTs8cGF0aCBkPSJNMTc3OCA3MTE1SDM5NjciIHN0cm9rZT0iIzAwMDAwMCIgZmlsbD0ibm9uZSIgc3Ryb2tlLWxpbmVqb2luPSJyb3VuZCIgc3Ryb2tlLWxpbmVjYXA9InJvdW5kIiBzdHJva2Utd2lkdGg9IjEyIiB0cmFuc2Zvcm09Im1hdHJpeCguMDYsMCwwLC0uMDYsMCw4NDIpIi8+JiN4YTs8cGF0aCBkPSJNMTc3OCA3MTQzVjcwODdMMTYxMyA3MTE1WiIgdHJhbnNmb3JtPSJtYXRyaXgoLjA2LDAsMCwtLjA2LDAsODQyKSIvPiYjeGE7PHBhdGggZD0iTTE3NzggNzE0M1Y3MDg3TDE2MTMgNzExNVoiIHN0cm9rZT0iIzAwMDAwMCIgZmlsbD0ibm9uZSIgc3Ryb2tlLWxpbmVqb2luPSJtaXRlciIgc3Ryb2tlLW1pdGVybGltaXQ9IjEwIiBzdHJva2UtbGluZWNhcD0icm91bmQiIHN0cm9rZS13aWR0aD0iMCIgdHJhbnNmb3JtPSJtYXRyaXgoLjA2LDAsMCwtLjA2LDAsODQyKSIvPiYjeGE7PHBhdGggZD0iTTM5NjcgNzE0M1Y3MDg3TDQxMzIgNzExNVoiIHRyYW5zZm9ybT0ibWF0cml4KC4wNiwwLDAsLS4wNiwwLDg0MikiLz4mI3hhOzxwYXRoIGQ9Ik0zOTY3IDcxNDNWNzA4N0w0MTMyIDcxMTVaIiBzdHJva2U9IiMwMDAwMDAiIGZpbGw9Im5vbmUiIHN0cm9rZS1saW5lam9pbj0ibWl0ZXIiIHN0cm9rZS1taXRlcmxpbWl0PSIxMCIgc3Ryb2tlLWxpbmVjYXA9InJvdW5kIiBzdHJva2Utd2lkdGg9IjAiIHRyYW5zZm9ybT0ibWF0cml4KC4wNiwwLDAsLS4wNiwwLDg0MikiLz4mI3hhOzx0ZXh0IGZvbnQtZmFtaWx5PSJWZXJkYW5hIiBmb250LXNpemU9IjIyNy40MjMiIHRyYW5zZm9ybT0ibWF0cml4KC4wNiAwIC0wIC4wNiAwIDg0MikiIHhtbDpzcGFjZT0icHJlc2VydmUiPjx0c3BhbiB4PSIyNTQwIDI2ODQuNjQxIDI4MjkuMjgyMyAyOTEyLjA2NDMgMzA1Ni43MDU0IiB5PSItNzE4NSI+NTMuMzM8L3RzcGFuPjwvdGV4dD4mI3hhOzxwYXRoIGQ9Ik00MjE2IDc0NDNINDc4MSIgc3Ryb2tlPSIjMDAwMDAwIiBmaWxsPSJub25lIiBzdHJva2UtbGluZWpvaW49InJvdW5kIiBzdHJva2UtbGluZWNhcD0icm91bmQiIHN0cm9rZS13aWR0aD0iMTIiIHRyYW5zZm9ybT0ibWF0cml4KC4wNiwwLDAsLS4wNiwwLDg0MikiLz4mI3hhOzxwYXRoIGQ9Ik00NDQ2IDc4MjFINDc4MSIgc3Ryb2tlPSIjMDAwMDAwIiBmaWxsPSJub25lIiBzdHJva2UtbGluZWpvaW49InJvdW5kIiBzdHJva2UtbGluZWNhcD0icm91bmQiIHN0cm9rZS13aWR0aD0iMTIiIHRyYW5zZm9ybT0ibWF0cml4KC4wNiwwLDAsLS4wNiwwLDg0MikiLz4mI3hhOzxwYXRoIGQ9Ik00NjgxIDcyNzhWNzExMiIgc3Ryb2tlPSIjMDAwMDAwIiBmaWxsPSJub25lIiBzdHJva2UtbGluZWpvaW49InJvdW5kIiBzdHJva2UtbGluZWNhcD0icm91bmQiIHN0cm9rZS13aWR0aD0iMTIiIHRyYW5zZm9ybT0ibWF0cml4KC4wNiwwLDAsLS4wNiwwLDg0MikiLz4mI3hhOzxwYXRoIGQ9Ik00NjgxIDc5ODZWODE1MiIgc3Ryb2tlPSIjMDAwMDAwIiBmaWxsPSJub25lIiBzdHJva2UtbGluZWpvaW49InJvdW5kIiBzdHJva2UtbGluZWNhcD0icm91bmQiIHN0cm9rZS13aWR0aD0iMTIiIHRyYW5zZm9ybT0ibWF0cml4KC4wNiwwLDAsLS4wNiwwLDg0MikiLz4mI3hhOzxwYXRoIGQ9Ik00NjgxIDc0NDNWNzgyMSIgc3Ryb2tlPSIjMDAwMDAwIiBmaWxsPSJub25lIiBzdHJva2UtbGluZWpvaW49InJvdW5kIiBzdHJva2UtbGluZWNhcD0icm91bmQiIHN0cm9rZS13aWR0aD0iMTIiIHRyYW5zZm9ybT0ibWF0cml4KC4wNiwwLDAsLS4wNiwwLDg0MikiLz4mI3hhOzxwYXRoIGQ9Ik00NjU0IDcyNzhINDcwOUw0NjgxIDc0NDNaIiB0cmFuc2Zvcm09Im1hdHJpeCguMDYsMCwwLC0uMDYsMCw4NDIpIi8+JiN4YTs8cGF0aCBkPSJNNDY1NCA3Mjc4SDQ3MDlMNDY4MSA3NDQzWiIgc3Ryb2tlPSIjMDAwMDAwIiBmaWxsPSJub25lIiBzdHJva2UtbGluZWpvaW49Im1pdGVyIiBzdHJva2UtbWl0ZXJsaW1pdD0iMTAiIHN0cm9rZS1saW5lY2FwPSJyb3VuZCIgc3Ryb2tlLXdpZHRoPSIwIiB0cmFuc2Zvcm09Im1hdHJpeCguMDYsMCwwLC0uMDYsMCw4NDIpIi8+JiN4YTs8cGF0aCBkPSJNNDY1NCA3OTg2SDQ3MDlMNDY4MSA3ODIxWiIgdHJhbnNmb3JtPSJtYXRyaXgoLjA2LDAsMCwtLjA2LDAsODQyKSIvPiYjeGE7PHBhdGggZD0iTTQ2NTQgNzk4Nkg0NzA5TDQ2ODEgNzgyMVoiIHN0cm9rZT0iIzAwMDAwMCIgZmlsbD0ibm9uZSIgc3Ryb2tlLWxpbmVqb2luPSJtaXRlciIgc3Ryb2tlLW1pdGVybGltaXQ9IjEwIiBzdHJva2UtbGluZWNhcD0icm91bmQiIHN0cm9rZS13aWR0aD0iMCIgdHJhbnNmb3JtPSJtYXRyaXgoLjA2LDAsMCwtLjA2LDAsODQyKSIvPiYjeGE7PHRleHQgZm9udC1mYW1pbHk9IlZlcmRhbmEiIGZvbnQtc2l6ZT0iMjI3LjQyMyIgdHJhbnNmb3JtPSJtYXRyaXgoMCAtLjA2IC4wNiAwIDAgODQyKSIgeG1sOnNwYWNlPSJwcmVzZXJ2ZSI+PHRzcGFuIHg9Ijc1NjAiIHk9IjQ2MTEiPjg8L3RzcGFuPjwvdGV4dD4mI3hhOzxwYXRoIGQ9Ik01Njk2IDc1MTRWNzAyNyIgc3Ryb2tlPSIjMDAwMDAwIiBmaWxsPSJub25lIiBzdHJva2UtbGluZWpvaW49InJvdW5kIiBzdHJva2UtbGluZWNhcD0icm91bmQiIHN0cm9rZS13aWR0aD0iMTIiIHRyYW5zZm9ybT0ibWF0cml4KC4wNiwwLDAsLS4wNiwwLDg0MikiLz4mI3hhOzxwYXRoIGQ9Ik04NDYxIDc1MTRWNzAyNyIgc3Ryb2tlPSIjMDAwMDAwIiBmaWxsPSJub25lIiBzdHJva2UtbGluZWpvaW49InJvdW5kIiBzdHJva2UtbGluZWNhcD0icm91bmQiIHN0cm9rZS13aWR0aD0iMTIiIHRyYW5zZm9ybT0ibWF0cml4KC4wNiwwLDAsLS4wNiwwLDg0MikiLz4mI3hhOzxwYXRoIGQ9Ik01ODYxIDcxMjZIODI5NiIgc3Ryb2tlPSIjMDAwMDAwIiBmaWxsPSJub25lIiBzdHJva2UtbGluZWpvaW49InJvdW5kIiBzdHJva2UtbGluZWNhcD0icm91bmQiIHN0cm9rZS13aWR0aD0iMTIiIHRyYW5zZm9ybT0ibWF0cml4KC4wNiwwLDAsLS4wNiwwLDg0MikiLz4mI3hhOzxwYXRoIGQ9Ik01ODYxIDcxNTRWNzA5OUw1Njk2IDcxMjZaIiB0cmFuc2Zvcm09Im1hdHJpeCguMDYsMCwwLC0uMDYsMCw4NDIpIi8+JiN4YTs8cGF0aCBkPSJNNTg2MSA3MTU0VjcwOTlMNTY5NiA3MTI2WiIgc3Ryb2tlPSIjMDAwMDAwIiBmaWxsPSJub25lIiBzdHJva2UtbGluZWpvaW49Im1pdGVyIiBzdHJva2UtbWl0ZXJsaW1pdD0iMTAiIHN0cm9rZS1saW5lY2FwPSJyb3VuZCIgc3Ryb2tlLXdpZHRoPSIwIiB0cmFuc2Zvcm09Im1hdHJpeCguMDYsMCwwLC0uMDYsMCw4NDIpIi8+JiN4YTs8cGF0aCBkPSJNODI5NiA3MTU0VjcwOTlMODQ2MSA3MTI2WiIgdHJhbnNmb3JtPSJtYXRyaXgoLjA2LDAsMCwtLjA2LDAsODQyKSIvPiYjeGE7PHBhdGggZD0iTTgyOTYgNzE1NFY3MDk5TDg0NjEgNzEyNloiIHN0cm9rZT0iIzAwMDAwMCIgZmlsbD0ibm9uZSIgc3Ryb2tlLWxpbmVqb2luPSJtaXRlciIgc3Ryb2tlLW1pdGVybGltaXQ9IjEwIiBzdHJva2UtbGluZWNhcD0icm91bmQiIHN0cm9rZS13aWR0aD0iMCIgdHJhbnNmb3JtPSJtYXRyaXgoLjA2LDAsMCwtLjA2LDAsODQyKSIvPiYjeGE7PHRleHQgZm9udC1mYW1pbHk9IlZlcmRhbmEiIGZvbnQtc2l6ZT0iMjI3LjQyMyIgdHJhbnNmb3JtPSJtYXRyaXgoLjA2IDAgLTAgLjA2IDAgODQyKSIgeG1sOnNwYWNlPSJwcmVzZXJ2ZSI+PHRzcGFuIHg9IjY3NDYgNjg5MC42NDEgNzAzNS4yODIgNzExOC4wNjQ2IDcyNjIuNzA1OCIgeT0iLTcxOTYiPjU4LjUzPC90c3Bhbj48L3RleHQ+JiN4YTs8cGF0aCBkPSJNNTYxMiA3NjQ1SDU0OTciIHN0cm9rZT0iIzAwMDAwMCIgZmlsbD0ibm9uZSIgc3Ryb2tlLWxpbmVqb2luPSJyb3VuZCIgc3Ryb2tlLWxpbmVjYXA9InJvdW5kIiBzdHJva2Utd2lkdGg9IjEyIiB0cmFuc2Zvcm09Im1hdHJpeCguMDYsMCwwLC0uMDYsMCw4NDIpIi8+JiN4YTs8cGF0aCBkPSJNNTYxMiA3NTk3SDU0OTciIHN0cm9rZT0iIzAwMDAwMCIgZmlsbD0ibm9uZSIgc3Ryb2tlLWxpbmVqb2luPSJyb3VuZCIgc3Ryb2tlLWxpbmVjYXA9InJvdW5kIiBzdHJva2Utd2lkdGg9IjEyIiB0cmFuc2Zvcm09Im1hdHJpeCguMDYsMCwwLC0uMDYsMCw4NDIpIi8+JiN4YTs8cGF0aCBkPSJNNTU5NyA3ODEwVjc5NzUiIHN0cm9rZT0iIzAwMDAwMCIgZmlsbD0ibm9uZSIgc3Ryb2tlLWxpbmVqb2luPSJyb3VuZCIgc3Ryb2tlLWxpbmVjYXA9InJvdW5kIiBzdHJva2Utd2lkdGg9IjEyIiB0cmFuc2Zvcm09Im1hdHJpeCguMDYsMCwwLC0uMDYsMCw4NDIpIi8+JiN4YTs8cGF0aCBkPSJNNTU5NyA3NDMyVjcyNjciIHN0cm9rZT0iIzAwMDAwMCIgZmlsbD0ibm9uZSIgc3Ryb2tlLWxpbmVqb2luPSJyb3VuZCIgc3Ryb2tlLWxpbmVjYXA9InJvdW5kIiBzdHJva2Utd2lkdGg9IjEyIiB0cmFuc2Zvcm09Im1hdHJpeCguMDYsMCwwLC0uMDYsMCw4NDIpIi8+JiN4YTs8cGF0aCBkPSJNNTU5NyA3NjQ1Vjc1OTciIHN0cm9rZT0iIzAwMDAwMCIgZmlsbD0ibm9uZSIgc3Ryb2tlLWxpbmVqb2luPSJyb3VuZCIgc3Ryb2tlLWxpbmVjYXA9InJvdW5kIiBzdHJva2Utd2lkdGg9IjEyIiB0cmFuc2Zvcm09Im1hdHJpeCguMDYsMCwwLC0uMDYsMCw4NDIpIi8+JiN4YTs8cGF0aCBkPSJNNTU2OSA3ODEwSDU2MjRMNTU5NyA3NjQ1WiIgdHJhbnNmb3JtPSJtYXRyaXgoLjA2LDAsMCwtLjA2LDAsODQyKSIvPiYjeGE7PHBhdGggZD0iTTU1NjkgNzgxMEg1NjI0TDU1OTcgNzY0NVoiIHN0cm9rZT0iIzAwMDAwMCIgZmlsbD0ibm9uZSIgc3Ryb2tlLWxpbmVqb2luPSJtaXRlciIgc3Ryb2tlLW1pdGVybGltaXQ9IjEwIiBzdHJva2UtbGluZWNhcD0icm91bmQiIHN0cm9rZS13aWR0aD0iMCIgdHJhbnNmb3JtPSJtYXRyaXgoLjA2LDAsMCwtLjA2LDAsODQyKSIvPiYjeGE7PHBhdGggZD0iTTU1NjkgNzQzMkg1NjI0TDU1OTcgNzU5N1oiIHRyYW5zZm9ybT0ibWF0cml4KC4wNiwwLDAsLS4wNiwwLDg0MikiLz4mI3hhOzxwYXRoIGQ9Ik01NTY5IDc0MzJINTYyNEw1NTk3IDc1OTdaIiBzdHJva2U9IiMwMDAwMDAiIGZpbGw9Im5vbmUiIHN0cm9rZS1saW5lam9pbj0ibWl0ZXIiIHN0cm9rZS1taXRlcmxpbWl0PSIxMCIgc3Ryb2tlLWxpbmVjYXA9InJvdW5kIiBzdHJva2Utd2lkdGg9IjAiIHRyYW5zZm9ybT0ibWF0cml4KC4wNiwwLDAsLS4wNiwwLDg0MikiLz4mI3hhOzx0ZXh0IGZvbnQtZmFtaWx5PSJWZXJkYW5hIiBmb250LXNpemU9IjIyNy40MjMiIHRyYW5zZm9ybT0ibWF0cml4KDAgLS4wNiAuMDYgMCAwIDg0MikiIHhtbDpzcGFjZT0icHJlc2VydmUiPjx0c3BhbiB4PSI3NTQ1IiB5PSI1NTMxIj4xPC90c3Bhbj48L3RleHQ+JiN4YTs8cGF0aCBkPSJNNjU5NSA3NjkwSDY0NzkiIHN0cm9rZT0iIzAwMDAwMCIgZmlsbD0ibm9uZSIgc3Ryb2tlLWxpbmVqb2luPSJyb3VuZCIgc3Ryb2tlLWxpbmVjYXA9InJvdW5kIiBzdHJva2Utd2lkdGg9IjEyIiB0cmFuc2Zvcm09Im1hdHJpeCguMDYsMCwwLC0uMDYsMCw4NDIpIi8+JiN4YTs8cGF0aCBkPSJNNjQ0NSA3NjQ1SDY2NzciIHN0cm9rZT0iIzAwMDAwMCIgZmlsbD0ibm9uZSIgc3Ryb2tlLWxpbmVqb2luPSJyb3VuZCIgc3Ryb2tlLWxpbmVjYXA9InJvdW5kIiBzdHJva2Utd2lkdGg9IjEyIiB0cmFuc2Zvcm09Im1hdHJpeCguMDYsMCwwLC0uMDYsMCw4NDIpIi8+JiN4YTs8cGF0aCBkPSJNNjU3OCA3NDc5VjczMTQiIHN0cm9rZT0iIzAwMDAwMCIgZmlsbD0ibm9uZSIgc3Ryb2tlLWxpbmVqb2luPSJyb3VuZCIgc3Ryb2tlLWxpbmVjYXA9InJvdW5kIiBzdHJva2Utd2lkdGg9IjEyIiB0cmFuc2Zvcm09Im1hdHJpeCguMDYsMCwwLC0uMDYsMCw4NDIpIi8+JiN4YTs8cGF0aCBkPSJNNjU3OCA3ODU2VjgyNDMiIHN0cm9rZT0iIzAwMDAwMCIgZmlsbD0ibm9uZSIgc3Ryb2tlLWxpbmVqb2luPSJyb3VuZCIgc3Ryb2tlLWxpbmVjYXA9InJvdW5kIiBzdHJva2Utd2lkdGg9IjEyIiB0cmFuc2Zvcm09Im1hdHJpeCguMDYsMCwwLC0uMDYsMCw4NDIpIi8+JiN4YTs8cGF0aCBkPSJNNjU3OCA3NjQ1Vjc2OTAiIHN0cm9rZT0iIzAwMDAwMCIgZmlsbD0ibm9uZSIgc3Ryb2tlLWxpbmVqb2luPSJyb3VuZCIgc3Ryb2tlLWxpbmVjYXA9InJvdW5kIiBzdHJva2Utd2lkdGg9IjEyIiB0cmFuc2Zvcm09Im1hdHJpeCguMDYsMCwwLC0uMDYsMCw4NDIpIi8+JiN4YTs8cGF0aCBkPSJNNjU1MSA3NDc5SDY2MDZMNjU3OCA3NjQ1WiIgdHJhbnNmb3JtPSJtYXRyaXgoLjA2LDAsMCwtLjA2LDAsODQyKSIvPiYjeGE7PHBhdGggZD0iTTY1NTEgNzQ3OUg2NjA2TDY1NzggNzY0NVoiIHN0cm9rZT0iIzAwMDAwMCIgZmlsbD0ibm9uZSIgc3Ryb2tlLWxpbmVqb2luPSJtaXRlciIgc3Ryb2tlLW1pdGVybGltaXQ9IjEwIiBzdHJva2UtbGluZWNhcD0icm91bmQiIHN0cm9rZS13aWR0aD0iMCIgdHJhbnNmb3JtPSJtYXRyaXgoLjA2LDAsMCwtLjA2LDAsODQyKSIvPiYjeGE7PHBhdGggZD0iTTY1NTEgNzg1Nkg2NjA2TDY1NzggNzY5MFoiIHRyYW5zZm9ybT0ibWF0cml4KC4wNiwwLDAsLS4wNiwwLDg0MikiLz4mI3hhOzxwYXRoIGQ9Ik02NTUxIDc4NTZINjYwNkw2NTc4IDc2OTBaIiBzdHJva2U9IiMwMDAwMDAiIGZpbGw9Im5vbmUiIHN0cm9rZS1saW5lam9pbj0ibWl0ZXIiIHN0cm9rZS1taXRlcmxpbWl0PSIxMCIgc3Ryb2tlLWxpbmVjYXA9InJvdW5kIiBzdHJva2Utd2lkdGg9IjAiIHRyYW5zZm9ybT0ibWF0cml4KC4wNiwwLDAsLS4wNiwwLDg0MikiLz4mI3hhOzx0ZXh0IGZvbnQtZmFtaWx5PSJWZXJkYW5hIiBmb250LXNpemU9IjIyNy40MjMiIHRyYW5zZm9ybT0ibWF0cml4KDAgLS4wNiAuMDYgMCAwIDg0MikiIHhtbDpzcGFjZT0icHJlc2VydmUiPjx0c3BhbiB4PSI4MDU2IiB5PSI2NTEyIj4xPC90c3Bhbj48L3RleHQ+JiN4YTs8L2c+JiN4YTs8L2c+JiN4YTs8L3N2Zz4=;" parent="6ik4fCtfQ_uQef5bXLx3-1" vertex="1">
          <mxGeometry x="41.339999999999996" y="23.622" width="748.38" height="1059.05" as="geometry" />
        </mxCell>
        <mxCell id="6ik4fCtfQ_uQef5bXLx3-4" value="" style="endArrow=none;html=1;rounded=0;curved=0;endSize=6;targetPerimeterSpacing=0;jumpSize=6;strokeColor=default;exitX=0.5;exitY=0.018;exitDx=0;exitDy=0;exitPerimeter=0;strokeWidth=1;" parent="6ik4fCtfQ_uQef5bXLx3-1" source="6ik4fCtfQ_uQef5bXLx3-3" edge="1">
          <mxGeometry width="50" height="50" relative="1" as="geometry">
            <mxPoint x="413.37" y="32.68" as="sourcePoint" />
            <mxPoint x="413.37" y="19.68" as="targetPoint" />
          </mxGeometry>
        </mxCell>
        <mxCell id="6ik4fCtfQ_uQef5bXLx3-5" value="" style="endArrow=none;html=1;rounded=0;entryX=0.026;entryY=0.5;entryDx=0;entryDy=0;entryPerimeter=0;strokeWidth=1;" parent="6ik4fCtfQ_uQef5bXLx3-1" target="6ik4fCtfQ_uQef5bXLx3-3" edge="1">
          <mxGeometry width="50" height="50" relative="1" as="geometry">
            <mxPoint x="19.69" y="584.67" as="sourcePoint" />
            <mxPoint x="27.69" y="584.67" as="targetPoint" />
          </mxGeometry>
        </mxCell>
        <mxCell id="6ik4fCtfQ_uQef5bXLx3-6" value="" style="endArrow=none;html=1;rounded=0;exitX=0.974;exitY=0.5;exitDx=0;exitDy=0;exitPerimeter=0;strokeWidth=1;" parent="6ik4fCtfQ_uQef5bXLx3-1" source="6ik4fCtfQ_uQef5bXLx3-3" edge="1">
          <mxGeometry width="50" height="50" relative="1" as="geometry">
            <mxPoint x="797" y="584.68" as="sourcePoint" />
            <mxPoint x="807" y="584.68" as="targetPoint" />
          </mxGeometry>
        </mxCell>
        <mxCell id="6ik4fCtfQ_uQef5bXLx3-7" value="" style="endArrow=none;html=1;rounded=0;entryX=1;entryY=0.75;entryDx=0;entryDy=0;exitX=0;exitY=0.75;exitDx=0;exitDy=0;strokeWidth=1;" parent="6ik4fCtfQ_uQef5bXLx3-1" edge="1">
          <mxGeometry width="50" height="50" relative="1" as="geometry">
            <mxPoint x="39.3" y="944.8825000000002" as="sourcePoint" />
            <mxPoint x="787.49" y="944.8825000000002" as="targetPoint" />
          </mxGeometry>
        </mxCell>
        <mxCell id="6ik4fCtfQ_uQef5bXLx3-8" value="" style="endArrow=none;html=1;rounded=0;entryX=1;entryY=0.75;entryDx=0;entryDy=0;exitX=0;exitY=0.75;exitDx=0;exitDy=0;strokeWidth=1;" parent="6ik4fCtfQ_uQef5bXLx3-1" edge="1">
          <mxGeometry width="50" height="50" relative="1" as="geometry">
            <mxPoint x="39.3" y="984.2510000000001" as="sourcePoint" />
            <mxPoint x="787.49" y="984.2510000000001" as="targetPoint" />
          </mxGeometry>
        </mxCell>
        <mxCell id="6ik4fCtfQ_uQef5bXLx3-9" value="" style="endArrow=none;html=1;rounded=0;strokeWidth=1;" parent="6ik4fCtfQ_uQef5bXLx3-1" edge="1">
          <mxGeometry width="50" height="50" relative="1" as="geometry">
            <mxPoint x="547.24" y="1130" as="sourcePoint" />
            <mxPoint x="547.24" y="944.9" as="targetPoint" />
          </mxGeometry>
        </mxCell>
        <mxCell id="6ik4fCtfQ_uQef5bXLx3-10" value="" style="endArrow=none;html=1;rounded=0;strokeWidth=1;" parent="6ik4fCtfQ_uQef5bXLx3-1" edge="1">
          <mxGeometry width="50" height="50" relative="1" as="geometry">
            <mxPoint x="307.08849999999995" y="1129.9985" as="sourcePoint" />
            <mxPoint x="307.08849999999995" y="944.9" as="targetPoint" />
          </mxGeometry>
        </mxCell>
        <mxCell id="6ik4fCtfQ_uQef5bXLx3-11" value="" style="endArrow=none;html=1;rounded=0;entryX=1;entryY=0.75;entryDx=0;entryDy=0;exitX=0;exitY=0.75;exitDx=0;exitDy=0;strokeWidth=1;" parent="6ik4fCtfQ_uQef5bXLx3-1" edge="1">
          <mxGeometry width="50" height="50" relative="1" as="geometry">
            <mxPoint x="307.1" y="1023.6195" as="sourcePoint" />
            <mxPoint x="787.5" y="1023.6195" as="targetPoint" />
          </mxGeometry>
        </mxCell>
        <mxCell id="6ik4fCtfQ_uQef5bXLx3-12" value="" style="endArrow=none;html=1;rounded=0;entryX=1;entryY=0.75;entryDx=0;entryDy=0;exitX=0;exitY=0.75;exitDx=0;exitDy=0;strokeWidth=1;" parent="6ik4fCtfQ_uQef5bXLx3-1" edge="1">
          <mxGeometry width="50" height="50" relative="1" as="geometry">
            <mxPoint x="547.2" y="1090.548" as="sourcePoint" />
            <mxPoint x="787.5" y="1090.548" as="targetPoint" />
          </mxGeometry>
        </mxCell>
        <mxCell id="6ik4fCtfQ_uQef5bXLx3-13" value="" style="endArrow=none;html=1;rounded=0;strokeWidth=1;" parent="6ik4fCtfQ_uQef5bXLx3-1" edge="1">
          <mxGeometry width="50" height="50" relative="1" as="geometry">
            <mxPoint x="586.6084999999999" y="1129.9985" as="sourcePoint" />
            <mxPoint x="586.6084999999999" y="1090.5" as="targetPoint" />
          </mxGeometry>
        </mxCell>
        <mxCell id="6ik4fCtfQ_uQef5bXLx3-14" value="" style="endArrow=none;html=1;rounded=0;strokeWidth=1;" parent="6ik4fCtfQ_uQef5bXLx3-1" edge="1">
          <mxGeometry width="50" height="50" relative="1" as="geometry">
            <mxPoint x="728.347" y="1129.9969999999998" as="sourcePoint" />
            <mxPoint x="728.347" y="1090.4985" as="targetPoint" />
          </mxGeometry>
        </mxCell>
        <mxCell id="6ik4fCtfQ_uQef5bXLx3-15" value="" style="endArrow=none;html=1;rounded=0;strokeWidth=1;" parent="6ik4fCtfQ_uQef5bXLx3-1" edge="1">
          <mxGeometry width="50" height="50" relative="1" as="geometry">
            <mxPoint x="173.22699999999986" y="984.3" as="sourcePoint" />
            <mxPoint x="173.22699999999986" y="944.8784999999999" as="targetPoint" />
          </mxGeometry>
        </mxCell>
        <mxCell id="6ik4fCtfQ_uQef5bXLx3-16" value="&lt;font style=&quot;font-size: 10px;&quot;&gt;Unit&lt;/font&gt;" style="text;html=1;align=left;verticalAlign=middle;whiteSpace=wrap;rounded=0;fillColor=none;fontStyle=0;fontFamily=Verdana;fontSize=10;" parent="6ik4fCtfQ_uQef5bXLx3-1" vertex="1">
          <mxGeometry x="41.339999999999996" y="944.88" width="25.59" height="12.29" as="geometry" />
        </mxCell>
        <mxCell id="6ik4fCtfQ_uQef5bXLx3-17" value="&lt;font style=&quot;font-size: 10px;&quot;&gt;Scale&lt;/font&gt;" style="text;html=1;align=left;verticalAlign=middle;whiteSpace=wrap;rounded=0;fontStyle=0;fontFamily=Verdana;fontSize=10;" parent="6ik4fCtfQ_uQef5bXLx3-1" vertex="1">
          <mxGeometry x="175.19849999999997" y="944.8784999999999" width="25.59" height="12.29" as="geometry" />
        </mxCell>
        <mxCell id="6ik4fCtfQ_uQef5bXLx3-18" value="&lt;font style=&quot;font-size: 10px;&quot;&gt;&lt;span style=&quot;font-size: 10px;&quot;&gt;General tolerances&lt;/span&gt;&lt;/font&gt;" style="text;html=1;align=left;verticalAlign=middle;whiteSpace=wrap;rounded=0;fontStyle=0;fontFamily=Verdana;fontSize=10;" parent="6ik4fCtfQ_uQef5bXLx3-1" vertex="1">
          <mxGeometry x="309.06" y="944.88" width="124.01" height="12.29" as="geometry" />
        </mxCell>
        <mxCell id="6ik4fCtfQ_uQef5bXLx3-19" value="&lt;font style=&quot;font-size: 10px;&quot;&gt;Material&lt;/font&gt;" style="text;html=1;align=left;verticalAlign=middle;whiteSpace=wrap;rounded=0;fontStyle=0;fontFamily=Verdana;fontSize=10;" parent="6ik4fCtfQ_uQef5bXLx3-1" vertex="1">
          <mxGeometry x="549.22" y="944.88" width="47.24" height="12.29" as="geometry" />
        </mxCell>
        <mxCell id="6ik4fCtfQ_uQef5bXLx3-20" value="&lt;font style=&quot;font-size: 10px;&quot;&gt;Created by&lt;/font&gt;" style="text;html=1;align=left;verticalAlign=middle;whiteSpace=wrap;rounded=0;fontStyle=0;fontFamily=Verdana;fontSize=10;" parent="6ik4fCtfQ_uQef5bXLx3-1" vertex="1">
          <mxGeometry x="549.22" y="984.25" width="74.79" height="12.29" as="geometry" />
        </mxCell>
        <mxCell id="6ik4fCtfQ_uQef5bXLx3-21" value="&lt;font style=&quot;font-size: 10px;&quot;&gt;Project title&lt;/font&gt;" style="text;html=1;align=left;verticalAlign=middle;whiteSpace=wrap;rounded=0;fontStyle=0;fontFamily=Verdana;fontSize=10;" parent="6ik4fCtfQ_uQef5bXLx3-1" vertex="1">
          <mxGeometry x="309.06" y="984.25" width="80.7" height="12.29" as="geometry" />
        </mxCell>
        <mxCell id="6ik4fCtfQ_uQef5bXLx3-22" value="&lt;font style=&quot;font-size: 10px;&quot;&gt;Drawing title&lt;/font&gt;" style="text;html=1;align=left;verticalAlign=middle;whiteSpace=wrap;rounded=0;fontStyle=0;fontFamily=Verdana;fontSize=10;" parent="6ik4fCtfQ_uQef5bXLx3-1" vertex="1">
          <mxGeometry x="309.06" y="1023.62" width="82.67" height="12.29" as="geometry" />
        </mxCell>
        <mxCell id="6ik4fCtfQ_uQef5bXLx3-23" value="&lt;font style=&quot;font-size: 10px;&quot;&gt;Drawing number&lt;/font&gt;" style="text;html=1;align=left;verticalAlign=middle;whiteSpace=wrap;rounded=0;fontStyle=0;fontFamily=Verdana;fontSize=10;" parent="6ik4fCtfQ_uQef5bXLx3-1" vertex="1">
          <mxGeometry x="549.22" y="1023.62" width="98.42" height="12.29" as="geometry" />
        </mxCell>
        <mxCell id="6ik4fCtfQ_uQef5bXLx3-24" value="&lt;font style=&quot;font-size: 10px;&quot;&gt;Notes (Scale 1:1)&lt;/font&gt;" style="text;html=1;align=left;verticalAlign=middle;whiteSpace=wrap;rounded=0;fontStyle=0;fontFamily=Verdana;fontSize=10;" parent="6ik4fCtfQ_uQef5bXLx3-1" vertex="1">
          <mxGeometry x="41.34" y="984.25" width="106.3" height="12.29" as="geometry" />
        </mxCell>
        <mxCell id="6ik4fCtfQ_uQef5bXLx3-25" value="&lt;font style=&quot;font-size: 10px;&quot;&gt;Rev.&lt;/font&gt;" style="text;html=1;align=left;verticalAlign=middle;whiteSpace=wrap;rounded=0;fontStyle=0;fontFamily=Verdana;fontSize=10;" parent="6ik4fCtfQ_uQef5bXLx3-1" vertex="1">
          <mxGeometry x="549.22" y="1090.55" width="41.33" height="12.29" as="geometry" />
        </mxCell>
        <mxCell id="6ik4fCtfQ_uQef5bXLx3-26" value="&lt;font style=&quot;font-size: 10px;&quot;&gt;Date of issue&lt;/font&gt;" style="text;html=1;align=left;verticalAlign=middle;whiteSpace=wrap;rounded=0;fontStyle=0;fontFamily=Verdana;fontSize=10;" parent="6ik4fCtfQ_uQef5bXLx3-1" vertex="1">
          <mxGeometry x="588" y="1090.55" width="83.26" height="12.29" as="geometry" />
        </mxCell>
        <mxCell id="6ik4fCtfQ_uQef5bXLx3-27" value="&lt;font style=&quot;font-size: 10px;&quot;&gt;Sheet&lt;/font&gt;" style="text;html=1;align=left;verticalAlign=middle;whiteSpace=wrap;rounded=0;fontStyle=0;fontFamily=Verdana;fontSize=10;" parent="6ik4fCtfQ_uQef5bXLx3-1" vertex="1">
          <mxGeometry x="729.73" y="1090.55" width="61.61" height="12.29" as="geometry" />
        </mxCell>
        <mxCell id="6ik4fCtfQ_uQef5bXLx3-28" value="&lt;font style=&quot;font-size: 20px; font-weight: normal;&quot;&gt;millimeters&lt;/font&gt;" style="text;html=1;align=left;verticalAlign=middle;whiteSpace=wrap;rounded=0;fillColor=none;fontStyle=1;fontFamily=Verdana;" parent="6ik4fCtfQ_uQef5bXLx3-1" vertex="1">
          <mxGeometry x="41.34" y="964.5699999999999" width="49.21" height="12.29" as="geometry" />
        </mxCell>
        <mxCell id="6ik4fCtfQ_uQef5bXLx3-29" value="&lt;font style=&quot;font-size: 20px; font-weight: normal;&quot;&gt;1:3&lt;/font&gt;" style="text;html=1;align=left;verticalAlign=middle;whiteSpace=wrap;rounded=0;fillColor=none;fontStyle=1;fontFamily=Verdana;" parent="6ik4fCtfQ_uQef5bXLx3-1" vertex="1">
          <mxGeometry x="175.1985" y="964.5684999999999" width="49.21" height="12.29" as="geometry" />
        </mxCell>
        <mxCell id="6ik4fCtfQ_uQef5bXLx3-30" value="&lt;font style=&quot;font-weight: normal; font-size: 20px;&quot;&gt;ISO 2768-m&lt;/font&gt;" style="text;html=1;align=left;verticalAlign=middle;whiteSpace=wrap;rounded=0;fillColor=none;fontStyle=1;fontFamily=Verdana;" parent="6ik4fCtfQ_uQef5bXLx3-1" vertex="1">
          <mxGeometry x="311.03" y="964.57" width="226.37" height="12.29" as="geometry" />
        </mxCell>
        <mxCell id="6ik4fCtfQ_uQef5bXLx3-31" value="&lt;font style=&quot;font-size: 20px; font-weight: normal;&quot;&gt;Sunflower&lt;/font&gt;" style="text;html=1;align=left;verticalAlign=middle;whiteSpace=wrap;rounded=0;fillColor=none;fontStyle=1;fontFamily=Verdana;" parent="6ik4fCtfQ_uQef5bXLx3-1" vertex="1">
          <mxGeometry x="311.03" y="1003.94" width="187" height="12.29" as="geometry" />
        </mxCell>
        <mxCell id="6ik4fCtfQ_uQef5bXLx3-32" value="&lt;font style=&quot;font-size: 20px; font-weight: normal;&quot;&gt;Polylactic Acid (PLA)&lt;/font&gt;" style="text;html=1;align=left;verticalAlign=middle;whiteSpace=wrap;rounded=0;fillColor=none;fontStyle=1;fontFamily=Verdana;" parent="6ik4fCtfQ_uQef5bXLx3-1" vertex="1">
          <mxGeometry x="551.18" y="964.57" width="226.38" height="12.29" as="geometry" />
        </mxCell>
        <mxCell id="6ik4fCtfQ_uQef5bXLx3-33" value="&lt;font style=&quot;font-size: 20px; font-weight: normal;&quot;&gt;teoelectric&lt;/font&gt;" style="text;html=1;align=left;verticalAlign=middle;whiteSpace=wrap;rounded=0;fillColor=none;fontStyle=1;fontFamily=Verdana;" parent="6ik4fCtfQ_uQef5bXLx3-1" vertex="1">
          <mxGeometry x="551.17" y="1003.94" width="145.67" height="12.29" as="geometry" />
        </mxCell>
        <mxCell id="6ik4fCtfQ_uQef5bXLx3-34" value="&lt;span style=&quot;font-size: 20px; font-weight: 400;&quot;&gt;9&lt;/span&gt;" style="text;html=1;align=center;verticalAlign=middle;whiteSpace=wrap;rounded=0;fillColor=none;fontStyle=1;fontFamily=Verdana;" parent="6ik4fCtfQ_uQef5bXLx3-1" vertex="1">
          <mxGeometry x="557.0899999999999" y="1053.15" width="220.47" height="12.29" as="geometry" />
        </mxCell>
        <mxCell id="6ik4fCtfQ_uQef5bXLx3-35" value="&lt;font style=&quot;font-size: 20px; font-weight: normal;&quot;&gt;Sunflower Saucer Dimensions&lt;/font&gt;" style="text;html=1;align=left;verticalAlign=middle;whiteSpace=wrap;rounded=0;fillColor=none;fontStyle=1;fontFamily=Verdana;" parent="6ik4fCtfQ_uQef5bXLx3-1" vertex="1">
          <mxGeometry x="311.03" y="1068.9" width="244.09" height="12.29" as="geometry" />
        </mxCell>
        <mxCell id="6ik4fCtfQ_uQef5bXLx3-36" value="&lt;font style=&quot;font-size: 20px; font-weight: normal;&quot;&gt;1/1&lt;/font&gt;" style="text;html=1;align=left;verticalAlign=middle;whiteSpace=wrap;rounded=0;fillColor=none;fontStyle=1;fontFamily=Verdana;" parent="6ik4fCtfQ_uQef5bXLx3-1" vertex="1">
          <mxGeometry x="735.934" y="1106.2939999999994" width="49.21" height="12.29" as="geometry" />
        </mxCell>
        <mxCell id="6ik4fCtfQ_uQef5bXLx3-38" value="&lt;font style=&quot;font-size: 20px; font-weight: normal;&quot;&gt;A&lt;/font&gt;" style="text;html=1;align=center;verticalAlign=middle;whiteSpace=wrap;rounded=0;fillColor=none;fontStyle=1;fontFamily=Verdana;" parent="6ik4fCtfQ_uQef5bXLx3-1" vertex="1">
          <mxGeometry x="557.0884999999998" y="1106.2985" width="19.69" height="12.29" as="geometry" />
        </mxCell>
        <mxCell id="6ik4fCtfQ_uQef5bXLx3-39" value="&lt;font style=&quot;font-size: 20px; font-weight: normal;&quot;&gt;Bottom&amp;nbsp;&lt;/font&gt;&lt;font style=&quot;font-size: 20px;&quot;&gt;(B)&lt;/font&gt;&lt;font style=&quot;font-size: 20px; font-weight: normal;&quot;&gt; height: 2.2&lt;/font&gt;" style="text;html=1;align=left;verticalAlign=middle;whiteSpace=wrap;rounded=0;fillColor=none;fontStyle=1;fontFamily=Verdana;" parent="6ik4fCtfQ_uQef5bXLx3-1" vertex="1">
          <mxGeometry x="41.33" y="1003.94" width="259.85" height="12.29" as="geometry" />
        </mxCell>
        <mxCell id="6ik4fCtfQ_uQef5bXLx3-40" value="&lt;span style=&quot;font-size: 20px; font-weight: 400;&quot;&gt;Overall chamfer and fillet&lt;/span&gt;" style="text;html=1;align=left;verticalAlign=middle;whiteSpace=wrap;rounded=0;fillColor=none;fontStyle=1;fontFamily=Verdana;" parent="6ik4fCtfQ_uQef5bXLx3-1" vertex="1">
          <mxGeometry x="41.33" y="1027.56" width="259.85" height="12.29" as="geometry" />
        </mxCell>
        <mxCell id="6ik4fCtfQ_uQef5bXLx3-41" value="&lt;span style=&quot;font-size: 20px; font-weight: 400;&quot;&gt;values: 1&lt;/span&gt;" style="text;html=1;align=left;verticalAlign=middle;whiteSpace=wrap;rounded=0;fillColor=none;fontStyle=1;fontFamily=Verdana;" parent="6ik4fCtfQ_uQef5bXLx3-1" vertex="1">
          <mxGeometry x="41.34" y="1051.97" width="285.43" height="12.29" as="geometry" />
        </mxCell>
        <mxCell id="bTe1DrjwdPlw612lmabr-4" value="&lt;font style=&quot;font-size: 8px;&quot;&gt;(B)&lt;/font&gt;" style="text;html=1;align=center;verticalAlign=middle;whiteSpace=wrap;rounded=0;fontFamily=Verdana;fontSize=8;fontColor=#000000;fontStyle=1" parent="6ik4fCtfQ_uQef5bXLx3-1" vertex="1">
          <mxGeometry x="242.12400000000002" y="301.18399999999997" width="33.46" height="18.19" as="geometry" />
        </mxCell>
        <mxCell id="KJ0GEgqaqMhALIjAtOTW-0" value="&lt;font style=&quot;font-size: 20px; font-weight: normal;&quot;&gt;17/08/2025&lt;/font&gt;" style="text;html=1;align=center;verticalAlign=middle;whiteSpace=wrap;rounded=0;fillColor=none;fontStyle=1;fontFamily=Verdana;" parent="6ik4fCtfQ_uQef5bXLx3-1" vertex="1">
          <mxGeometry x="647.64" y="1106.2900000000002" width="19.69" height="12.29" as="geometry" />
        </mxCell>
      </root>
    </mxGraphModel>
  </diagram>
</mxfile>
